G04 #@! TF.GenerationSoftware,KiCad,Pcbnew,(5.0.0)*
G04 #@! TF.CreationDate,2019-05-20T02:18:12+09:00*
G04 #@! TF.ProjectId,HeaterController_Controller,486561746572436F6E74726F6C6C6572,rev?*
G04 #@! TF.SameCoordinates,PX7f50c60PY34edce0*
G04 #@! TF.FileFunction,Soldermask,Bot*
G04 #@! TF.FilePolarity,Negative*
%FSLAX46Y46*%
G04 Gerber Fmt 4.6, Leading zero omitted, Abs format (unit mm)*
G04 Created by KiCad (PCBNEW (5.0.0)) date 05/20/19 02:18:12*
%MOMM*%
%LPD*%
G01*
G04 APERTURE LIST*
%ADD10R,2.100000X2.100000*%
%ADD11O,2.100000X2.100000*%
%ADD12C,3.200000*%
%ADD13C,3.600000*%
%ADD14C,0.100000*%
%ADD15C,1.275000*%
%ADD16R,2.125000X1.000000*%
%ADD17C,0.700000*%
%ADD18C,3.750000*%
%ADD19C,1.200000*%
%ADD20C,4.800000*%
G04 APERTURE END LIST*
D10*
G04 #@! TO.C,J2*
X-7120000Y-16500000D03*
D11*
X-4580000Y-16500000D03*
X-2040000Y-16500000D03*
X500000Y-16500000D03*
X3040000Y-16500000D03*
X5580000Y-16500000D03*
X8120000Y-16500000D03*
G04 #@! TD*
D12*
G04 #@! TO.C,J3*
X-17500000Y5960000D03*
X-17500000Y11040000D03*
G04 #@! TD*
G04 #@! TO.C,J4*
X-17500000Y-4960000D03*
X-17500000Y-10040000D03*
G04 #@! TD*
G04 #@! TO.C,J5*
X-10040000Y18500000D03*
X-4960000Y18500000D03*
G04 #@! TD*
G04 #@! TO.C,J6*
X10040000Y18500000D03*
X4960000Y18500000D03*
G04 #@! TD*
D13*
G04 #@! TO.C,MH1*
X-21500000Y22500000D03*
G04 #@! TD*
G04 #@! TO.C,MH2*
X22500000Y22500000D03*
G04 #@! TD*
G04 #@! TO.C,MH3*
X22500000Y-21500000D03*
G04 #@! TD*
G04 #@! TO.C,MH4*
X-21500000Y-21500000D03*
G04 #@! TD*
D14*
G04 #@! TO.C,C1*
G36*
X7387493Y-11151535D02*
X7418435Y-11156125D01*
X7448778Y-11163725D01*
X7478230Y-11174263D01*
X7506508Y-11187638D01*
X7533338Y-11203719D01*
X7558463Y-11222353D01*
X7581640Y-11243360D01*
X7602647Y-11266537D01*
X7621281Y-11291662D01*
X7637362Y-11318492D01*
X7650737Y-11346770D01*
X7661275Y-11376222D01*
X7668875Y-11406565D01*
X7673465Y-11437507D01*
X7675000Y-11468750D01*
X7675000Y-12106250D01*
X7673465Y-12137493D01*
X7668875Y-12168435D01*
X7661275Y-12198778D01*
X7650737Y-12228230D01*
X7637362Y-12256508D01*
X7621281Y-12283338D01*
X7602647Y-12308463D01*
X7581640Y-12331640D01*
X7558463Y-12352647D01*
X7533338Y-12371281D01*
X7506508Y-12387362D01*
X7478230Y-12400737D01*
X7448778Y-12411275D01*
X7418435Y-12418875D01*
X7387493Y-12423465D01*
X7356250Y-12425000D01*
X6643750Y-12425000D01*
X6612507Y-12423465D01*
X6581565Y-12418875D01*
X6551222Y-12411275D01*
X6521770Y-12400737D01*
X6493492Y-12387362D01*
X6466662Y-12371281D01*
X6441537Y-12352647D01*
X6418360Y-12331640D01*
X6397353Y-12308463D01*
X6378719Y-12283338D01*
X6362638Y-12256508D01*
X6349263Y-12228230D01*
X6338725Y-12198778D01*
X6331125Y-12168435D01*
X6326535Y-12137493D01*
X6325000Y-12106250D01*
X6325000Y-11468750D01*
X6326535Y-11437507D01*
X6331125Y-11406565D01*
X6338725Y-11376222D01*
X6349263Y-11346770D01*
X6362638Y-11318492D01*
X6378719Y-11291662D01*
X6397353Y-11266537D01*
X6418360Y-11243360D01*
X6441537Y-11222353D01*
X6466662Y-11203719D01*
X6493492Y-11187638D01*
X6521770Y-11174263D01*
X6551222Y-11163725D01*
X6581565Y-11156125D01*
X6612507Y-11151535D01*
X6643750Y-11150000D01*
X7356250Y-11150000D01*
X7387493Y-11151535D01*
X7387493Y-11151535D01*
G37*
D15*
X7000000Y-11787500D03*
D14*
G36*
X7387493Y-9576535D02*
X7418435Y-9581125D01*
X7448778Y-9588725D01*
X7478230Y-9599263D01*
X7506508Y-9612638D01*
X7533338Y-9628719D01*
X7558463Y-9647353D01*
X7581640Y-9668360D01*
X7602647Y-9691537D01*
X7621281Y-9716662D01*
X7637362Y-9743492D01*
X7650737Y-9771770D01*
X7661275Y-9801222D01*
X7668875Y-9831565D01*
X7673465Y-9862507D01*
X7675000Y-9893750D01*
X7675000Y-10531250D01*
X7673465Y-10562493D01*
X7668875Y-10593435D01*
X7661275Y-10623778D01*
X7650737Y-10653230D01*
X7637362Y-10681508D01*
X7621281Y-10708338D01*
X7602647Y-10733463D01*
X7581640Y-10756640D01*
X7558463Y-10777647D01*
X7533338Y-10796281D01*
X7506508Y-10812362D01*
X7478230Y-10825737D01*
X7448778Y-10836275D01*
X7418435Y-10843875D01*
X7387493Y-10848465D01*
X7356250Y-10850000D01*
X6643750Y-10850000D01*
X6612507Y-10848465D01*
X6581565Y-10843875D01*
X6551222Y-10836275D01*
X6521770Y-10825737D01*
X6493492Y-10812362D01*
X6466662Y-10796281D01*
X6441537Y-10777647D01*
X6418360Y-10756640D01*
X6397353Y-10733463D01*
X6378719Y-10708338D01*
X6362638Y-10681508D01*
X6349263Y-10653230D01*
X6338725Y-10623778D01*
X6331125Y-10593435D01*
X6326535Y-10562493D01*
X6325000Y-10531250D01*
X6325000Y-9893750D01*
X6326535Y-9862507D01*
X6331125Y-9831565D01*
X6338725Y-9801222D01*
X6349263Y-9771770D01*
X6362638Y-9743492D01*
X6378719Y-9716662D01*
X6397353Y-9691537D01*
X6418360Y-9668360D01*
X6441537Y-9647353D01*
X6466662Y-9628719D01*
X6493492Y-9612638D01*
X6521770Y-9599263D01*
X6551222Y-9588725D01*
X6581565Y-9581125D01*
X6612507Y-9576535D01*
X6643750Y-9575000D01*
X7356250Y-9575000D01*
X7387493Y-9576535D01*
X7387493Y-9576535D01*
G37*
D15*
X7000000Y-10212500D03*
G04 #@! TD*
D14*
G04 #@! TO.C,C2*
G36*
X-3112507Y10560965D02*
X-3081565Y10556375D01*
X-3051222Y10548775D01*
X-3021770Y10538237D01*
X-2993492Y10524862D01*
X-2966662Y10508781D01*
X-2941537Y10490147D01*
X-2918360Y10469140D01*
X-2897353Y10445963D01*
X-2878719Y10420838D01*
X-2862638Y10394008D01*
X-2849263Y10365730D01*
X-2838725Y10336278D01*
X-2831125Y10305935D01*
X-2826535Y10274993D01*
X-2825000Y10243750D01*
X-2825000Y9606250D01*
X-2826535Y9575007D01*
X-2831125Y9544065D01*
X-2838725Y9513722D01*
X-2849263Y9484270D01*
X-2862638Y9455992D01*
X-2878719Y9429162D01*
X-2897353Y9404037D01*
X-2918360Y9380860D01*
X-2941537Y9359853D01*
X-2966662Y9341219D01*
X-2993492Y9325138D01*
X-3021770Y9311763D01*
X-3051222Y9301225D01*
X-3081565Y9293625D01*
X-3112507Y9289035D01*
X-3143750Y9287500D01*
X-3856250Y9287500D01*
X-3887493Y9289035D01*
X-3918435Y9293625D01*
X-3948778Y9301225D01*
X-3978230Y9311763D01*
X-4006508Y9325138D01*
X-4033338Y9341219D01*
X-4058463Y9359853D01*
X-4081640Y9380860D01*
X-4102647Y9404037D01*
X-4121281Y9429162D01*
X-4137362Y9455992D01*
X-4150737Y9484270D01*
X-4161275Y9513722D01*
X-4168875Y9544065D01*
X-4173465Y9575007D01*
X-4175000Y9606250D01*
X-4175000Y10243750D01*
X-4173465Y10274993D01*
X-4168875Y10305935D01*
X-4161275Y10336278D01*
X-4150737Y10365730D01*
X-4137362Y10394008D01*
X-4121281Y10420838D01*
X-4102647Y10445963D01*
X-4081640Y10469140D01*
X-4058463Y10490147D01*
X-4033338Y10508781D01*
X-4006508Y10524862D01*
X-3978230Y10538237D01*
X-3948778Y10548775D01*
X-3918435Y10556375D01*
X-3887493Y10560965D01*
X-3856250Y10562500D01*
X-3143750Y10562500D01*
X-3112507Y10560965D01*
X-3112507Y10560965D01*
G37*
D15*
X-3500000Y9925000D03*
D14*
G36*
X-3112507Y12135965D02*
X-3081565Y12131375D01*
X-3051222Y12123775D01*
X-3021770Y12113237D01*
X-2993492Y12099862D01*
X-2966662Y12083781D01*
X-2941537Y12065147D01*
X-2918360Y12044140D01*
X-2897353Y12020963D01*
X-2878719Y11995838D01*
X-2862638Y11969008D01*
X-2849263Y11940730D01*
X-2838725Y11911278D01*
X-2831125Y11880935D01*
X-2826535Y11849993D01*
X-2825000Y11818750D01*
X-2825000Y11181250D01*
X-2826535Y11150007D01*
X-2831125Y11119065D01*
X-2838725Y11088722D01*
X-2849263Y11059270D01*
X-2862638Y11030992D01*
X-2878719Y11004162D01*
X-2897353Y10979037D01*
X-2918360Y10955860D01*
X-2941537Y10934853D01*
X-2966662Y10916219D01*
X-2993492Y10900138D01*
X-3021770Y10886763D01*
X-3051222Y10876225D01*
X-3081565Y10868625D01*
X-3112507Y10864035D01*
X-3143750Y10862500D01*
X-3856250Y10862500D01*
X-3887493Y10864035D01*
X-3918435Y10868625D01*
X-3948778Y10876225D01*
X-3978230Y10886763D01*
X-4006508Y10900138D01*
X-4033338Y10916219D01*
X-4058463Y10934853D01*
X-4081640Y10955860D01*
X-4102647Y10979037D01*
X-4121281Y11004162D01*
X-4137362Y11030992D01*
X-4150737Y11059270D01*
X-4161275Y11088722D01*
X-4168875Y11119065D01*
X-4173465Y11150007D01*
X-4175000Y11181250D01*
X-4175000Y11818750D01*
X-4173465Y11849993D01*
X-4168875Y11880935D01*
X-4161275Y11911278D01*
X-4150737Y11940730D01*
X-4137362Y11969008D01*
X-4121281Y11995838D01*
X-4102647Y12020963D01*
X-4081640Y12044140D01*
X-4058463Y12065147D01*
X-4033338Y12083781D01*
X-4006508Y12099862D01*
X-3978230Y12113237D01*
X-3948778Y12123775D01*
X-3918435Y12131375D01*
X-3887493Y12135965D01*
X-3856250Y12137500D01*
X-3143750Y12137500D01*
X-3112507Y12135965D01*
X-3112507Y12135965D01*
G37*
D15*
X-3500000Y11500000D03*
G04 #@! TD*
D14*
G04 #@! TO.C,C3*
G36*
X11887493Y10560965D02*
X11918435Y10556375D01*
X11948778Y10548775D01*
X11978230Y10538237D01*
X12006508Y10524862D01*
X12033338Y10508781D01*
X12058463Y10490147D01*
X12081640Y10469140D01*
X12102647Y10445963D01*
X12121281Y10420838D01*
X12137362Y10394008D01*
X12150737Y10365730D01*
X12161275Y10336278D01*
X12168875Y10305935D01*
X12173465Y10274993D01*
X12175000Y10243750D01*
X12175000Y9606250D01*
X12173465Y9575007D01*
X12168875Y9544065D01*
X12161275Y9513722D01*
X12150737Y9484270D01*
X12137362Y9455992D01*
X12121281Y9429162D01*
X12102647Y9404037D01*
X12081640Y9380860D01*
X12058463Y9359853D01*
X12033338Y9341219D01*
X12006508Y9325138D01*
X11978230Y9311763D01*
X11948778Y9301225D01*
X11918435Y9293625D01*
X11887493Y9289035D01*
X11856250Y9287500D01*
X11143750Y9287500D01*
X11112507Y9289035D01*
X11081565Y9293625D01*
X11051222Y9301225D01*
X11021770Y9311763D01*
X10993492Y9325138D01*
X10966662Y9341219D01*
X10941537Y9359853D01*
X10918360Y9380860D01*
X10897353Y9404037D01*
X10878719Y9429162D01*
X10862638Y9455992D01*
X10849263Y9484270D01*
X10838725Y9513722D01*
X10831125Y9544065D01*
X10826535Y9575007D01*
X10825000Y9606250D01*
X10825000Y10243750D01*
X10826535Y10274993D01*
X10831125Y10305935D01*
X10838725Y10336278D01*
X10849263Y10365730D01*
X10862638Y10394008D01*
X10878719Y10420838D01*
X10897353Y10445963D01*
X10918360Y10469140D01*
X10941537Y10490147D01*
X10966662Y10508781D01*
X10993492Y10524862D01*
X11021770Y10538237D01*
X11051222Y10548775D01*
X11081565Y10556375D01*
X11112507Y10560965D01*
X11143750Y10562500D01*
X11856250Y10562500D01*
X11887493Y10560965D01*
X11887493Y10560965D01*
G37*
D15*
X11500000Y9925000D03*
D14*
G36*
X11887493Y12135965D02*
X11918435Y12131375D01*
X11948778Y12123775D01*
X11978230Y12113237D01*
X12006508Y12099862D01*
X12033338Y12083781D01*
X12058463Y12065147D01*
X12081640Y12044140D01*
X12102647Y12020963D01*
X12121281Y11995838D01*
X12137362Y11969008D01*
X12150737Y11940730D01*
X12161275Y11911278D01*
X12168875Y11880935D01*
X12173465Y11849993D01*
X12175000Y11818750D01*
X12175000Y11181250D01*
X12173465Y11150007D01*
X12168875Y11119065D01*
X12161275Y11088722D01*
X12150737Y11059270D01*
X12137362Y11030992D01*
X12121281Y11004162D01*
X12102647Y10979037D01*
X12081640Y10955860D01*
X12058463Y10934853D01*
X12033338Y10916219D01*
X12006508Y10900138D01*
X11978230Y10886763D01*
X11948778Y10876225D01*
X11918435Y10868625D01*
X11887493Y10864035D01*
X11856250Y10862500D01*
X11143750Y10862500D01*
X11112507Y10864035D01*
X11081565Y10868625D01*
X11051222Y10876225D01*
X11021770Y10886763D01*
X10993492Y10900138D01*
X10966662Y10916219D01*
X10941537Y10934853D01*
X10918360Y10955860D01*
X10897353Y10979037D01*
X10878719Y11004162D01*
X10862638Y11030992D01*
X10849263Y11059270D01*
X10838725Y11088722D01*
X10831125Y11119065D01*
X10826535Y11150007D01*
X10825000Y11181250D01*
X10825000Y11818750D01*
X10826535Y11849993D01*
X10831125Y11880935D01*
X10838725Y11911278D01*
X10849263Y11940730D01*
X10862638Y11969008D01*
X10878719Y11995838D01*
X10897353Y12020963D01*
X10918360Y12044140D01*
X10941537Y12065147D01*
X10966662Y12083781D01*
X10993492Y12099862D01*
X11021770Y12113237D01*
X11051222Y12123775D01*
X11081565Y12131375D01*
X11112507Y12135965D01*
X11143750Y12137500D01*
X11856250Y12137500D01*
X11887493Y12135965D01*
X11887493Y12135965D01*
G37*
D15*
X11500000Y11500000D03*
G04 #@! TD*
D14*
G04 #@! TO.C,R1*
G36*
X1349993Y14173465D02*
X1380935Y14168875D01*
X1411278Y14161275D01*
X1440730Y14150737D01*
X1469008Y14137362D01*
X1495838Y14121281D01*
X1520963Y14102647D01*
X1544140Y14081640D01*
X1565147Y14058463D01*
X1583781Y14033338D01*
X1599862Y14006508D01*
X1613237Y13978230D01*
X1623775Y13948778D01*
X1631375Y13918435D01*
X1635965Y13887493D01*
X1637500Y13856250D01*
X1637500Y13143750D01*
X1635965Y13112507D01*
X1631375Y13081565D01*
X1623775Y13051222D01*
X1613237Y13021770D01*
X1599862Y12993492D01*
X1583781Y12966662D01*
X1565147Y12941537D01*
X1544140Y12918360D01*
X1520963Y12897353D01*
X1495838Y12878719D01*
X1469008Y12862638D01*
X1440730Y12849263D01*
X1411278Y12838725D01*
X1380935Y12831125D01*
X1349993Y12826535D01*
X1318750Y12825000D01*
X681250Y12825000D01*
X650007Y12826535D01*
X619065Y12831125D01*
X588722Y12838725D01*
X559270Y12849263D01*
X530992Y12862638D01*
X504162Y12878719D01*
X479037Y12897353D01*
X455860Y12918360D01*
X434853Y12941537D01*
X416219Y12966662D01*
X400138Y12993492D01*
X386763Y13021770D01*
X376225Y13051222D01*
X368625Y13081565D01*
X364035Y13112507D01*
X362500Y13143750D01*
X362500Y13856250D01*
X364035Y13887493D01*
X368625Y13918435D01*
X376225Y13948778D01*
X386763Y13978230D01*
X400138Y14006508D01*
X416219Y14033338D01*
X434853Y14058463D01*
X455860Y14081640D01*
X479037Y14102647D01*
X504162Y14121281D01*
X530992Y14137362D01*
X559270Y14150737D01*
X588722Y14161275D01*
X619065Y14168875D01*
X650007Y14173465D01*
X681250Y14175000D01*
X1318750Y14175000D01*
X1349993Y14173465D01*
X1349993Y14173465D01*
G37*
D15*
X1000000Y13500000D03*
D14*
G36*
X-225007Y14173465D02*
X-194065Y14168875D01*
X-163722Y14161275D01*
X-134270Y14150737D01*
X-105992Y14137362D01*
X-79162Y14121281D01*
X-54037Y14102647D01*
X-30860Y14081640D01*
X-9853Y14058463D01*
X8781Y14033338D01*
X24862Y14006508D01*
X38237Y13978230D01*
X48775Y13948778D01*
X56375Y13918435D01*
X60965Y13887493D01*
X62500Y13856250D01*
X62500Y13143750D01*
X60965Y13112507D01*
X56375Y13081565D01*
X48775Y13051222D01*
X38237Y13021770D01*
X24862Y12993492D01*
X8781Y12966662D01*
X-9853Y12941537D01*
X-30860Y12918360D01*
X-54037Y12897353D01*
X-79162Y12878719D01*
X-105992Y12862638D01*
X-134270Y12849263D01*
X-163722Y12838725D01*
X-194065Y12831125D01*
X-225007Y12826535D01*
X-256250Y12825000D01*
X-893750Y12825000D01*
X-924993Y12826535D01*
X-955935Y12831125D01*
X-986278Y12838725D01*
X-1015730Y12849263D01*
X-1044008Y12862638D01*
X-1070838Y12878719D01*
X-1095963Y12897353D01*
X-1119140Y12918360D01*
X-1140147Y12941537D01*
X-1158781Y12966662D01*
X-1174862Y12993492D01*
X-1188237Y13021770D01*
X-1198775Y13051222D01*
X-1206375Y13081565D01*
X-1210965Y13112507D01*
X-1212500Y13143750D01*
X-1212500Y13856250D01*
X-1210965Y13887493D01*
X-1206375Y13918435D01*
X-1198775Y13948778D01*
X-1188237Y13978230D01*
X-1174862Y14006508D01*
X-1158781Y14033338D01*
X-1140147Y14058463D01*
X-1119140Y14081640D01*
X-1095963Y14102647D01*
X-1070838Y14121281D01*
X-1044008Y14137362D01*
X-1015730Y14150737D01*
X-986278Y14161275D01*
X-955935Y14168875D01*
X-924993Y14173465D01*
X-893750Y14175000D01*
X-256250Y14175000D01*
X-225007Y14173465D01*
X-225007Y14173465D01*
G37*
D15*
X-575000Y13500000D03*
G04 #@! TD*
D14*
G04 #@! TO.C,R2*
G36*
X-225007Y12173465D02*
X-194065Y12168875D01*
X-163722Y12161275D01*
X-134270Y12150737D01*
X-105992Y12137362D01*
X-79162Y12121281D01*
X-54037Y12102647D01*
X-30860Y12081640D01*
X-9853Y12058463D01*
X8781Y12033338D01*
X24862Y12006508D01*
X38237Y11978230D01*
X48775Y11948778D01*
X56375Y11918435D01*
X60965Y11887493D01*
X62500Y11856250D01*
X62500Y11143750D01*
X60965Y11112507D01*
X56375Y11081565D01*
X48775Y11051222D01*
X38237Y11021770D01*
X24862Y10993492D01*
X8781Y10966662D01*
X-9853Y10941537D01*
X-30860Y10918360D01*
X-54037Y10897353D01*
X-79162Y10878719D01*
X-105992Y10862638D01*
X-134270Y10849263D01*
X-163722Y10838725D01*
X-194065Y10831125D01*
X-225007Y10826535D01*
X-256250Y10825000D01*
X-893750Y10825000D01*
X-924993Y10826535D01*
X-955935Y10831125D01*
X-986278Y10838725D01*
X-1015730Y10849263D01*
X-1044008Y10862638D01*
X-1070838Y10878719D01*
X-1095963Y10897353D01*
X-1119140Y10918360D01*
X-1140147Y10941537D01*
X-1158781Y10966662D01*
X-1174862Y10993492D01*
X-1188237Y11021770D01*
X-1198775Y11051222D01*
X-1206375Y11081565D01*
X-1210965Y11112507D01*
X-1212500Y11143750D01*
X-1212500Y11856250D01*
X-1210965Y11887493D01*
X-1206375Y11918435D01*
X-1198775Y11948778D01*
X-1188237Y11978230D01*
X-1174862Y12006508D01*
X-1158781Y12033338D01*
X-1140147Y12058463D01*
X-1119140Y12081640D01*
X-1095963Y12102647D01*
X-1070838Y12121281D01*
X-1044008Y12137362D01*
X-1015730Y12150737D01*
X-986278Y12161275D01*
X-955935Y12168875D01*
X-924993Y12173465D01*
X-893750Y12175000D01*
X-256250Y12175000D01*
X-225007Y12173465D01*
X-225007Y12173465D01*
G37*
D15*
X-575000Y11500000D03*
D14*
G36*
X1349993Y12173465D02*
X1380935Y12168875D01*
X1411278Y12161275D01*
X1440730Y12150737D01*
X1469008Y12137362D01*
X1495838Y12121281D01*
X1520963Y12102647D01*
X1544140Y12081640D01*
X1565147Y12058463D01*
X1583781Y12033338D01*
X1599862Y12006508D01*
X1613237Y11978230D01*
X1623775Y11948778D01*
X1631375Y11918435D01*
X1635965Y11887493D01*
X1637500Y11856250D01*
X1637500Y11143750D01*
X1635965Y11112507D01*
X1631375Y11081565D01*
X1623775Y11051222D01*
X1613237Y11021770D01*
X1599862Y10993492D01*
X1583781Y10966662D01*
X1565147Y10941537D01*
X1544140Y10918360D01*
X1520963Y10897353D01*
X1495838Y10878719D01*
X1469008Y10862638D01*
X1440730Y10849263D01*
X1411278Y10838725D01*
X1380935Y10831125D01*
X1349993Y10826535D01*
X1318750Y10825000D01*
X681250Y10825000D01*
X650007Y10826535D01*
X619065Y10831125D01*
X588722Y10838725D01*
X559270Y10849263D01*
X530992Y10862638D01*
X504162Y10878719D01*
X479037Y10897353D01*
X455860Y10918360D01*
X434853Y10941537D01*
X416219Y10966662D01*
X400138Y10993492D01*
X386763Y11021770D01*
X376225Y11051222D01*
X368625Y11081565D01*
X364035Y11112507D01*
X362500Y11143750D01*
X362500Y11856250D01*
X364035Y11887493D01*
X368625Y11918435D01*
X376225Y11948778D01*
X386763Y11978230D01*
X400138Y12006508D01*
X416219Y12033338D01*
X434853Y12058463D01*
X455860Y12081640D01*
X479037Y12102647D01*
X504162Y12121281D01*
X530992Y12137362D01*
X559270Y12150737D01*
X588722Y12161275D01*
X619065Y12168875D01*
X650007Y12173465D01*
X681250Y12175000D01*
X1318750Y12175000D01*
X1349993Y12173465D01*
X1349993Y12173465D01*
G37*
D15*
X1000000Y11500000D03*
G04 #@! TD*
D16*
G04 #@! TO.C,U1*
X4862500Y-1420000D03*
X4862500Y-2690000D03*
X4862500Y-3960000D03*
X4862500Y-5230000D03*
X4862500Y-6500000D03*
X4862500Y-7770000D03*
X4862500Y-9040000D03*
X4862500Y-10310000D03*
X4862500Y-11580000D03*
X-3862500Y-1420000D03*
X-3862500Y-2690000D03*
X-3862500Y-3960000D03*
X-3862500Y-5230000D03*
X-3862500Y-6500000D03*
X-3862500Y-7770000D03*
X-3862500Y-9040000D03*
X-3862500Y-10310000D03*
X-3862500Y-11580000D03*
G04 #@! TD*
D14*
G04 #@! TO.C,U2*
G36*
X-9557847Y13149157D02*
X-9540859Y13146637D01*
X-9524200Y13142465D01*
X-9508030Y13136679D01*
X-9492506Y13129336D01*
X-9477775Y13120507D01*
X-9463981Y13110277D01*
X-9451256Y13098744D01*
X-9439723Y13086019D01*
X-9429493Y13072225D01*
X-9420664Y13057494D01*
X-9413321Y13041970D01*
X-9407535Y13025800D01*
X-9403363Y13009141D01*
X-9400843Y12992153D01*
X-9400000Y12975000D01*
X-9400000Y12625000D01*
X-9400843Y12607847D01*
X-9403363Y12590859D01*
X-9407535Y12574200D01*
X-9413321Y12558030D01*
X-9420664Y12542506D01*
X-9429493Y12527775D01*
X-9439723Y12513981D01*
X-9451256Y12501256D01*
X-9463981Y12489723D01*
X-9477775Y12479493D01*
X-9492506Y12470664D01*
X-9508030Y12463321D01*
X-9524200Y12457535D01*
X-9540859Y12453363D01*
X-9557847Y12450843D01*
X-9575000Y12450000D01*
X-10375000Y12450000D01*
X-10392153Y12450843D01*
X-10409141Y12453363D01*
X-10425800Y12457535D01*
X-10441970Y12463321D01*
X-10457494Y12470664D01*
X-10472225Y12479493D01*
X-10486019Y12489723D01*
X-10498744Y12501256D01*
X-10510277Y12513981D01*
X-10520507Y12527775D01*
X-10529336Y12542506D01*
X-10536679Y12558030D01*
X-10542465Y12574200D01*
X-10546637Y12590859D01*
X-10549157Y12607847D01*
X-10550000Y12625000D01*
X-10550000Y12975000D01*
X-10549157Y12992153D01*
X-10546637Y13009141D01*
X-10542465Y13025800D01*
X-10536679Y13041970D01*
X-10529336Y13057494D01*
X-10520507Y13072225D01*
X-10510277Y13086019D01*
X-10498744Y13098744D01*
X-10486019Y13110277D01*
X-10472225Y13120507D01*
X-10457494Y13129336D01*
X-10441970Y13136679D01*
X-10425800Y13142465D01*
X-10409141Y13146637D01*
X-10392153Y13149157D01*
X-10375000Y13150000D01*
X-9575000Y13150000D01*
X-9557847Y13149157D01*
X-9557847Y13149157D01*
G37*
D17*
X-9975000Y12800000D03*
D14*
G36*
X-9557847Y12499157D02*
X-9540859Y12496637D01*
X-9524200Y12492465D01*
X-9508030Y12486679D01*
X-9492506Y12479336D01*
X-9477775Y12470507D01*
X-9463981Y12460277D01*
X-9451256Y12448744D01*
X-9439723Y12436019D01*
X-9429493Y12422225D01*
X-9420664Y12407494D01*
X-9413321Y12391970D01*
X-9407535Y12375800D01*
X-9403363Y12359141D01*
X-9400843Y12342153D01*
X-9400000Y12325000D01*
X-9400000Y11975000D01*
X-9400843Y11957847D01*
X-9403363Y11940859D01*
X-9407535Y11924200D01*
X-9413321Y11908030D01*
X-9420664Y11892506D01*
X-9429493Y11877775D01*
X-9439723Y11863981D01*
X-9451256Y11851256D01*
X-9463981Y11839723D01*
X-9477775Y11829493D01*
X-9492506Y11820664D01*
X-9508030Y11813321D01*
X-9524200Y11807535D01*
X-9540859Y11803363D01*
X-9557847Y11800843D01*
X-9575000Y11800000D01*
X-10375000Y11800000D01*
X-10392153Y11800843D01*
X-10409141Y11803363D01*
X-10425800Y11807535D01*
X-10441970Y11813321D01*
X-10457494Y11820664D01*
X-10472225Y11829493D01*
X-10486019Y11839723D01*
X-10498744Y11851256D01*
X-10510277Y11863981D01*
X-10520507Y11877775D01*
X-10529336Y11892506D01*
X-10536679Y11908030D01*
X-10542465Y11924200D01*
X-10546637Y11940859D01*
X-10549157Y11957847D01*
X-10550000Y11975000D01*
X-10550000Y12325000D01*
X-10549157Y12342153D01*
X-10546637Y12359141D01*
X-10542465Y12375800D01*
X-10536679Y12391970D01*
X-10529336Y12407494D01*
X-10520507Y12422225D01*
X-10510277Y12436019D01*
X-10498744Y12448744D01*
X-10486019Y12460277D01*
X-10472225Y12470507D01*
X-10457494Y12479336D01*
X-10441970Y12486679D01*
X-10425800Y12492465D01*
X-10409141Y12496637D01*
X-10392153Y12499157D01*
X-10375000Y12500000D01*
X-9575000Y12500000D01*
X-9557847Y12499157D01*
X-9557847Y12499157D01*
G37*
D17*
X-9975000Y12150000D03*
D14*
G36*
X-9557847Y11849157D02*
X-9540859Y11846637D01*
X-9524200Y11842465D01*
X-9508030Y11836679D01*
X-9492506Y11829336D01*
X-9477775Y11820507D01*
X-9463981Y11810277D01*
X-9451256Y11798744D01*
X-9439723Y11786019D01*
X-9429493Y11772225D01*
X-9420664Y11757494D01*
X-9413321Y11741970D01*
X-9407535Y11725800D01*
X-9403363Y11709141D01*
X-9400843Y11692153D01*
X-9400000Y11675000D01*
X-9400000Y11325000D01*
X-9400843Y11307847D01*
X-9403363Y11290859D01*
X-9407535Y11274200D01*
X-9413321Y11258030D01*
X-9420664Y11242506D01*
X-9429493Y11227775D01*
X-9439723Y11213981D01*
X-9451256Y11201256D01*
X-9463981Y11189723D01*
X-9477775Y11179493D01*
X-9492506Y11170664D01*
X-9508030Y11163321D01*
X-9524200Y11157535D01*
X-9540859Y11153363D01*
X-9557847Y11150843D01*
X-9575000Y11150000D01*
X-10375000Y11150000D01*
X-10392153Y11150843D01*
X-10409141Y11153363D01*
X-10425800Y11157535D01*
X-10441970Y11163321D01*
X-10457494Y11170664D01*
X-10472225Y11179493D01*
X-10486019Y11189723D01*
X-10498744Y11201256D01*
X-10510277Y11213981D01*
X-10520507Y11227775D01*
X-10529336Y11242506D01*
X-10536679Y11258030D01*
X-10542465Y11274200D01*
X-10546637Y11290859D01*
X-10549157Y11307847D01*
X-10550000Y11325000D01*
X-10550000Y11675000D01*
X-10549157Y11692153D01*
X-10546637Y11709141D01*
X-10542465Y11725800D01*
X-10536679Y11741970D01*
X-10529336Y11757494D01*
X-10520507Y11772225D01*
X-10510277Y11786019D01*
X-10498744Y11798744D01*
X-10486019Y11810277D01*
X-10472225Y11820507D01*
X-10457494Y11829336D01*
X-10441970Y11836679D01*
X-10425800Y11842465D01*
X-10409141Y11846637D01*
X-10392153Y11849157D01*
X-10375000Y11850000D01*
X-9575000Y11850000D01*
X-9557847Y11849157D01*
X-9557847Y11849157D01*
G37*
D17*
X-9975000Y11500000D03*
D14*
G36*
X-9557847Y11199157D02*
X-9540859Y11196637D01*
X-9524200Y11192465D01*
X-9508030Y11186679D01*
X-9492506Y11179336D01*
X-9477775Y11170507D01*
X-9463981Y11160277D01*
X-9451256Y11148744D01*
X-9439723Y11136019D01*
X-9429493Y11122225D01*
X-9420664Y11107494D01*
X-9413321Y11091970D01*
X-9407535Y11075800D01*
X-9403363Y11059141D01*
X-9400843Y11042153D01*
X-9400000Y11025000D01*
X-9400000Y10675000D01*
X-9400843Y10657847D01*
X-9403363Y10640859D01*
X-9407535Y10624200D01*
X-9413321Y10608030D01*
X-9420664Y10592506D01*
X-9429493Y10577775D01*
X-9439723Y10563981D01*
X-9451256Y10551256D01*
X-9463981Y10539723D01*
X-9477775Y10529493D01*
X-9492506Y10520664D01*
X-9508030Y10513321D01*
X-9524200Y10507535D01*
X-9540859Y10503363D01*
X-9557847Y10500843D01*
X-9575000Y10500000D01*
X-10375000Y10500000D01*
X-10392153Y10500843D01*
X-10409141Y10503363D01*
X-10425800Y10507535D01*
X-10441970Y10513321D01*
X-10457494Y10520664D01*
X-10472225Y10529493D01*
X-10486019Y10539723D01*
X-10498744Y10551256D01*
X-10510277Y10563981D01*
X-10520507Y10577775D01*
X-10529336Y10592506D01*
X-10536679Y10608030D01*
X-10542465Y10624200D01*
X-10546637Y10640859D01*
X-10549157Y10657847D01*
X-10550000Y10675000D01*
X-10550000Y11025000D01*
X-10549157Y11042153D01*
X-10546637Y11059141D01*
X-10542465Y11075800D01*
X-10536679Y11091970D01*
X-10529336Y11107494D01*
X-10520507Y11122225D01*
X-10510277Y11136019D01*
X-10498744Y11148744D01*
X-10486019Y11160277D01*
X-10472225Y11170507D01*
X-10457494Y11179336D01*
X-10441970Y11186679D01*
X-10425800Y11192465D01*
X-10409141Y11196637D01*
X-10392153Y11199157D01*
X-10375000Y11200000D01*
X-9575000Y11200000D01*
X-9557847Y11199157D01*
X-9557847Y11199157D01*
G37*
D17*
X-9975000Y10850000D03*
D14*
G36*
X-9557847Y10549157D02*
X-9540859Y10546637D01*
X-9524200Y10542465D01*
X-9508030Y10536679D01*
X-9492506Y10529336D01*
X-9477775Y10520507D01*
X-9463981Y10510277D01*
X-9451256Y10498744D01*
X-9439723Y10486019D01*
X-9429493Y10472225D01*
X-9420664Y10457494D01*
X-9413321Y10441970D01*
X-9407535Y10425800D01*
X-9403363Y10409141D01*
X-9400843Y10392153D01*
X-9400000Y10375000D01*
X-9400000Y10025000D01*
X-9400843Y10007847D01*
X-9403363Y9990859D01*
X-9407535Y9974200D01*
X-9413321Y9958030D01*
X-9420664Y9942506D01*
X-9429493Y9927775D01*
X-9439723Y9913981D01*
X-9451256Y9901256D01*
X-9463981Y9889723D01*
X-9477775Y9879493D01*
X-9492506Y9870664D01*
X-9508030Y9863321D01*
X-9524200Y9857535D01*
X-9540859Y9853363D01*
X-9557847Y9850843D01*
X-9575000Y9850000D01*
X-10375000Y9850000D01*
X-10392153Y9850843D01*
X-10409141Y9853363D01*
X-10425800Y9857535D01*
X-10441970Y9863321D01*
X-10457494Y9870664D01*
X-10472225Y9879493D01*
X-10486019Y9889723D01*
X-10498744Y9901256D01*
X-10510277Y9913981D01*
X-10520507Y9927775D01*
X-10529336Y9942506D01*
X-10536679Y9958030D01*
X-10542465Y9974200D01*
X-10546637Y9990859D01*
X-10549157Y10007847D01*
X-10550000Y10025000D01*
X-10550000Y10375000D01*
X-10549157Y10392153D01*
X-10546637Y10409141D01*
X-10542465Y10425800D01*
X-10536679Y10441970D01*
X-10529336Y10457494D01*
X-10520507Y10472225D01*
X-10510277Y10486019D01*
X-10498744Y10498744D01*
X-10486019Y10510277D01*
X-10472225Y10520507D01*
X-10457494Y10529336D01*
X-10441970Y10536679D01*
X-10425800Y10542465D01*
X-10409141Y10546637D01*
X-10392153Y10549157D01*
X-10375000Y10550000D01*
X-9575000Y10550000D01*
X-9557847Y10549157D01*
X-9557847Y10549157D01*
G37*
D17*
X-9975000Y10200000D03*
D14*
G36*
X-8607847Y9599157D02*
X-8590859Y9596637D01*
X-8574200Y9592465D01*
X-8558030Y9586679D01*
X-8542506Y9579336D01*
X-8527775Y9570507D01*
X-8513981Y9560277D01*
X-8501256Y9548744D01*
X-8489723Y9536019D01*
X-8479493Y9522225D01*
X-8470664Y9507494D01*
X-8463321Y9491970D01*
X-8457535Y9475800D01*
X-8453363Y9459141D01*
X-8450843Y9442153D01*
X-8450000Y9425000D01*
X-8450000Y8625000D01*
X-8450843Y8607847D01*
X-8453363Y8590859D01*
X-8457535Y8574200D01*
X-8463321Y8558030D01*
X-8470664Y8542506D01*
X-8479493Y8527775D01*
X-8489723Y8513981D01*
X-8501256Y8501256D01*
X-8513981Y8489723D01*
X-8527775Y8479493D01*
X-8542506Y8470664D01*
X-8558030Y8463321D01*
X-8574200Y8457535D01*
X-8590859Y8453363D01*
X-8607847Y8450843D01*
X-8625000Y8450000D01*
X-8975000Y8450000D01*
X-8992153Y8450843D01*
X-9009141Y8453363D01*
X-9025800Y8457535D01*
X-9041970Y8463321D01*
X-9057494Y8470664D01*
X-9072225Y8479493D01*
X-9086019Y8489723D01*
X-9098744Y8501256D01*
X-9110277Y8513981D01*
X-9120507Y8527775D01*
X-9129336Y8542506D01*
X-9136679Y8558030D01*
X-9142465Y8574200D01*
X-9146637Y8590859D01*
X-9149157Y8607847D01*
X-9150000Y8625000D01*
X-9150000Y9425000D01*
X-9149157Y9442153D01*
X-9146637Y9459141D01*
X-9142465Y9475800D01*
X-9136679Y9491970D01*
X-9129336Y9507494D01*
X-9120507Y9522225D01*
X-9110277Y9536019D01*
X-9098744Y9548744D01*
X-9086019Y9560277D01*
X-9072225Y9570507D01*
X-9057494Y9579336D01*
X-9041970Y9586679D01*
X-9025800Y9592465D01*
X-9009141Y9596637D01*
X-8992153Y9599157D01*
X-8975000Y9600000D01*
X-8625000Y9600000D01*
X-8607847Y9599157D01*
X-8607847Y9599157D01*
G37*
D17*
X-8800000Y9025000D03*
D14*
G36*
X-7957847Y9599157D02*
X-7940859Y9596637D01*
X-7924200Y9592465D01*
X-7908030Y9586679D01*
X-7892506Y9579336D01*
X-7877775Y9570507D01*
X-7863981Y9560277D01*
X-7851256Y9548744D01*
X-7839723Y9536019D01*
X-7829493Y9522225D01*
X-7820664Y9507494D01*
X-7813321Y9491970D01*
X-7807535Y9475800D01*
X-7803363Y9459141D01*
X-7800843Y9442153D01*
X-7800000Y9425000D01*
X-7800000Y8625000D01*
X-7800843Y8607847D01*
X-7803363Y8590859D01*
X-7807535Y8574200D01*
X-7813321Y8558030D01*
X-7820664Y8542506D01*
X-7829493Y8527775D01*
X-7839723Y8513981D01*
X-7851256Y8501256D01*
X-7863981Y8489723D01*
X-7877775Y8479493D01*
X-7892506Y8470664D01*
X-7908030Y8463321D01*
X-7924200Y8457535D01*
X-7940859Y8453363D01*
X-7957847Y8450843D01*
X-7975000Y8450000D01*
X-8325000Y8450000D01*
X-8342153Y8450843D01*
X-8359141Y8453363D01*
X-8375800Y8457535D01*
X-8391970Y8463321D01*
X-8407494Y8470664D01*
X-8422225Y8479493D01*
X-8436019Y8489723D01*
X-8448744Y8501256D01*
X-8460277Y8513981D01*
X-8470507Y8527775D01*
X-8479336Y8542506D01*
X-8486679Y8558030D01*
X-8492465Y8574200D01*
X-8496637Y8590859D01*
X-8499157Y8607847D01*
X-8500000Y8625000D01*
X-8500000Y9425000D01*
X-8499157Y9442153D01*
X-8496637Y9459141D01*
X-8492465Y9475800D01*
X-8486679Y9491970D01*
X-8479336Y9507494D01*
X-8470507Y9522225D01*
X-8460277Y9536019D01*
X-8448744Y9548744D01*
X-8436019Y9560277D01*
X-8422225Y9570507D01*
X-8407494Y9579336D01*
X-8391970Y9586679D01*
X-8375800Y9592465D01*
X-8359141Y9596637D01*
X-8342153Y9599157D01*
X-8325000Y9600000D01*
X-7975000Y9600000D01*
X-7957847Y9599157D01*
X-7957847Y9599157D01*
G37*
D17*
X-8150000Y9025000D03*
D14*
G36*
X-7307847Y9599157D02*
X-7290859Y9596637D01*
X-7274200Y9592465D01*
X-7258030Y9586679D01*
X-7242506Y9579336D01*
X-7227775Y9570507D01*
X-7213981Y9560277D01*
X-7201256Y9548744D01*
X-7189723Y9536019D01*
X-7179493Y9522225D01*
X-7170664Y9507494D01*
X-7163321Y9491970D01*
X-7157535Y9475800D01*
X-7153363Y9459141D01*
X-7150843Y9442153D01*
X-7150000Y9425000D01*
X-7150000Y8625000D01*
X-7150843Y8607847D01*
X-7153363Y8590859D01*
X-7157535Y8574200D01*
X-7163321Y8558030D01*
X-7170664Y8542506D01*
X-7179493Y8527775D01*
X-7189723Y8513981D01*
X-7201256Y8501256D01*
X-7213981Y8489723D01*
X-7227775Y8479493D01*
X-7242506Y8470664D01*
X-7258030Y8463321D01*
X-7274200Y8457535D01*
X-7290859Y8453363D01*
X-7307847Y8450843D01*
X-7325000Y8450000D01*
X-7675000Y8450000D01*
X-7692153Y8450843D01*
X-7709141Y8453363D01*
X-7725800Y8457535D01*
X-7741970Y8463321D01*
X-7757494Y8470664D01*
X-7772225Y8479493D01*
X-7786019Y8489723D01*
X-7798744Y8501256D01*
X-7810277Y8513981D01*
X-7820507Y8527775D01*
X-7829336Y8542506D01*
X-7836679Y8558030D01*
X-7842465Y8574200D01*
X-7846637Y8590859D01*
X-7849157Y8607847D01*
X-7850000Y8625000D01*
X-7850000Y9425000D01*
X-7849157Y9442153D01*
X-7846637Y9459141D01*
X-7842465Y9475800D01*
X-7836679Y9491970D01*
X-7829336Y9507494D01*
X-7820507Y9522225D01*
X-7810277Y9536019D01*
X-7798744Y9548744D01*
X-7786019Y9560277D01*
X-7772225Y9570507D01*
X-7757494Y9579336D01*
X-7741970Y9586679D01*
X-7725800Y9592465D01*
X-7709141Y9596637D01*
X-7692153Y9599157D01*
X-7675000Y9600000D01*
X-7325000Y9600000D01*
X-7307847Y9599157D01*
X-7307847Y9599157D01*
G37*
D17*
X-7500000Y9025000D03*
D14*
G36*
X-6657847Y9599157D02*
X-6640859Y9596637D01*
X-6624200Y9592465D01*
X-6608030Y9586679D01*
X-6592506Y9579336D01*
X-6577775Y9570507D01*
X-6563981Y9560277D01*
X-6551256Y9548744D01*
X-6539723Y9536019D01*
X-6529493Y9522225D01*
X-6520664Y9507494D01*
X-6513321Y9491970D01*
X-6507535Y9475800D01*
X-6503363Y9459141D01*
X-6500843Y9442153D01*
X-6500000Y9425000D01*
X-6500000Y8625000D01*
X-6500843Y8607847D01*
X-6503363Y8590859D01*
X-6507535Y8574200D01*
X-6513321Y8558030D01*
X-6520664Y8542506D01*
X-6529493Y8527775D01*
X-6539723Y8513981D01*
X-6551256Y8501256D01*
X-6563981Y8489723D01*
X-6577775Y8479493D01*
X-6592506Y8470664D01*
X-6608030Y8463321D01*
X-6624200Y8457535D01*
X-6640859Y8453363D01*
X-6657847Y8450843D01*
X-6675000Y8450000D01*
X-7025000Y8450000D01*
X-7042153Y8450843D01*
X-7059141Y8453363D01*
X-7075800Y8457535D01*
X-7091970Y8463321D01*
X-7107494Y8470664D01*
X-7122225Y8479493D01*
X-7136019Y8489723D01*
X-7148744Y8501256D01*
X-7160277Y8513981D01*
X-7170507Y8527775D01*
X-7179336Y8542506D01*
X-7186679Y8558030D01*
X-7192465Y8574200D01*
X-7196637Y8590859D01*
X-7199157Y8607847D01*
X-7200000Y8625000D01*
X-7200000Y9425000D01*
X-7199157Y9442153D01*
X-7196637Y9459141D01*
X-7192465Y9475800D01*
X-7186679Y9491970D01*
X-7179336Y9507494D01*
X-7170507Y9522225D01*
X-7160277Y9536019D01*
X-7148744Y9548744D01*
X-7136019Y9560277D01*
X-7122225Y9570507D01*
X-7107494Y9579336D01*
X-7091970Y9586679D01*
X-7075800Y9592465D01*
X-7059141Y9596637D01*
X-7042153Y9599157D01*
X-7025000Y9600000D01*
X-6675000Y9600000D01*
X-6657847Y9599157D01*
X-6657847Y9599157D01*
G37*
D17*
X-6850000Y9025000D03*
D14*
G36*
X-6007847Y9599157D02*
X-5990859Y9596637D01*
X-5974200Y9592465D01*
X-5958030Y9586679D01*
X-5942506Y9579336D01*
X-5927775Y9570507D01*
X-5913981Y9560277D01*
X-5901256Y9548744D01*
X-5889723Y9536019D01*
X-5879493Y9522225D01*
X-5870664Y9507494D01*
X-5863321Y9491970D01*
X-5857535Y9475800D01*
X-5853363Y9459141D01*
X-5850843Y9442153D01*
X-5850000Y9425000D01*
X-5850000Y8625000D01*
X-5850843Y8607847D01*
X-5853363Y8590859D01*
X-5857535Y8574200D01*
X-5863321Y8558030D01*
X-5870664Y8542506D01*
X-5879493Y8527775D01*
X-5889723Y8513981D01*
X-5901256Y8501256D01*
X-5913981Y8489723D01*
X-5927775Y8479493D01*
X-5942506Y8470664D01*
X-5958030Y8463321D01*
X-5974200Y8457535D01*
X-5990859Y8453363D01*
X-6007847Y8450843D01*
X-6025000Y8450000D01*
X-6375000Y8450000D01*
X-6392153Y8450843D01*
X-6409141Y8453363D01*
X-6425800Y8457535D01*
X-6441970Y8463321D01*
X-6457494Y8470664D01*
X-6472225Y8479493D01*
X-6486019Y8489723D01*
X-6498744Y8501256D01*
X-6510277Y8513981D01*
X-6520507Y8527775D01*
X-6529336Y8542506D01*
X-6536679Y8558030D01*
X-6542465Y8574200D01*
X-6546637Y8590859D01*
X-6549157Y8607847D01*
X-6550000Y8625000D01*
X-6550000Y9425000D01*
X-6549157Y9442153D01*
X-6546637Y9459141D01*
X-6542465Y9475800D01*
X-6536679Y9491970D01*
X-6529336Y9507494D01*
X-6520507Y9522225D01*
X-6510277Y9536019D01*
X-6498744Y9548744D01*
X-6486019Y9560277D01*
X-6472225Y9570507D01*
X-6457494Y9579336D01*
X-6441970Y9586679D01*
X-6425800Y9592465D01*
X-6409141Y9596637D01*
X-6392153Y9599157D01*
X-6375000Y9600000D01*
X-6025000Y9600000D01*
X-6007847Y9599157D01*
X-6007847Y9599157D01*
G37*
D17*
X-6200000Y9025000D03*
D14*
G36*
X-4607847Y10549157D02*
X-4590859Y10546637D01*
X-4574200Y10542465D01*
X-4558030Y10536679D01*
X-4542506Y10529336D01*
X-4527775Y10520507D01*
X-4513981Y10510277D01*
X-4501256Y10498744D01*
X-4489723Y10486019D01*
X-4479493Y10472225D01*
X-4470664Y10457494D01*
X-4463321Y10441970D01*
X-4457535Y10425800D01*
X-4453363Y10409141D01*
X-4450843Y10392153D01*
X-4450000Y10375000D01*
X-4450000Y10025000D01*
X-4450843Y10007847D01*
X-4453363Y9990859D01*
X-4457535Y9974200D01*
X-4463321Y9958030D01*
X-4470664Y9942506D01*
X-4479493Y9927775D01*
X-4489723Y9913981D01*
X-4501256Y9901256D01*
X-4513981Y9889723D01*
X-4527775Y9879493D01*
X-4542506Y9870664D01*
X-4558030Y9863321D01*
X-4574200Y9857535D01*
X-4590859Y9853363D01*
X-4607847Y9850843D01*
X-4625000Y9850000D01*
X-5425000Y9850000D01*
X-5442153Y9850843D01*
X-5459141Y9853363D01*
X-5475800Y9857535D01*
X-5491970Y9863321D01*
X-5507494Y9870664D01*
X-5522225Y9879493D01*
X-5536019Y9889723D01*
X-5548744Y9901256D01*
X-5560277Y9913981D01*
X-5570507Y9927775D01*
X-5579336Y9942506D01*
X-5586679Y9958030D01*
X-5592465Y9974200D01*
X-5596637Y9990859D01*
X-5599157Y10007847D01*
X-5600000Y10025000D01*
X-5600000Y10375000D01*
X-5599157Y10392153D01*
X-5596637Y10409141D01*
X-5592465Y10425800D01*
X-5586679Y10441970D01*
X-5579336Y10457494D01*
X-5570507Y10472225D01*
X-5560277Y10486019D01*
X-5548744Y10498744D01*
X-5536019Y10510277D01*
X-5522225Y10520507D01*
X-5507494Y10529336D01*
X-5491970Y10536679D01*
X-5475800Y10542465D01*
X-5459141Y10546637D01*
X-5442153Y10549157D01*
X-5425000Y10550000D01*
X-4625000Y10550000D01*
X-4607847Y10549157D01*
X-4607847Y10549157D01*
G37*
D17*
X-5025000Y10200000D03*
D14*
G36*
X-4607847Y11199157D02*
X-4590859Y11196637D01*
X-4574200Y11192465D01*
X-4558030Y11186679D01*
X-4542506Y11179336D01*
X-4527775Y11170507D01*
X-4513981Y11160277D01*
X-4501256Y11148744D01*
X-4489723Y11136019D01*
X-4479493Y11122225D01*
X-4470664Y11107494D01*
X-4463321Y11091970D01*
X-4457535Y11075800D01*
X-4453363Y11059141D01*
X-4450843Y11042153D01*
X-4450000Y11025000D01*
X-4450000Y10675000D01*
X-4450843Y10657847D01*
X-4453363Y10640859D01*
X-4457535Y10624200D01*
X-4463321Y10608030D01*
X-4470664Y10592506D01*
X-4479493Y10577775D01*
X-4489723Y10563981D01*
X-4501256Y10551256D01*
X-4513981Y10539723D01*
X-4527775Y10529493D01*
X-4542506Y10520664D01*
X-4558030Y10513321D01*
X-4574200Y10507535D01*
X-4590859Y10503363D01*
X-4607847Y10500843D01*
X-4625000Y10500000D01*
X-5425000Y10500000D01*
X-5442153Y10500843D01*
X-5459141Y10503363D01*
X-5475800Y10507535D01*
X-5491970Y10513321D01*
X-5507494Y10520664D01*
X-5522225Y10529493D01*
X-5536019Y10539723D01*
X-5548744Y10551256D01*
X-5560277Y10563981D01*
X-5570507Y10577775D01*
X-5579336Y10592506D01*
X-5586679Y10608030D01*
X-5592465Y10624200D01*
X-5596637Y10640859D01*
X-5599157Y10657847D01*
X-5600000Y10675000D01*
X-5600000Y11025000D01*
X-5599157Y11042153D01*
X-5596637Y11059141D01*
X-5592465Y11075800D01*
X-5586679Y11091970D01*
X-5579336Y11107494D01*
X-5570507Y11122225D01*
X-5560277Y11136019D01*
X-5548744Y11148744D01*
X-5536019Y11160277D01*
X-5522225Y11170507D01*
X-5507494Y11179336D01*
X-5491970Y11186679D01*
X-5475800Y11192465D01*
X-5459141Y11196637D01*
X-5442153Y11199157D01*
X-5425000Y11200000D01*
X-4625000Y11200000D01*
X-4607847Y11199157D01*
X-4607847Y11199157D01*
G37*
D17*
X-5025000Y10850000D03*
D14*
G36*
X-4607847Y11849157D02*
X-4590859Y11846637D01*
X-4574200Y11842465D01*
X-4558030Y11836679D01*
X-4542506Y11829336D01*
X-4527775Y11820507D01*
X-4513981Y11810277D01*
X-4501256Y11798744D01*
X-4489723Y11786019D01*
X-4479493Y11772225D01*
X-4470664Y11757494D01*
X-4463321Y11741970D01*
X-4457535Y11725800D01*
X-4453363Y11709141D01*
X-4450843Y11692153D01*
X-4450000Y11675000D01*
X-4450000Y11325000D01*
X-4450843Y11307847D01*
X-4453363Y11290859D01*
X-4457535Y11274200D01*
X-4463321Y11258030D01*
X-4470664Y11242506D01*
X-4479493Y11227775D01*
X-4489723Y11213981D01*
X-4501256Y11201256D01*
X-4513981Y11189723D01*
X-4527775Y11179493D01*
X-4542506Y11170664D01*
X-4558030Y11163321D01*
X-4574200Y11157535D01*
X-4590859Y11153363D01*
X-4607847Y11150843D01*
X-4625000Y11150000D01*
X-5425000Y11150000D01*
X-5442153Y11150843D01*
X-5459141Y11153363D01*
X-5475800Y11157535D01*
X-5491970Y11163321D01*
X-5507494Y11170664D01*
X-5522225Y11179493D01*
X-5536019Y11189723D01*
X-5548744Y11201256D01*
X-5560277Y11213981D01*
X-5570507Y11227775D01*
X-5579336Y11242506D01*
X-5586679Y11258030D01*
X-5592465Y11274200D01*
X-5596637Y11290859D01*
X-5599157Y11307847D01*
X-5600000Y11325000D01*
X-5600000Y11675000D01*
X-5599157Y11692153D01*
X-5596637Y11709141D01*
X-5592465Y11725800D01*
X-5586679Y11741970D01*
X-5579336Y11757494D01*
X-5570507Y11772225D01*
X-5560277Y11786019D01*
X-5548744Y11798744D01*
X-5536019Y11810277D01*
X-5522225Y11820507D01*
X-5507494Y11829336D01*
X-5491970Y11836679D01*
X-5475800Y11842465D01*
X-5459141Y11846637D01*
X-5442153Y11849157D01*
X-5425000Y11850000D01*
X-4625000Y11850000D01*
X-4607847Y11849157D01*
X-4607847Y11849157D01*
G37*
D17*
X-5025000Y11500000D03*
D14*
G36*
X-4607847Y12499157D02*
X-4590859Y12496637D01*
X-4574200Y12492465D01*
X-4558030Y12486679D01*
X-4542506Y12479336D01*
X-4527775Y12470507D01*
X-4513981Y12460277D01*
X-4501256Y12448744D01*
X-4489723Y12436019D01*
X-4479493Y12422225D01*
X-4470664Y12407494D01*
X-4463321Y12391970D01*
X-4457535Y12375800D01*
X-4453363Y12359141D01*
X-4450843Y12342153D01*
X-4450000Y12325000D01*
X-4450000Y11975000D01*
X-4450843Y11957847D01*
X-4453363Y11940859D01*
X-4457535Y11924200D01*
X-4463321Y11908030D01*
X-4470664Y11892506D01*
X-4479493Y11877775D01*
X-4489723Y11863981D01*
X-4501256Y11851256D01*
X-4513981Y11839723D01*
X-4527775Y11829493D01*
X-4542506Y11820664D01*
X-4558030Y11813321D01*
X-4574200Y11807535D01*
X-4590859Y11803363D01*
X-4607847Y11800843D01*
X-4625000Y11800000D01*
X-5425000Y11800000D01*
X-5442153Y11800843D01*
X-5459141Y11803363D01*
X-5475800Y11807535D01*
X-5491970Y11813321D01*
X-5507494Y11820664D01*
X-5522225Y11829493D01*
X-5536019Y11839723D01*
X-5548744Y11851256D01*
X-5560277Y11863981D01*
X-5570507Y11877775D01*
X-5579336Y11892506D01*
X-5586679Y11908030D01*
X-5592465Y11924200D01*
X-5596637Y11940859D01*
X-5599157Y11957847D01*
X-5600000Y11975000D01*
X-5600000Y12325000D01*
X-5599157Y12342153D01*
X-5596637Y12359141D01*
X-5592465Y12375800D01*
X-5586679Y12391970D01*
X-5579336Y12407494D01*
X-5570507Y12422225D01*
X-5560277Y12436019D01*
X-5548744Y12448744D01*
X-5536019Y12460277D01*
X-5522225Y12470507D01*
X-5507494Y12479336D01*
X-5491970Y12486679D01*
X-5475800Y12492465D01*
X-5459141Y12496637D01*
X-5442153Y12499157D01*
X-5425000Y12500000D01*
X-4625000Y12500000D01*
X-4607847Y12499157D01*
X-4607847Y12499157D01*
G37*
D17*
X-5025000Y12150000D03*
D14*
G36*
X-4607847Y13149157D02*
X-4590859Y13146637D01*
X-4574200Y13142465D01*
X-4558030Y13136679D01*
X-4542506Y13129336D01*
X-4527775Y13120507D01*
X-4513981Y13110277D01*
X-4501256Y13098744D01*
X-4489723Y13086019D01*
X-4479493Y13072225D01*
X-4470664Y13057494D01*
X-4463321Y13041970D01*
X-4457535Y13025800D01*
X-4453363Y13009141D01*
X-4450843Y12992153D01*
X-4450000Y12975000D01*
X-4450000Y12625000D01*
X-4450843Y12607847D01*
X-4453363Y12590859D01*
X-4457535Y12574200D01*
X-4463321Y12558030D01*
X-4470664Y12542506D01*
X-4479493Y12527775D01*
X-4489723Y12513981D01*
X-4501256Y12501256D01*
X-4513981Y12489723D01*
X-4527775Y12479493D01*
X-4542506Y12470664D01*
X-4558030Y12463321D01*
X-4574200Y12457535D01*
X-4590859Y12453363D01*
X-4607847Y12450843D01*
X-4625000Y12450000D01*
X-5425000Y12450000D01*
X-5442153Y12450843D01*
X-5459141Y12453363D01*
X-5475800Y12457535D01*
X-5491970Y12463321D01*
X-5507494Y12470664D01*
X-5522225Y12479493D01*
X-5536019Y12489723D01*
X-5548744Y12501256D01*
X-5560277Y12513981D01*
X-5570507Y12527775D01*
X-5579336Y12542506D01*
X-5586679Y12558030D01*
X-5592465Y12574200D01*
X-5596637Y12590859D01*
X-5599157Y12607847D01*
X-5600000Y12625000D01*
X-5600000Y12975000D01*
X-5599157Y12992153D01*
X-5596637Y13009141D01*
X-5592465Y13025800D01*
X-5586679Y13041970D01*
X-5579336Y13057494D01*
X-5570507Y13072225D01*
X-5560277Y13086019D01*
X-5548744Y13098744D01*
X-5536019Y13110277D01*
X-5522225Y13120507D01*
X-5507494Y13129336D01*
X-5491970Y13136679D01*
X-5475800Y13142465D01*
X-5459141Y13146637D01*
X-5442153Y13149157D01*
X-5425000Y13150000D01*
X-4625000Y13150000D01*
X-4607847Y13149157D01*
X-4607847Y13149157D01*
G37*
D17*
X-5025000Y12800000D03*
D14*
G36*
X-6007847Y14549157D02*
X-5990859Y14546637D01*
X-5974200Y14542465D01*
X-5958030Y14536679D01*
X-5942506Y14529336D01*
X-5927775Y14520507D01*
X-5913981Y14510277D01*
X-5901256Y14498744D01*
X-5889723Y14486019D01*
X-5879493Y14472225D01*
X-5870664Y14457494D01*
X-5863321Y14441970D01*
X-5857535Y14425800D01*
X-5853363Y14409141D01*
X-5850843Y14392153D01*
X-5850000Y14375000D01*
X-5850000Y13575000D01*
X-5850843Y13557847D01*
X-5853363Y13540859D01*
X-5857535Y13524200D01*
X-5863321Y13508030D01*
X-5870664Y13492506D01*
X-5879493Y13477775D01*
X-5889723Y13463981D01*
X-5901256Y13451256D01*
X-5913981Y13439723D01*
X-5927775Y13429493D01*
X-5942506Y13420664D01*
X-5958030Y13413321D01*
X-5974200Y13407535D01*
X-5990859Y13403363D01*
X-6007847Y13400843D01*
X-6025000Y13400000D01*
X-6375000Y13400000D01*
X-6392153Y13400843D01*
X-6409141Y13403363D01*
X-6425800Y13407535D01*
X-6441970Y13413321D01*
X-6457494Y13420664D01*
X-6472225Y13429493D01*
X-6486019Y13439723D01*
X-6498744Y13451256D01*
X-6510277Y13463981D01*
X-6520507Y13477775D01*
X-6529336Y13492506D01*
X-6536679Y13508030D01*
X-6542465Y13524200D01*
X-6546637Y13540859D01*
X-6549157Y13557847D01*
X-6550000Y13575000D01*
X-6550000Y14375000D01*
X-6549157Y14392153D01*
X-6546637Y14409141D01*
X-6542465Y14425800D01*
X-6536679Y14441970D01*
X-6529336Y14457494D01*
X-6520507Y14472225D01*
X-6510277Y14486019D01*
X-6498744Y14498744D01*
X-6486019Y14510277D01*
X-6472225Y14520507D01*
X-6457494Y14529336D01*
X-6441970Y14536679D01*
X-6425800Y14542465D01*
X-6409141Y14546637D01*
X-6392153Y14549157D01*
X-6375000Y14550000D01*
X-6025000Y14550000D01*
X-6007847Y14549157D01*
X-6007847Y14549157D01*
G37*
D17*
X-6200000Y13975000D03*
D14*
G36*
X-6657847Y14549157D02*
X-6640859Y14546637D01*
X-6624200Y14542465D01*
X-6608030Y14536679D01*
X-6592506Y14529336D01*
X-6577775Y14520507D01*
X-6563981Y14510277D01*
X-6551256Y14498744D01*
X-6539723Y14486019D01*
X-6529493Y14472225D01*
X-6520664Y14457494D01*
X-6513321Y14441970D01*
X-6507535Y14425800D01*
X-6503363Y14409141D01*
X-6500843Y14392153D01*
X-6500000Y14375000D01*
X-6500000Y13575000D01*
X-6500843Y13557847D01*
X-6503363Y13540859D01*
X-6507535Y13524200D01*
X-6513321Y13508030D01*
X-6520664Y13492506D01*
X-6529493Y13477775D01*
X-6539723Y13463981D01*
X-6551256Y13451256D01*
X-6563981Y13439723D01*
X-6577775Y13429493D01*
X-6592506Y13420664D01*
X-6608030Y13413321D01*
X-6624200Y13407535D01*
X-6640859Y13403363D01*
X-6657847Y13400843D01*
X-6675000Y13400000D01*
X-7025000Y13400000D01*
X-7042153Y13400843D01*
X-7059141Y13403363D01*
X-7075800Y13407535D01*
X-7091970Y13413321D01*
X-7107494Y13420664D01*
X-7122225Y13429493D01*
X-7136019Y13439723D01*
X-7148744Y13451256D01*
X-7160277Y13463981D01*
X-7170507Y13477775D01*
X-7179336Y13492506D01*
X-7186679Y13508030D01*
X-7192465Y13524200D01*
X-7196637Y13540859D01*
X-7199157Y13557847D01*
X-7200000Y13575000D01*
X-7200000Y14375000D01*
X-7199157Y14392153D01*
X-7196637Y14409141D01*
X-7192465Y14425800D01*
X-7186679Y14441970D01*
X-7179336Y14457494D01*
X-7170507Y14472225D01*
X-7160277Y14486019D01*
X-7148744Y14498744D01*
X-7136019Y14510277D01*
X-7122225Y14520507D01*
X-7107494Y14529336D01*
X-7091970Y14536679D01*
X-7075800Y14542465D01*
X-7059141Y14546637D01*
X-7042153Y14549157D01*
X-7025000Y14550000D01*
X-6675000Y14550000D01*
X-6657847Y14549157D01*
X-6657847Y14549157D01*
G37*
D17*
X-6850000Y13975000D03*
D14*
G36*
X-7307847Y14549157D02*
X-7290859Y14546637D01*
X-7274200Y14542465D01*
X-7258030Y14536679D01*
X-7242506Y14529336D01*
X-7227775Y14520507D01*
X-7213981Y14510277D01*
X-7201256Y14498744D01*
X-7189723Y14486019D01*
X-7179493Y14472225D01*
X-7170664Y14457494D01*
X-7163321Y14441970D01*
X-7157535Y14425800D01*
X-7153363Y14409141D01*
X-7150843Y14392153D01*
X-7150000Y14375000D01*
X-7150000Y13575000D01*
X-7150843Y13557847D01*
X-7153363Y13540859D01*
X-7157535Y13524200D01*
X-7163321Y13508030D01*
X-7170664Y13492506D01*
X-7179493Y13477775D01*
X-7189723Y13463981D01*
X-7201256Y13451256D01*
X-7213981Y13439723D01*
X-7227775Y13429493D01*
X-7242506Y13420664D01*
X-7258030Y13413321D01*
X-7274200Y13407535D01*
X-7290859Y13403363D01*
X-7307847Y13400843D01*
X-7325000Y13400000D01*
X-7675000Y13400000D01*
X-7692153Y13400843D01*
X-7709141Y13403363D01*
X-7725800Y13407535D01*
X-7741970Y13413321D01*
X-7757494Y13420664D01*
X-7772225Y13429493D01*
X-7786019Y13439723D01*
X-7798744Y13451256D01*
X-7810277Y13463981D01*
X-7820507Y13477775D01*
X-7829336Y13492506D01*
X-7836679Y13508030D01*
X-7842465Y13524200D01*
X-7846637Y13540859D01*
X-7849157Y13557847D01*
X-7850000Y13575000D01*
X-7850000Y14375000D01*
X-7849157Y14392153D01*
X-7846637Y14409141D01*
X-7842465Y14425800D01*
X-7836679Y14441970D01*
X-7829336Y14457494D01*
X-7820507Y14472225D01*
X-7810277Y14486019D01*
X-7798744Y14498744D01*
X-7786019Y14510277D01*
X-7772225Y14520507D01*
X-7757494Y14529336D01*
X-7741970Y14536679D01*
X-7725800Y14542465D01*
X-7709141Y14546637D01*
X-7692153Y14549157D01*
X-7675000Y14550000D01*
X-7325000Y14550000D01*
X-7307847Y14549157D01*
X-7307847Y14549157D01*
G37*
D17*
X-7500000Y13975000D03*
D14*
G36*
X-7957847Y14549157D02*
X-7940859Y14546637D01*
X-7924200Y14542465D01*
X-7908030Y14536679D01*
X-7892506Y14529336D01*
X-7877775Y14520507D01*
X-7863981Y14510277D01*
X-7851256Y14498744D01*
X-7839723Y14486019D01*
X-7829493Y14472225D01*
X-7820664Y14457494D01*
X-7813321Y14441970D01*
X-7807535Y14425800D01*
X-7803363Y14409141D01*
X-7800843Y14392153D01*
X-7800000Y14375000D01*
X-7800000Y13575000D01*
X-7800843Y13557847D01*
X-7803363Y13540859D01*
X-7807535Y13524200D01*
X-7813321Y13508030D01*
X-7820664Y13492506D01*
X-7829493Y13477775D01*
X-7839723Y13463981D01*
X-7851256Y13451256D01*
X-7863981Y13439723D01*
X-7877775Y13429493D01*
X-7892506Y13420664D01*
X-7908030Y13413321D01*
X-7924200Y13407535D01*
X-7940859Y13403363D01*
X-7957847Y13400843D01*
X-7975000Y13400000D01*
X-8325000Y13400000D01*
X-8342153Y13400843D01*
X-8359141Y13403363D01*
X-8375800Y13407535D01*
X-8391970Y13413321D01*
X-8407494Y13420664D01*
X-8422225Y13429493D01*
X-8436019Y13439723D01*
X-8448744Y13451256D01*
X-8460277Y13463981D01*
X-8470507Y13477775D01*
X-8479336Y13492506D01*
X-8486679Y13508030D01*
X-8492465Y13524200D01*
X-8496637Y13540859D01*
X-8499157Y13557847D01*
X-8500000Y13575000D01*
X-8500000Y14375000D01*
X-8499157Y14392153D01*
X-8496637Y14409141D01*
X-8492465Y14425800D01*
X-8486679Y14441970D01*
X-8479336Y14457494D01*
X-8470507Y14472225D01*
X-8460277Y14486019D01*
X-8448744Y14498744D01*
X-8436019Y14510277D01*
X-8422225Y14520507D01*
X-8407494Y14529336D01*
X-8391970Y14536679D01*
X-8375800Y14542465D01*
X-8359141Y14546637D01*
X-8342153Y14549157D01*
X-8325000Y14550000D01*
X-7975000Y14550000D01*
X-7957847Y14549157D01*
X-7957847Y14549157D01*
G37*
D17*
X-8150000Y13975000D03*
D14*
G36*
X-8607847Y14549157D02*
X-8590859Y14546637D01*
X-8574200Y14542465D01*
X-8558030Y14536679D01*
X-8542506Y14529336D01*
X-8527775Y14520507D01*
X-8513981Y14510277D01*
X-8501256Y14498744D01*
X-8489723Y14486019D01*
X-8479493Y14472225D01*
X-8470664Y14457494D01*
X-8463321Y14441970D01*
X-8457535Y14425800D01*
X-8453363Y14409141D01*
X-8450843Y14392153D01*
X-8450000Y14375000D01*
X-8450000Y13575000D01*
X-8450843Y13557847D01*
X-8453363Y13540859D01*
X-8457535Y13524200D01*
X-8463321Y13508030D01*
X-8470664Y13492506D01*
X-8479493Y13477775D01*
X-8489723Y13463981D01*
X-8501256Y13451256D01*
X-8513981Y13439723D01*
X-8527775Y13429493D01*
X-8542506Y13420664D01*
X-8558030Y13413321D01*
X-8574200Y13407535D01*
X-8590859Y13403363D01*
X-8607847Y13400843D01*
X-8625000Y13400000D01*
X-8975000Y13400000D01*
X-8992153Y13400843D01*
X-9009141Y13403363D01*
X-9025800Y13407535D01*
X-9041970Y13413321D01*
X-9057494Y13420664D01*
X-9072225Y13429493D01*
X-9086019Y13439723D01*
X-9098744Y13451256D01*
X-9110277Y13463981D01*
X-9120507Y13477775D01*
X-9129336Y13492506D01*
X-9136679Y13508030D01*
X-9142465Y13524200D01*
X-9146637Y13540859D01*
X-9149157Y13557847D01*
X-9150000Y13575000D01*
X-9150000Y14375000D01*
X-9149157Y14392153D01*
X-9146637Y14409141D01*
X-9142465Y14425800D01*
X-9136679Y14441970D01*
X-9129336Y14457494D01*
X-9120507Y14472225D01*
X-9110277Y14486019D01*
X-9098744Y14498744D01*
X-9086019Y14510277D01*
X-9072225Y14520507D01*
X-9057494Y14529336D01*
X-9041970Y14536679D01*
X-9025800Y14542465D01*
X-9009141Y14546637D01*
X-8992153Y14549157D01*
X-8975000Y14550000D01*
X-8625000Y14550000D01*
X-8607847Y14549157D01*
X-8607847Y14549157D01*
G37*
D17*
X-8800000Y13975000D03*
D14*
G36*
X-5877421Y13373652D02*
X-5850255Y13369623D01*
X-5823615Y13362950D01*
X-5797757Y13353698D01*
X-5772930Y13341956D01*
X-5749374Y13327837D01*
X-5727315Y13311477D01*
X-5706966Y13293034D01*
X-5688523Y13272685D01*
X-5672163Y13250626D01*
X-5658044Y13227070D01*
X-5646302Y13202243D01*
X-5637050Y13176385D01*
X-5630377Y13149745D01*
X-5626348Y13122579D01*
X-5625000Y13095149D01*
X-5625000Y9904851D01*
X-5626348Y9877421D01*
X-5630377Y9850255D01*
X-5637050Y9823615D01*
X-5646302Y9797757D01*
X-5658044Y9772930D01*
X-5672163Y9749374D01*
X-5688523Y9727315D01*
X-5706966Y9706966D01*
X-5727315Y9688523D01*
X-5749374Y9672163D01*
X-5772930Y9658044D01*
X-5797757Y9646302D01*
X-5823615Y9637050D01*
X-5850255Y9630377D01*
X-5877421Y9626348D01*
X-5904851Y9625000D01*
X-9095149Y9625000D01*
X-9122579Y9626348D01*
X-9149745Y9630377D01*
X-9176385Y9637050D01*
X-9202243Y9646302D01*
X-9227070Y9658044D01*
X-9250626Y9672163D01*
X-9272685Y9688523D01*
X-9293034Y9706966D01*
X-9311477Y9727315D01*
X-9327837Y9749374D01*
X-9341956Y9772930D01*
X-9353698Y9797757D01*
X-9362950Y9823615D01*
X-9369623Y9850255D01*
X-9373652Y9877421D01*
X-9375000Y9904851D01*
X-9375000Y13095149D01*
X-9373652Y13122579D01*
X-9369623Y13149745D01*
X-9362950Y13176385D01*
X-9353698Y13202243D01*
X-9341956Y13227070D01*
X-9327837Y13250626D01*
X-9311477Y13272685D01*
X-9293034Y13293034D01*
X-9272685Y13311477D01*
X-9250626Y13327837D01*
X-9227070Y13341956D01*
X-9202243Y13353698D01*
X-9176385Y13362950D01*
X-9149745Y13369623D01*
X-9122579Y13373652D01*
X-9095149Y13375000D01*
X-5904851Y13375000D01*
X-5877421Y13373652D01*
X-5877421Y13373652D01*
G37*
D18*
X-7500000Y11500000D03*
G04 #@! TD*
D14*
G04 #@! TO.C,U3*
G36*
X9122579Y13373652D02*
X9149745Y13369623D01*
X9176385Y13362950D01*
X9202243Y13353698D01*
X9227070Y13341956D01*
X9250626Y13327837D01*
X9272685Y13311477D01*
X9293034Y13293034D01*
X9311477Y13272685D01*
X9327837Y13250626D01*
X9341956Y13227070D01*
X9353698Y13202243D01*
X9362950Y13176385D01*
X9369623Y13149745D01*
X9373652Y13122579D01*
X9375000Y13095149D01*
X9375000Y9904851D01*
X9373652Y9877421D01*
X9369623Y9850255D01*
X9362950Y9823615D01*
X9353698Y9797757D01*
X9341956Y9772930D01*
X9327837Y9749374D01*
X9311477Y9727315D01*
X9293034Y9706966D01*
X9272685Y9688523D01*
X9250626Y9672163D01*
X9227070Y9658044D01*
X9202243Y9646302D01*
X9176385Y9637050D01*
X9149745Y9630377D01*
X9122579Y9626348D01*
X9095149Y9625000D01*
X5904851Y9625000D01*
X5877421Y9626348D01*
X5850255Y9630377D01*
X5823615Y9637050D01*
X5797757Y9646302D01*
X5772930Y9658044D01*
X5749374Y9672163D01*
X5727315Y9688523D01*
X5706966Y9706966D01*
X5688523Y9727315D01*
X5672163Y9749374D01*
X5658044Y9772930D01*
X5646302Y9797757D01*
X5637050Y9823615D01*
X5630377Y9850255D01*
X5626348Y9877421D01*
X5625000Y9904851D01*
X5625000Y13095149D01*
X5626348Y13122579D01*
X5630377Y13149745D01*
X5637050Y13176385D01*
X5646302Y13202243D01*
X5658044Y13227070D01*
X5672163Y13250626D01*
X5688523Y13272685D01*
X5706966Y13293034D01*
X5727315Y13311477D01*
X5749374Y13327837D01*
X5772930Y13341956D01*
X5797757Y13353698D01*
X5823615Y13362950D01*
X5850255Y13369623D01*
X5877421Y13373652D01*
X5904851Y13375000D01*
X9095149Y13375000D01*
X9122579Y13373652D01*
X9122579Y13373652D01*
G37*
D18*
X7500000Y11500000D03*
D14*
G36*
X6392153Y14549157D02*
X6409141Y14546637D01*
X6425800Y14542465D01*
X6441970Y14536679D01*
X6457494Y14529336D01*
X6472225Y14520507D01*
X6486019Y14510277D01*
X6498744Y14498744D01*
X6510277Y14486019D01*
X6520507Y14472225D01*
X6529336Y14457494D01*
X6536679Y14441970D01*
X6542465Y14425800D01*
X6546637Y14409141D01*
X6549157Y14392153D01*
X6550000Y14375000D01*
X6550000Y13575000D01*
X6549157Y13557847D01*
X6546637Y13540859D01*
X6542465Y13524200D01*
X6536679Y13508030D01*
X6529336Y13492506D01*
X6520507Y13477775D01*
X6510277Y13463981D01*
X6498744Y13451256D01*
X6486019Y13439723D01*
X6472225Y13429493D01*
X6457494Y13420664D01*
X6441970Y13413321D01*
X6425800Y13407535D01*
X6409141Y13403363D01*
X6392153Y13400843D01*
X6375000Y13400000D01*
X6025000Y13400000D01*
X6007847Y13400843D01*
X5990859Y13403363D01*
X5974200Y13407535D01*
X5958030Y13413321D01*
X5942506Y13420664D01*
X5927775Y13429493D01*
X5913981Y13439723D01*
X5901256Y13451256D01*
X5889723Y13463981D01*
X5879493Y13477775D01*
X5870664Y13492506D01*
X5863321Y13508030D01*
X5857535Y13524200D01*
X5853363Y13540859D01*
X5850843Y13557847D01*
X5850000Y13575000D01*
X5850000Y14375000D01*
X5850843Y14392153D01*
X5853363Y14409141D01*
X5857535Y14425800D01*
X5863321Y14441970D01*
X5870664Y14457494D01*
X5879493Y14472225D01*
X5889723Y14486019D01*
X5901256Y14498744D01*
X5913981Y14510277D01*
X5927775Y14520507D01*
X5942506Y14529336D01*
X5958030Y14536679D01*
X5974200Y14542465D01*
X5990859Y14546637D01*
X6007847Y14549157D01*
X6025000Y14550000D01*
X6375000Y14550000D01*
X6392153Y14549157D01*
X6392153Y14549157D01*
G37*
D17*
X6200000Y13975000D03*
D14*
G36*
X7042153Y14549157D02*
X7059141Y14546637D01*
X7075800Y14542465D01*
X7091970Y14536679D01*
X7107494Y14529336D01*
X7122225Y14520507D01*
X7136019Y14510277D01*
X7148744Y14498744D01*
X7160277Y14486019D01*
X7170507Y14472225D01*
X7179336Y14457494D01*
X7186679Y14441970D01*
X7192465Y14425800D01*
X7196637Y14409141D01*
X7199157Y14392153D01*
X7200000Y14375000D01*
X7200000Y13575000D01*
X7199157Y13557847D01*
X7196637Y13540859D01*
X7192465Y13524200D01*
X7186679Y13508030D01*
X7179336Y13492506D01*
X7170507Y13477775D01*
X7160277Y13463981D01*
X7148744Y13451256D01*
X7136019Y13439723D01*
X7122225Y13429493D01*
X7107494Y13420664D01*
X7091970Y13413321D01*
X7075800Y13407535D01*
X7059141Y13403363D01*
X7042153Y13400843D01*
X7025000Y13400000D01*
X6675000Y13400000D01*
X6657847Y13400843D01*
X6640859Y13403363D01*
X6624200Y13407535D01*
X6608030Y13413321D01*
X6592506Y13420664D01*
X6577775Y13429493D01*
X6563981Y13439723D01*
X6551256Y13451256D01*
X6539723Y13463981D01*
X6529493Y13477775D01*
X6520664Y13492506D01*
X6513321Y13508030D01*
X6507535Y13524200D01*
X6503363Y13540859D01*
X6500843Y13557847D01*
X6500000Y13575000D01*
X6500000Y14375000D01*
X6500843Y14392153D01*
X6503363Y14409141D01*
X6507535Y14425800D01*
X6513321Y14441970D01*
X6520664Y14457494D01*
X6529493Y14472225D01*
X6539723Y14486019D01*
X6551256Y14498744D01*
X6563981Y14510277D01*
X6577775Y14520507D01*
X6592506Y14529336D01*
X6608030Y14536679D01*
X6624200Y14542465D01*
X6640859Y14546637D01*
X6657847Y14549157D01*
X6675000Y14550000D01*
X7025000Y14550000D01*
X7042153Y14549157D01*
X7042153Y14549157D01*
G37*
D17*
X6850000Y13975000D03*
D14*
G36*
X7692153Y14549157D02*
X7709141Y14546637D01*
X7725800Y14542465D01*
X7741970Y14536679D01*
X7757494Y14529336D01*
X7772225Y14520507D01*
X7786019Y14510277D01*
X7798744Y14498744D01*
X7810277Y14486019D01*
X7820507Y14472225D01*
X7829336Y14457494D01*
X7836679Y14441970D01*
X7842465Y14425800D01*
X7846637Y14409141D01*
X7849157Y14392153D01*
X7850000Y14375000D01*
X7850000Y13575000D01*
X7849157Y13557847D01*
X7846637Y13540859D01*
X7842465Y13524200D01*
X7836679Y13508030D01*
X7829336Y13492506D01*
X7820507Y13477775D01*
X7810277Y13463981D01*
X7798744Y13451256D01*
X7786019Y13439723D01*
X7772225Y13429493D01*
X7757494Y13420664D01*
X7741970Y13413321D01*
X7725800Y13407535D01*
X7709141Y13403363D01*
X7692153Y13400843D01*
X7675000Y13400000D01*
X7325000Y13400000D01*
X7307847Y13400843D01*
X7290859Y13403363D01*
X7274200Y13407535D01*
X7258030Y13413321D01*
X7242506Y13420664D01*
X7227775Y13429493D01*
X7213981Y13439723D01*
X7201256Y13451256D01*
X7189723Y13463981D01*
X7179493Y13477775D01*
X7170664Y13492506D01*
X7163321Y13508030D01*
X7157535Y13524200D01*
X7153363Y13540859D01*
X7150843Y13557847D01*
X7150000Y13575000D01*
X7150000Y14375000D01*
X7150843Y14392153D01*
X7153363Y14409141D01*
X7157535Y14425800D01*
X7163321Y14441970D01*
X7170664Y14457494D01*
X7179493Y14472225D01*
X7189723Y14486019D01*
X7201256Y14498744D01*
X7213981Y14510277D01*
X7227775Y14520507D01*
X7242506Y14529336D01*
X7258030Y14536679D01*
X7274200Y14542465D01*
X7290859Y14546637D01*
X7307847Y14549157D01*
X7325000Y14550000D01*
X7675000Y14550000D01*
X7692153Y14549157D01*
X7692153Y14549157D01*
G37*
D17*
X7500000Y13975000D03*
D14*
G36*
X8342153Y14549157D02*
X8359141Y14546637D01*
X8375800Y14542465D01*
X8391970Y14536679D01*
X8407494Y14529336D01*
X8422225Y14520507D01*
X8436019Y14510277D01*
X8448744Y14498744D01*
X8460277Y14486019D01*
X8470507Y14472225D01*
X8479336Y14457494D01*
X8486679Y14441970D01*
X8492465Y14425800D01*
X8496637Y14409141D01*
X8499157Y14392153D01*
X8500000Y14375000D01*
X8500000Y13575000D01*
X8499157Y13557847D01*
X8496637Y13540859D01*
X8492465Y13524200D01*
X8486679Y13508030D01*
X8479336Y13492506D01*
X8470507Y13477775D01*
X8460277Y13463981D01*
X8448744Y13451256D01*
X8436019Y13439723D01*
X8422225Y13429493D01*
X8407494Y13420664D01*
X8391970Y13413321D01*
X8375800Y13407535D01*
X8359141Y13403363D01*
X8342153Y13400843D01*
X8325000Y13400000D01*
X7975000Y13400000D01*
X7957847Y13400843D01*
X7940859Y13403363D01*
X7924200Y13407535D01*
X7908030Y13413321D01*
X7892506Y13420664D01*
X7877775Y13429493D01*
X7863981Y13439723D01*
X7851256Y13451256D01*
X7839723Y13463981D01*
X7829493Y13477775D01*
X7820664Y13492506D01*
X7813321Y13508030D01*
X7807535Y13524200D01*
X7803363Y13540859D01*
X7800843Y13557847D01*
X7800000Y13575000D01*
X7800000Y14375000D01*
X7800843Y14392153D01*
X7803363Y14409141D01*
X7807535Y14425800D01*
X7813321Y14441970D01*
X7820664Y14457494D01*
X7829493Y14472225D01*
X7839723Y14486019D01*
X7851256Y14498744D01*
X7863981Y14510277D01*
X7877775Y14520507D01*
X7892506Y14529336D01*
X7908030Y14536679D01*
X7924200Y14542465D01*
X7940859Y14546637D01*
X7957847Y14549157D01*
X7975000Y14550000D01*
X8325000Y14550000D01*
X8342153Y14549157D01*
X8342153Y14549157D01*
G37*
D17*
X8150000Y13975000D03*
D14*
G36*
X8992153Y14549157D02*
X9009141Y14546637D01*
X9025800Y14542465D01*
X9041970Y14536679D01*
X9057494Y14529336D01*
X9072225Y14520507D01*
X9086019Y14510277D01*
X9098744Y14498744D01*
X9110277Y14486019D01*
X9120507Y14472225D01*
X9129336Y14457494D01*
X9136679Y14441970D01*
X9142465Y14425800D01*
X9146637Y14409141D01*
X9149157Y14392153D01*
X9150000Y14375000D01*
X9150000Y13575000D01*
X9149157Y13557847D01*
X9146637Y13540859D01*
X9142465Y13524200D01*
X9136679Y13508030D01*
X9129336Y13492506D01*
X9120507Y13477775D01*
X9110277Y13463981D01*
X9098744Y13451256D01*
X9086019Y13439723D01*
X9072225Y13429493D01*
X9057494Y13420664D01*
X9041970Y13413321D01*
X9025800Y13407535D01*
X9009141Y13403363D01*
X8992153Y13400843D01*
X8975000Y13400000D01*
X8625000Y13400000D01*
X8607847Y13400843D01*
X8590859Y13403363D01*
X8574200Y13407535D01*
X8558030Y13413321D01*
X8542506Y13420664D01*
X8527775Y13429493D01*
X8513981Y13439723D01*
X8501256Y13451256D01*
X8489723Y13463981D01*
X8479493Y13477775D01*
X8470664Y13492506D01*
X8463321Y13508030D01*
X8457535Y13524200D01*
X8453363Y13540859D01*
X8450843Y13557847D01*
X8450000Y13575000D01*
X8450000Y14375000D01*
X8450843Y14392153D01*
X8453363Y14409141D01*
X8457535Y14425800D01*
X8463321Y14441970D01*
X8470664Y14457494D01*
X8479493Y14472225D01*
X8489723Y14486019D01*
X8501256Y14498744D01*
X8513981Y14510277D01*
X8527775Y14520507D01*
X8542506Y14529336D01*
X8558030Y14536679D01*
X8574200Y14542465D01*
X8590859Y14546637D01*
X8607847Y14549157D01*
X8625000Y14550000D01*
X8975000Y14550000D01*
X8992153Y14549157D01*
X8992153Y14549157D01*
G37*
D17*
X8800000Y13975000D03*
D14*
G36*
X10392153Y13149157D02*
X10409141Y13146637D01*
X10425800Y13142465D01*
X10441970Y13136679D01*
X10457494Y13129336D01*
X10472225Y13120507D01*
X10486019Y13110277D01*
X10498744Y13098744D01*
X10510277Y13086019D01*
X10520507Y13072225D01*
X10529336Y13057494D01*
X10536679Y13041970D01*
X10542465Y13025800D01*
X10546637Y13009141D01*
X10549157Y12992153D01*
X10550000Y12975000D01*
X10550000Y12625000D01*
X10549157Y12607847D01*
X10546637Y12590859D01*
X10542465Y12574200D01*
X10536679Y12558030D01*
X10529336Y12542506D01*
X10520507Y12527775D01*
X10510277Y12513981D01*
X10498744Y12501256D01*
X10486019Y12489723D01*
X10472225Y12479493D01*
X10457494Y12470664D01*
X10441970Y12463321D01*
X10425800Y12457535D01*
X10409141Y12453363D01*
X10392153Y12450843D01*
X10375000Y12450000D01*
X9575000Y12450000D01*
X9557847Y12450843D01*
X9540859Y12453363D01*
X9524200Y12457535D01*
X9508030Y12463321D01*
X9492506Y12470664D01*
X9477775Y12479493D01*
X9463981Y12489723D01*
X9451256Y12501256D01*
X9439723Y12513981D01*
X9429493Y12527775D01*
X9420664Y12542506D01*
X9413321Y12558030D01*
X9407535Y12574200D01*
X9403363Y12590859D01*
X9400843Y12607847D01*
X9400000Y12625000D01*
X9400000Y12975000D01*
X9400843Y12992153D01*
X9403363Y13009141D01*
X9407535Y13025800D01*
X9413321Y13041970D01*
X9420664Y13057494D01*
X9429493Y13072225D01*
X9439723Y13086019D01*
X9451256Y13098744D01*
X9463981Y13110277D01*
X9477775Y13120507D01*
X9492506Y13129336D01*
X9508030Y13136679D01*
X9524200Y13142465D01*
X9540859Y13146637D01*
X9557847Y13149157D01*
X9575000Y13150000D01*
X10375000Y13150000D01*
X10392153Y13149157D01*
X10392153Y13149157D01*
G37*
D17*
X9975000Y12800000D03*
D14*
G36*
X10392153Y12499157D02*
X10409141Y12496637D01*
X10425800Y12492465D01*
X10441970Y12486679D01*
X10457494Y12479336D01*
X10472225Y12470507D01*
X10486019Y12460277D01*
X10498744Y12448744D01*
X10510277Y12436019D01*
X10520507Y12422225D01*
X10529336Y12407494D01*
X10536679Y12391970D01*
X10542465Y12375800D01*
X10546637Y12359141D01*
X10549157Y12342153D01*
X10550000Y12325000D01*
X10550000Y11975000D01*
X10549157Y11957847D01*
X10546637Y11940859D01*
X10542465Y11924200D01*
X10536679Y11908030D01*
X10529336Y11892506D01*
X10520507Y11877775D01*
X10510277Y11863981D01*
X10498744Y11851256D01*
X10486019Y11839723D01*
X10472225Y11829493D01*
X10457494Y11820664D01*
X10441970Y11813321D01*
X10425800Y11807535D01*
X10409141Y11803363D01*
X10392153Y11800843D01*
X10375000Y11800000D01*
X9575000Y11800000D01*
X9557847Y11800843D01*
X9540859Y11803363D01*
X9524200Y11807535D01*
X9508030Y11813321D01*
X9492506Y11820664D01*
X9477775Y11829493D01*
X9463981Y11839723D01*
X9451256Y11851256D01*
X9439723Y11863981D01*
X9429493Y11877775D01*
X9420664Y11892506D01*
X9413321Y11908030D01*
X9407535Y11924200D01*
X9403363Y11940859D01*
X9400843Y11957847D01*
X9400000Y11975000D01*
X9400000Y12325000D01*
X9400843Y12342153D01*
X9403363Y12359141D01*
X9407535Y12375800D01*
X9413321Y12391970D01*
X9420664Y12407494D01*
X9429493Y12422225D01*
X9439723Y12436019D01*
X9451256Y12448744D01*
X9463981Y12460277D01*
X9477775Y12470507D01*
X9492506Y12479336D01*
X9508030Y12486679D01*
X9524200Y12492465D01*
X9540859Y12496637D01*
X9557847Y12499157D01*
X9575000Y12500000D01*
X10375000Y12500000D01*
X10392153Y12499157D01*
X10392153Y12499157D01*
G37*
D17*
X9975000Y12150000D03*
D14*
G36*
X10392153Y11849157D02*
X10409141Y11846637D01*
X10425800Y11842465D01*
X10441970Y11836679D01*
X10457494Y11829336D01*
X10472225Y11820507D01*
X10486019Y11810277D01*
X10498744Y11798744D01*
X10510277Y11786019D01*
X10520507Y11772225D01*
X10529336Y11757494D01*
X10536679Y11741970D01*
X10542465Y11725800D01*
X10546637Y11709141D01*
X10549157Y11692153D01*
X10550000Y11675000D01*
X10550000Y11325000D01*
X10549157Y11307847D01*
X10546637Y11290859D01*
X10542465Y11274200D01*
X10536679Y11258030D01*
X10529336Y11242506D01*
X10520507Y11227775D01*
X10510277Y11213981D01*
X10498744Y11201256D01*
X10486019Y11189723D01*
X10472225Y11179493D01*
X10457494Y11170664D01*
X10441970Y11163321D01*
X10425800Y11157535D01*
X10409141Y11153363D01*
X10392153Y11150843D01*
X10375000Y11150000D01*
X9575000Y11150000D01*
X9557847Y11150843D01*
X9540859Y11153363D01*
X9524200Y11157535D01*
X9508030Y11163321D01*
X9492506Y11170664D01*
X9477775Y11179493D01*
X9463981Y11189723D01*
X9451256Y11201256D01*
X9439723Y11213981D01*
X9429493Y11227775D01*
X9420664Y11242506D01*
X9413321Y11258030D01*
X9407535Y11274200D01*
X9403363Y11290859D01*
X9400843Y11307847D01*
X9400000Y11325000D01*
X9400000Y11675000D01*
X9400843Y11692153D01*
X9403363Y11709141D01*
X9407535Y11725800D01*
X9413321Y11741970D01*
X9420664Y11757494D01*
X9429493Y11772225D01*
X9439723Y11786019D01*
X9451256Y11798744D01*
X9463981Y11810277D01*
X9477775Y11820507D01*
X9492506Y11829336D01*
X9508030Y11836679D01*
X9524200Y11842465D01*
X9540859Y11846637D01*
X9557847Y11849157D01*
X9575000Y11850000D01*
X10375000Y11850000D01*
X10392153Y11849157D01*
X10392153Y11849157D01*
G37*
D17*
X9975000Y11500000D03*
D14*
G36*
X10392153Y11199157D02*
X10409141Y11196637D01*
X10425800Y11192465D01*
X10441970Y11186679D01*
X10457494Y11179336D01*
X10472225Y11170507D01*
X10486019Y11160277D01*
X10498744Y11148744D01*
X10510277Y11136019D01*
X10520507Y11122225D01*
X10529336Y11107494D01*
X10536679Y11091970D01*
X10542465Y11075800D01*
X10546637Y11059141D01*
X10549157Y11042153D01*
X10550000Y11025000D01*
X10550000Y10675000D01*
X10549157Y10657847D01*
X10546637Y10640859D01*
X10542465Y10624200D01*
X10536679Y10608030D01*
X10529336Y10592506D01*
X10520507Y10577775D01*
X10510277Y10563981D01*
X10498744Y10551256D01*
X10486019Y10539723D01*
X10472225Y10529493D01*
X10457494Y10520664D01*
X10441970Y10513321D01*
X10425800Y10507535D01*
X10409141Y10503363D01*
X10392153Y10500843D01*
X10375000Y10500000D01*
X9575000Y10500000D01*
X9557847Y10500843D01*
X9540859Y10503363D01*
X9524200Y10507535D01*
X9508030Y10513321D01*
X9492506Y10520664D01*
X9477775Y10529493D01*
X9463981Y10539723D01*
X9451256Y10551256D01*
X9439723Y10563981D01*
X9429493Y10577775D01*
X9420664Y10592506D01*
X9413321Y10608030D01*
X9407535Y10624200D01*
X9403363Y10640859D01*
X9400843Y10657847D01*
X9400000Y10675000D01*
X9400000Y11025000D01*
X9400843Y11042153D01*
X9403363Y11059141D01*
X9407535Y11075800D01*
X9413321Y11091970D01*
X9420664Y11107494D01*
X9429493Y11122225D01*
X9439723Y11136019D01*
X9451256Y11148744D01*
X9463981Y11160277D01*
X9477775Y11170507D01*
X9492506Y11179336D01*
X9508030Y11186679D01*
X9524200Y11192465D01*
X9540859Y11196637D01*
X9557847Y11199157D01*
X9575000Y11200000D01*
X10375000Y11200000D01*
X10392153Y11199157D01*
X10392153Y11199157D01*
G37*
D17*
X9975000Y10850000D03*
D14*
G36*
X10392153Y10549157D02*
X10409141Y10546637D01*
X10425800Y10542465D01*
X10441970Y10536679D01*
X10457494Y10529336D01*
X10472225Y10520507D01*
X10486019Y10510277D01*
X10498744Y10498744D01*
X10510277Y10486019D01*
X10520507Y10472225D01*
X10529336Y10457494D01*
X10536679Y10441970D01*
X10542465Y10425800D01*
X10546637Y10409141D01*
X10549157Y10392153D01*
X10550000Y10375000D01*
X10550000Y10025000D01*
X10549157Y10007847D01*
X10546637Y9990859D01*
X10542465Y9974200D01*
X10536679Y9958030D01*
X10529336Y9942506D01*
X10520507Y9927775D01*
X10510277Y9913981D01*
X10498744Y9901256D01*
X10486019Y9889723D01*
X10472225Y9879493D01*
X10457494Y9870664D01*
X10441970Y9863321D01*
X10425800Y9857535D01*
X10409141Y9853363D01*
X10392153Y9850843D01*
X10375000Y9850000D01*
X9575000Y9850000D01*
X9557847Y9850843D01*
X9540859Y9853363D01*
X9524200Y9857535D01*
X9508030Y9863321D01*
X9492506Y9870664D01*
X9477775Y9879493D01*
X9463981Y9889723D01*
X9451256Y9901256D01*
X9439723Y9913981D01*
X9429493Y9927775D01*
X9420664Y9942506D01*
X9413321Y9958030D01*
X9407535Y9974200D01*
X9403363Y9990859D01*
X9400843Y10007847D01*
X9400000Y10025000D01*
X9400000Y10375000D01*
X9400843Y10392153D01*
X9403363Y10409141D01*
X9407535Y10425800D01*
X9413321Y10441970D01*
X9420664Y10457494D01*
X9429493Y10472225D01*
X9439723Y10486019D01*
X9451256Y10498744D01*
X9463981Y10510277D01*
X9477775Y10520507D01*
X9492506Y10529336D01*
X9508030Y10536679D01*
X9524200Y10542465D01*
X9540859Y10546637D01*
X9557847Y10549157D01*
X9575000Y10550000D01*
X10375000Y10550000D01*
X10392153Y10549157D01*
X10392153Y10549157D01*
G37*
D17*
X9975000Y10200000D03*
D14*
G36*
X8992153Y9599157D02*
X9009141Y9596637D01*
X9025800Y9592465D01*
X9041970Y9586679D01*
X9057494Y9579336D01*
X9072225Y9570507D01*
X9086019Y9560277D01*
X9098744Y9548744D01*
X9110277Y9536019D01*
X9120507Y9522225D01*
X9129336Y9507494D01*
X9136679Y9491970D01*
X9142465Y9475800D01*
X9146637Y9459141D01*
X9149157Y9442153D01*
X9150000Y9425000D01*
X9150000Y8625000D01*
X9149157Y8607847D01*
X9146637Y8590859D01*
X9142465Y8574200D01*
X9136679Y8558030D01*
X9129336Y8542506D01*
X9120507Y8527775D01*
X9110277Y8513981D01*
X9098744Y8501256D01*
X9086019Y8489723D01*
X9072225Y8479493D01*
X9057494Y8470664D01*
X9041970Y8463321D01*
X9025800Y8457535D01*
X9009141Y8453363D01*
X8992153Y8450843D01*
X8975000Y8450000D01*
X8625000Y8450000D01*
X8607847Y8450843D01*
X8590859Y8453363D01*
X8574200Y8457535D01*
X8558030Y8463321D01*
X8542506Y8470664D01*
X8527775Y8479493D01*
X8513981Y8489723D01*
X8501256Y8501256D01*
X8489723Y8513981D01*
X8479493Y8527775D01*
X8470664Y8542506D01*
X8463321Y8558030D01*
X8457535Y8574200D01*
X8453363Y8590859D01*
X8450843Y8607847D01*
X8450000Y8625000D01*
X8450000Y9425000D01*
X8450843Y9442153D01*
X8453363Y9459141D01*
X8457535Y9475800D01*
X8463321Y9491970D01*
X8470664Y9507494D01*
X8479493Y9522225D01*
X8489723Y9536019D01*
X8501256Y9548744D01*
X8513981Y9560277D01*
X8527775Y9570507D01*
X8542506Y9579336D01*
X8558030Y9586679D01*
X8574200Y9592465D01*
X8590859Y9596637D01*
X8607847Y9599157D01*
X8625000Y9600000D01*
X8975000Y9600000D01*
X8992153Y9599157D01*
X8992153Y9599157D01*
G37*
D17*
X8800000Y9025000D03*
D14*
G36*
X8342153Y9599157D02*
X8359141Y9596637D01*
X8375800Y9592465D01*
X8391970Y9586679D01*
X8407494Y9579336D01*
X8422225Y9570507D01*
X8436019Y9560277D01*
X8448744Y9548744D01*
X8460277Y9536019D01*
X8470507Y9522225D01*
X8479336Y9507494D01*
X8486679Y9491970D01*
X8492465Y9475800D01*
X8496637Y9459141D01*
X8499157Y9442153D01*
X8500000Y9425000D01*
X8500000Y8625000D01*
X8499157Y8607847D01*
X8496637Y8590859D01*
X8492465Y8574200D01*
X8486679Y8558030D01*
X8479336Y8542506D01*
X8470507Y8527775D01*
X8460277Y8513981D01*
X8448744Y8501256D01*
X8436019Y8489723D01*
X8422225Y8479493D01*
X8407494Y8470664D01*
X8391970Y8463321D01*
X8375800Y8457535D01*
X8359141Y8453363D01*
X8342153Y8450843D01*
X8325000Y8450000D01*
X7975000Y8450000D01*
X7957847Y8450843D01*
X7940859Y8453363D01*
X7924200Y8457535D01*
X7908030Y8463321D01*
X7892506Y8470664D01*
X7877775Y8479493D01*
X7863981Y8489723D01*
X7851256Y8501256D01*
X7839723Y8513981D01*
X7829493Y8527775D01*
X7820664Y8542506D01*
X7813321Y8558030D01*
X7807535Y8574200D01*
X7803363Y8590859D01*
X7800843Y8607847D01*
X7800000Y8625000D01*
X7800000Y9425000D01*
X7800843Y9442153D01*
X7803363Y9459141D01*
X7807535Y9475800D01*
X7813321Y9491970D01*
X7820664Y9507494D01*
X7829493Y9522225D01*
X7839723Y9536019D01*
X7851256Y9548744D01*
X7863981Y9560277D01*
X7877775Y9570507D01*
X7892506Y9579336D01*
X7908030Y9586679D01*
X7924200Y9592465D01*
X7940859Y9596637D01*
X7957847Y9599157D01*
X7975000Y9600000D01*
X8325000Y9600000D01*
X8342153Y9599157D01*
X8342153Y9599157D01*
G37*
D17*
X8150000Y9025000D03*
D14*
G36*
X7692153Y9599157D02*
X7709141Y9596637D01*
X7725800Y9592465D01*
X7741970Y9586679D01*
X7757494Y9579336D01*
X7772225Y9570507D01*
X7786019Y9560277D01*
X7798744Y9548744D01*
X7810277Y9536019D01*
X7820507Y9522225D01*
X7829336Y9507494D01*
X7836679Y9491970D01*
X7842465Y9475800D01*
X7846637Y9459141D01*
X7849157Y9442153D01*
X7850000Y9425000D01*
X7850000Y8625000D01*
X7849157Y8607847D01*
X7846637Y8590859D01*
X7842465Y8574200D01*
X7836679Y8558030D01*
X7829336Y8542506D01*
X7820507Y8527775D01*
X7810277Y8513981D01*
X7798744Y8501256D01*
X7786019Y8489723D01*
X7772225Y8479493D01*
X7757494Y8470664D01*
X7741970Y8463321D01*
X7725800Y8457535D01*
X7709141Y8453363D01*
X7692153Y8450843D01*
X7675000Y8450000D01*
X7325000Y8450000D01*
X7307847Y8450843D01*
X7290859Y8453363D01*
X7274200Y8457535D01*
X7258030Y8463321D01*
X7242506Y8470664D01*
X7227775Y8479493D01*
X7213981Y8489723D01*
X7201256Y8501256D01*
X7189723Y8513981D01*
X7179493Y8527775D01*
X7170664Y8542506D01*
X7163321Y8558030D01*
X7157535Y8574200D01*
X7153363Y8590859D01*
X7150843Y8607847D01*
X7150000Y8625000D01*
X7150000Y9425000D01*
X7150843Y9442153D01*
X7153363Y9459141D01*
X7157535Y9475800D01*
X7163321Y9491970D01*
X7170664Y9507494D01*
X7179493Y9522225D01*
X7189723Y9536019D01*
X7201256Y9548744D01*
X7213981Y9560277D01*
X7227775Y9570507D01*
X7242506Y9579336D01*
X7258030Y9586679D01*
X7274200Y9592465D01*
X7290859Y9596637D01*
X7307847Y9599157D01*
X7325000Y9600000D01*
X7675000Y9600000D01*
X7692153Y9599157D01*
X7692153Y9599157D01*
G37*
D17*
X7500000Y9025000D03*
D14*
G36*
X7042153Y9599157D02*
X7059141Y9596637D01*
X7075800Y9592465D01*
X7091970Y9586679D01*
X7107494Y9579336D01*
X7122225Y9570507D01*
X7136019Y9560277D01*
X7148744Y9548744D01*
X7160277Y9536019D01*
X7170507Y9522225D01*
X7179336Y9507494D01*
X7186679Y9491970D01*
X7192465Y9475800D01*
X7196637Y9459141D01*
X7199157Y9442153D01*
X7200000Y9425000D01*
X7200000Y8625000D01*
X7199157Y8607847D01*
X7196637Y8590859D01*
X7192465Y8574200D01*
X7186679Y8558030D01*
X7179336Y8542506D01*
X7170507Y8527775D01*
X7160277Y8513981D01*
X7148744Y8501256D01*
X7136019Y8489723D01*
X7122225Y8479493D01*
X7107494Y8470664D01*
X7091970Y8463321D01*
X7075800Y8457535D01*
X7059141Y8453363D01*
X7042153Y8450843D01*
X7025000Y8450000D01*
X6675000Y8450000D01*
X6657847Y8450843D01*
X6640859Y8453363D01*
X6624200Y8457535D01*
X6608030Y8463321D01*
X6592506Y8470664D01*
X6577775Y8479493D01*
X6563981Y8489723D01*
X6551256Y8501256D01*
X6539723Y8513981D01*
X6529493Y8527775D01*
X6520664Y8542506D01*
X6513321Y8558030D01*
X6507535Y8574200D01*
X6503363Y8590859D01*
X6500843Y8607847D01*
X6500000Y8625000D01*
X6500000Y9425000D01*
X6500843Y9442153D01*
X6503363Y9459141D01*
X6507535Y9475800D01*
X6513321Y9491970D01*
X6520664Y9507494D01*
X6529493Y9522225D01*
X6539723Y9536019D01*
X6551256Y9548744D01*
X6563981Y9560277D01*
X6577775Y9570507D01*
X6592506Y9579336D01*
X6608030Y9586679D01*
X6624200Y9592465D01*
X6640859Y9596637D01*
X6657847Y9599157D01*
X6675000Y9600000D01*
X7025000Y9600000D01*
X7042153Y9599157D01*
X7042153Y9599157D01*
G37*
D17*
X6850000Y9025000D03*
D14*
G36*
X6392153Y9599157D02*
X6409141Y9596637D01*
X6425800Y9592465D01*
X6441970Y9586679D01*
X6457494Y9579336D01*
X6472225Y9570507D01*
X6486019Y9560277D01*
X6498744Y9548744D01*
X6510277Y9536019D01*
X6520507Y9522225D01*
X6529336Y9507494D01*
X6536679Y9491970D01*
X6542465Y9475800D01*
X6546637Y9459141D01*
X6549157Y9442153D01*
X6550000Y9425000D01*
X6550000Y8625000D01*
X6549157Y8607847D01*
X6546637Y8590859D01*
X6542465Y8574200D01*
X6536679Y8558030D01*
X6529336Y8542506D01*
X6520507Y8527775D01*
X6510277Y8513981D01*
X6498744Y8501256D01*
X6486019Y8489723D01*
X6472225Y8479493D01*
X6457494Y8470664D01*
X6441970Y8463321D01*
X6425800Y8457535D01*
X6409141Y8453363D01*
X6392153Y8450843D01*
X6375000Y8450000D01*
X6025000Y8450000D01*
X6007847Y8450843D01*
X5990859Y8453363D01*
X5974200Y8457535D01*
X5958030Y8463321D01*
X5942506Y8470664D01*
X5927775Y8479493D01*
X5913981Y8489723D01*
X5901256Y8501256D01*
X5889723Y8513981D01*
X5879493Y8527775D01*
X5870664Y8542506D01*
X5863321Y8558030D01*
X5857535Y8574200D01*
X5853363Y8590859D01*
X5850843Y8607847D01*
X5850000Y8625000D01*
X5850000Y9425000D01*
X5850843Y9442153D01*
X5853363Y9459141D01*
X5857535Y9475800D01*
X5863321Y9491970D01*
X5870664Y9507494D01*
X5879493Y9522225D01*
X5889723Y9536019D01*
X5901256Y9548744D01*
X5913981Y9560277D01*
X5927775Y9570507D01*
X5942506Y9579336D01*
X5958030Y9586679D01*
X5974200Y9592465D01*
X5990859Y9596637D01*
X6007847Y9599157D01*
X6025000Y9600000D01*
X6375000Y9600000D01*
X6392153Y9599157D01*
X6392153Y9599157D01*
G37*
D17*
X6200000Y9025000D03*
D14*
G36*
X5442153Y10549157D02*
X5459141Y10546637D01*
X5475800Y10542465D01*
X5491970Y10536679D01*
X5507494Y10529336D01*
X5522225Y10520507D01*
X5536019Y10510277D01*
X5548744Y10498744D01*
X5560277Y10486019D01*
X5570507Y10472225D01*
X5579336Y10457494D01*
X5586679Y10441970D01*
X5592465Y10425800D01*
X5596637Y10409141D01*
X5599157Y10392153D01*
X5600000Y10375000D01*
X5600000Y10025000D01*
X5599157Y10007847D01*
X5596637Y9990859D01*
X5592465Y9974200D01*
X5586679Y9958030D01*
X5579336Y9942506D01*
X5570507Y9927775D01*
X5560277Y9913981D01*
X5548744Y9901256D01*
X5536019Y9889723D01*
X5522225Y9879493D01*
X5507494Y9870664D01*
X5491970Y9863321D01*
X5475800Y9857535D01*
X5459141Y9853363D01*
X5442153Y9850843D01*
X5425000Y9850000D01*
X4625000Y9850000D01*
X4607847Y9850843D01*
X4590859Y9853363D01*
X4574200Y9857535D01*
X4558030Y9863321D01*
X4542506Y9870664D01*
X4527775Y9879493D01*
X4513981Y9889723D01*
X4501256Y9901256D01*
X4489723Y9913981D01*
X4479493Y9927775D01*
X4470664Y9942506D01*
X4463321Y9958030D01*
X4457535Y9974200D01*
X4453363Y9990859D01*
X4450843Y10007847D01*
X4450000Y10025000D01*
X4450000Y10375000D01*
X4450843Y10392153D01*
X4453363Y10409141D01*
X4457535Y10425800D01*
X4463321Y10441970D01*
X4470664Y10457494D01*
X4479493Y10472225D01*
X4489723Y10486019D01*
X4501256Y10498744D01*
X4513981Y10510277D01*
X4527775Y10520507D01*
X4542506Y10529336D01*
X4558030Y10536679D01*
X4574200Y10542465D01*
X4590859Y10546637D01*
X4607847Y10549157D01*
X4625000Y10550000D01*
X5425000Y10550000D01*
X5442153Y10549157D01*
X5442153Y10549157D01*
G37*
D17*
X5025000Y10200000D03*
D14*
G36*
X5442153Y11199157D02*
X5459141Y11196637D01*
X5475800Y11192465D01*
X5491970Y11186679D01*
X5507494Y11179336D01*
X5522225Y11170507D01*
X5536019Y11160277D01*
X5548744Y11148744D01*
X5560277Y11136019D01*
X5570507Y11122225D01*
X5579336Y11107494D01*
X5586679Y11091970D01*
X5592465Y11075800D01*
X5596637Y11059141D01*
X5599157Y11042153D01*
X5600000Y11025000D01*
X5600000Y10675000D01*
X5599157Y10657847D01*
X5596637Y10640859D01*
X5592465Y10624200D01*
X5586679Y10608030D01*
X5579336Y10592506D01*
X5570507Y10577775D01*
X5560277Y10563981D01*
X5548744Y10551256D01*
X5536019Y10539723D01*
X5522225Y10529493D01*
X5507494Y10520664D01*
X5491970Y10513321D01*
X5475800Y10507535D01*
X5459141Y10503363D01*
X5442153Y10500843D01*
X5425000Y10500000D01*
X4625000Y10500000D01*
X4607847Y10500843D01*
X4590859Y10503363D01*
X4574200Y10507535D01*
X4558030Y10513321D01*
X4542506Y10520664D01*
X4527775Y10529493D01*
X4513981Y10539723D01*
X4501256Y10551256D01*
X4489723Y10563981D01*
X4479493Y10577775D01*
X4470664Y10592506D01*
X4463321Y10608030D01*
X4457535Y10624200D01*
X4453363Y10640859D01*
X4450843Y10657847D01*
X4450000Y10675000D01*
X4450000Y11025000D01*
X4450843Y11042153D01*
X4453363Y11059141D01*
X4457535Y11075800D01*
X4463321Y11091970D01*
X4470664Y11107494D01*
X4479493Y11122225D01*
X4489723Y11136019D01*
X4501256Y11148744D01*
X4513981Y11160277D01*
X4527775Y11170507D01*
X4542506Y11179336D01*
X4558030Y11186679D01*
X4574200Y11192465D01*
X4590859Y11196637D01*
X4607847Y11199157D01*
X4625000Y11200000D01*
X5425000Y11200000D01*
X5442153Y11199157D01*
X5442153Y11199157D01*
G37*
D17*
X5025000Y10850000D03*
D14*
G36*
X5442153Y11849157D02*
X5459141Y11846637D01*
X5475800Y11842465D01*
X5491970Y11836679D01*
X5507494Y11829336D01*
X5522225Y11820507D01*
X5536019Y11810277D01*
X5548744Y11798744D01*
X5560277Y11786019D01*
X5570507Y11772225D01*
X5579336Y11757494D01*
X5586679Y11741970D01*
X5592465Y11725800D01*
X5596637Y11709141D01*
X5599157Y11692153D01*
X5600000Y11675000D01*
X5600000Y11325000D01*
X5599157Y11307847D01*
X5596637Y11290859D01*
X5592465Y11274200D01*
X5586679Y11258030D01*
X5579336Y11242506D01*
X5570507Y11227775D01*
X5560277Y11213981D01*
X5548744Y11201256D01*
X5536019Y11189723D01*
X5522225Y11179493D01*
X5507494Y11170664D01*
X5491970Y11163321D01*
X5475800Y11157535D01*
X5459141Y11153363D01*
X5442153Y11150843D01*
X5425000Y11150000D01*
X4625000Y11150000D01*
X4607847Y11150843D01*
X4590859Y11153363D01*
X4574200Y11157535D01*
X4558030Y11163321D01*
X4542506Y11170664D01*
X4527775Y11179493D01*
X4513981Y11189723D01*
X4501256Y11201256D01*
X4489723Y11213981D01*
X4479493Y11227775D01*
X4470664Y11242506D01*
X4463321Y11258030D01*
X4457535Y11274200D01*
X4453363Y11290859D01*
X4450843Y11307847D01*
X4450000Y11325000D01*
X4450000Y11675000D01*
X4450843Y11692153D01*
X4453363Y11709141D01*
X4457535Y11725800D01*
X4463321Y11741970D01*
X4470664Y11757494D01*
X4479493Y11772225D01*
X4489723Y11786019D01*
X4501256Y11798744D01*
X4513981Y11810277D01*
X4527775Y11820507D01*
X4542506Y11829336D01*
X4558030Y11836679D01*
X4574200Y11842465D01*
X4590859Y11846637D01*
X4607847Y11849157D01*
X4625000Y11850000D01*
X5425000Y11850000D01*
X5442153Y11849157D01*
X5442153Y11849157D01*
G37*
D17*
X5025000Y11500000D03*
D14*
G36*
X5442153Y12499157D02*
X5459141Y12496637D01*
X5475800Y12492465D01*
X5491970Y12486679D01*
X5507494Y12479336D01*
X5522225Y12470507D01*
X5536019Y12460277D01*
X5548744Y12448744D01*
X5560277Y12436019D01*
X5570507Y12422225D01*
X5579336Y12407494D01*
X5586679Y12391970D01*
X5592465Y12375800D01*
X5596637Y12359141D01*
X5599157Y12342153D01*
X5600000Y12325000D01*
X5600000Y11975000D01*
X5599157Y11957847D01*
X5596637Y11940859D01*
X5592465Y11924200D01*
X5586679Y11908030D01*
X5579336Y11892506D01*
X5570507Y11877775D01*
X5560277Y11863981D01*
X5548744Y11851256D01*
X5536019Y11839723D01*
X5522225Y11829493D01*
X5507494Y11820664D01*
X5491970Y11813321D01*
X5475800Y11807535D01*
X5459141Y11803363D01*
X5442153Y11800843D01*
X5425000Y11800000D01*
X4625000Y11800000D01*
X4607847Y11800843D01*
X4590859Y11803363D01*
X4574200Y11807535D01*
X4558030Y11813321D01*
X4542506Y11820664D01*
X4527775Y11829493D01*
X4513981Y11839723D01*
X4501256Y11851256D01*
X4489723Y11863981D01*
X4479493Y11877775D01*
X4470664Y11892506D01*
X4463321Y11908030D01*
X4457535Y11924200D01*
X4453363Y11940859D01*
X4450843Y11957847D01*
X4450000Y11975000D01*
X4450000Y12325000D01*
X4450843Y12342153D01*
X4453363Y12359141D01*
X4457535Y12375800D01*
X4463321Y12391970D01*
X4470664Y12407494D01*
X4479493Y12422225D01*
X4489723Y12436019D01*
X4501256Y12448744D01*
X4513981Y12460277D01*
X4527775Y12470507D01*
X4542506Y12479336D01*
X4558030Y12486679D01*
X4574200Y12492465D01*
X4590859Y12496637D01*
X4607847Y12499157D01*
X4625000Y12500000D01*
X5425000Y12500000D01*
X5442153Y12499157D01*
X5442153Y12499157D01*
G37*
D17*
X5025000Y12150000D03*
D14*
G36*
X5442153Y13149157D02*
X5459141Y13146637D01*
X5475800Y13142465D01*
X5491970Y13136679D01*
X5507494Y13129336D01*
X5522225Y13120507D01*
X5536019Y13110277D01*
X5548744Y13098744D01*
X5560277Y13086019D01*
X5570507Y13072225D01*
X5579336Y13057494D01*
X5586679Y13041970D01*
X5592465Y13025800D01*
X5596637Y13009141D01*
X5599157Y12992153D01*
X5600000Y12975000D01*
X5600000Y12625000D01*
X5599157Y12607847D01*
X5596637Y12590859D01*
X5592465Y12574200D01*
X5586679Y12558030D01*
X5579336Y12542506D01*
X5570507Y12527775D01*
X5560277Y12513981D01*
X5548744Y12501256D01*
X5536019Y12489723D01*
X5522225Y12479493D01*
X5507494Y12470664D01*
X5491970Y12463321D01*
X5475800Y12457535D01*
X5459141Y12453363D01*
X5442153Y12450843D01*
X5425000Y12450000D01*
X4625000Y12450000D01*
X4607847Y12450843D01*
X4590859Y12453363D01*
X4574200Y12457535D01*
X4558030Y12463321D01*
X4542506Y12470664D01*
X4527775Y12479493D01*
X4513981Y12489723D01*
X4501256Y12501256D01*
X4489723Y12513981D01*
X4479493Y12527775D01*
X4470664Y12542506D01*
X4463321Y12558030D01*
X4457535Y12574200D01*
X4453363Y12590859D01*
X4450843Y12607847D01*
X4450000Y12625000D01*
X4450000Y12975000D01*
X4450843Y12992153D01*
X4453363Y13009141D01*
X4457535Y13025800D01*
X4463321Y13041970D01*
X4470664Y13057494D01*
X4479493Y13072225D01*
X4489723Y13086019D01*
X4501256Y13098744D01*
X4513981Y13110277D01*
X4527775Y13120507D01*
X4542506Y13129336D01*
X4558030Y13136679D01*
X4574200Y13142465D01*
X4590859Y13146637D01*
X4607847Y13149157D01*
X4625000Y13150000D01*
X5425000Y13150000D01*
X5442153Y13149157D01*
X5442153Y13149157D01*
G37*
D17*
X5025000Y12800000D03*
G04 #@! TD*
D19*
G04 #@! TO.C,J1*
X19550000Y14470000D03*
X19550000Y-13470000D03*
G04 #@! TD*
D20*
G04 #@! TO.C,MH9*
X-17500000Y22500000D03*
G04 #@! TD*
G04 #@! TO.C,MH10*
X18500000Y22500000D03*
G04 #@! TD*
G04 #@! TO.C,MH11*
X18500000Y-21500000D03*
G04 #@! TD*
G04 #@! TO.C,MH12*
X-17500000Y-21500000D03*
G04 #@! TD*
M02*
