G04 #@! TF.GenerationSoftware,KiCad,Pcbnew,(5.0.0)*
G04 #@! TF.CreationDate,2019-05-20T02:18:12+09:00*
G04 #@! TF.ProjectId,HeaterController_Controller,486561746572436F6E74726F6C6C6572,rev?*
G04 #@! TF.SameCoordinates,PX7f50c60PY34edce0*
G04 #@! TF.FileFunction,Legend,Bot*
G04 #@! TF.FilePolarity,Positive*
%FSLAX46Y46*%
G04 Gerber Fmt 4.6, Leading zero omitted, Abs format (unit mm)*
G04 Created by KiCad (PCBNEW (5.0.0)) date 05/20/19 02:18:12*
%MOMM*%
%LPD*%
G01*
G04 APERTURE LIST*
%ADD10C,0.120000*%
%ADD11C,0.150000*%
G04 APERTURE END LIST*
D10*
G04 #@! TO.C,J2*
X-8450000Y-17940000D02*
X9450000Y-17940000D01*
X9450000Y-17940000D02*
X9450000Y-20600000D01*
X9450000Y-20600000D02*
X-8450000Y-20600000D01*
X-8450000Y-20600000D02*
X-8450000Y-17940000D01*
X-7500000Y-20600000D02*
X-7500000Y-26600000D01*
X-7500000Y-26600000D02*
X-6740000Y-26600000D01*
X-6740000Y-26600000D02*
X-6740000Y-20600000D01*
X-7440000Y-20600000D02*
X-7440000Y-26600000D01*
X-7320000Y-20600000D02*
X-7320000Y-26600000D01*
X-7200000Y-20600000D02*
X-7200000Y-26600000D01*
X-7080000Y-20600000D02*
X-7080000Y-26600000D01*
X-6960000Y-20600000D02*
X-6960000Y-26600000D01*
X-6840000Y-20600000D02*
X-6840000Y-26600000D01*
X-7500000Y-17610000D02*
X-7500000Y-17940000D01*
X-6740000Y-17610000D02*
X-6740000Y-17940000D01*
X-5850000Y-17940000D02*
X-5850000Y-20600000D01*
X-4960000Y-20600000D02*
X-4960000Y-26600000D01*
X-4960000Y-26600000D02*
X-4200000Y-26600000D01*
X-4200000Y-26600000D02*
X-4200000Y-20600000D01*
X-4960000Y-17542929D02*
X-4960000Y-17940000D01*
X-4200000Y-17542929D02*
X-4200000Y-17940000D01*
X-3310000Y-17940000D02*
X-3310000Y-20600000D01*
X-2420000Y-20600000D02*
X-2420000Y-26600000D01*
X-2420000Y-26600000D02*
X-1660000Y-26600000D01*
X-1660000Y-26600000D02*
X-1660000Y-20600000D01*
X-2420000Y-17542929D02*
X-2420000Y-17940000D01*
X-1660000Y-17542929D02*
X-1660000Y-17940000D01*
X-770000Y-17940000D02*
X-770000Y-20600000D01*
X120000Y-20600000D02*
X120000Y-26600000D01*
X120000Y-26600000D02*
X880000Y-26600000D01*
X880000Y-26600000D02*
X880000Y-20600000D01*
X120000Y-17542929D02*
X120000Y-17940000D01*
X880000Y-17542929D02*
X880000Y-17940000D01*
X1770000Y-17940000D02*
X1770000Y-20600000D01*
X2660000Y-20600000D02*
X2660000Y-26600000D01*
X2660000Y-26600000D02*
X3420000Y-26600000D01*
X3420000Y-26600000D02*
X3420000Y-20600000D01*
X2660000Y-17542929D02*
X2660000Y-17940000D01*
X3420000Y-17542929D02*
X3420000Y-17940000D01*
X4310000Y-17940000D02*
X4310000Y-20600000D01*
X5200000Y-20600000D02*
X5200000Y-26600000D01*
X5200000Y-26600000D02*
X5960000Y-26600000D01*
X5960000Y-26600000D02*
X5960000Y-20600000D01*
X5200000Y-17542929D02*
X5200000Y-17940000D01*
X5960000Y-17542929D02*
X5960000Y-17940000D01*
X6850000Y-17940000D02*
X6850000Y-20600000D01*
X7740000Y-20600000D02*
X7740000Y-26600000D01*
X7740000Y-26600000D02*
X8500000Y-26600000D01*
X8500000Y-26600000D02*
X8500000Y-20600000D01*
X7740000Y-17542929D02*
X7740000Y-17940000D01*
X8500000Y-17542929D02*
X8500000Y-17940000D01*
X-7120000Y-15230000D02*
X-8390000Y-15230000D01*
X-8390000Y-15230000D02*
X-8390000Y-16500000D01*
D11*
G04 #@! TO.C,J3*
X-15500000Y2410000D02*
X-27500000Y2410000D01*
X-15500000Y14590000D02*
X-27500000Y14590000D01*
X-27500000Y2410000D02*
X-27500000Y14590000D01*
X-15500000Y2410000D02*
X-15500000Y14590000D01*
X-15214000Y5960000D02*
X-14452000Y6468000D01*
X-14452000Y6468000D02*
X-14452000Y5452000D01*
X-14452000Y5452000D02*
X-15214000Y5960000D01*
X-15023500Y5833000D02*
X-15023500Y6087000D01*
X-14896500Y5769500D02*
X-14896500Y6087000D01*
X-14896500Y6087000D02*
X-14896500Y6150500D01*
X-14769500Y5706000D02*
X-14769500Y6214000D01*
X-14642500Y6277500D02*
X-14642500Y5642500D01*
X-14579000Y5579000D02*
X-14579000Y6341000D01*
G04 #@! TO.C,J4*
X-14579000Y-10421000D02*
X-14579000Y-9659000D01*
X-14642500Y-9722500D02*
X-14642500Y-10357500D01*
X-14769500Y-10294000D02*
X-14769500Y-9786000D01*
X-14896500Y-9913000D02*
X-14896500Y-9849500D01*
X-14896500Y-10230500D02*
X-14896500Y-9913000D01*
X-15023500Y-10167000D02*
X-15023500Y-9913000D01*
X-14452000Y-10548000D02*
X-15214000Y-10040000D01*
X-14452000Y-9532000D02*
X-14452000Y-10548000D01*
X-15214000Y-10040000D02*
X-14452000Y-9532000D01*
X-15500000Y-13590000D02*
X-15500000Y-1410000D01*
X-27500000Y-13590000D02*
X-27500000Y-1410000D01*
X-15500000Y-1410000D02*
X-27500000Y-1410000D01*
X-15500000Y-13590000D02*
X-27500000Y-13590000D01*
G04 #@! TO.C,J5*
X-13590000Y16500000D02*
X-13590000Y28500000D01*
X-1410000Y16500000D02*
X-1410000Y28500000D01*
X-13590000Y28500000D02*
X-1410000Y28500000D01*
X-13590000Y16500000D02*
X-1410000Y16500000D01*
X-10040000Y16214000D02*
X-9532000Y15452000D01*
X-9532000Y15452000D02*
X-10548000Y15452000D01*
X-10548000Y15452000D02*
X-10040000Y16214000D01*
X-10167000Y16023500D02*
X-9913000Y16023500D01*
X-10230500Y15896500D02*
X-9913000Y15896500D01*
X-9913000Y15896500D02*
X-9849500Y15896500D01*
X-10294000Y15769500D02*
X-9786000Y15769500D01*
X-9722500Y15642500D02*
X-10357500Y15642500D01*
X-10421000Y15579000D02*
X-9659000Y15579000D01*
G04 #@! TO.C,J6*
X4579000Y15579000D02*
X5341000Y15579000D01*
X5277500Y15642500D02*
X4642500Y15642500D01*
X4706000Y15769500D02*
X5214000Y15769500D01*
X5087000Y15896500D02*
X5150500Y15896500D01*
X4769500Y15896500D02*
X5087000Y15896500D01*
X4833000Y16023500D02*
X5087000Y16023500D01*
X4452000Y15452000D02*
X4960000Y16214000D01*
X5468000Y15452000D02*
X4452000Y15452000D01*
X4960000Y16214000D02*
X5468000Y15452000D01*
X1410000Y16500000D02*
X13590000Y16500000D01*
X1410000Y28500000D02*
X13590000Y28500000D01*
X13590000Y16500000D02*
X13590000Y28500000D01*
X1410000Y16500000D02*
X1410000Y28500000D01*
D10*
G04 #@! TO.C,C1*
X7510000Y-10837221D02*
X7510000Y-11162779D01*
X6490000Y-10837221D02*
X6490000Y-11162779D01*
G04 #@! TO.C,C2*
X-2990000Y10549721D02*
X-2990000Y10875279D01*
X-4010000Y10549721D02*
X-4010000Y10875279D01*
G04 #@! TO.C,C3*
X12010000Y10549721D02*
X12010000Y10875279D01*
X10990000Y10549721D02*
X10990000Y10875279D01*
G04 #@! TO.C,R1*
X49721Y14010000D02*
X375279Y14010000D01*
X49721Y12990000D02*
X375279Y12990000D01*
G04 #@! TO.C,R2*
X49721Y10990000D02*
X375279Y10990000D01*
X49721Y12010000D02*
X375279Y12010000D01*
G04 #@! TO.C,U1*
X5725000Y-860000D02*
X4110000Y-860000D01*
X4110000Y-860000D02*
X4110000Y-140000D01*
X4110000Y-140000D02*
X-3110000Y-140000D01*
X-3110000Y-140000D02*
X-3110000Y-860000D01*
X4110000Y-12140000D02*
X4110000Y-12860000D01*
X4110000Y-12860000D02*
X-3110000Y-12860000D01*
X-3110000Y-12860000D02*
X-3110000Y-12140000D01*
G04 #@! TO.C,U2*
X-10110000Y13210000D02*
X-10110000Y14110000D01*
X-4890000Y8890000D02*
X-5790000Y8890000D01*
X-4890000Y9790000D02*
X-4890000Y8890000D01*
X-4890000Y14110000D02*
X-5790000Y14110000D01*
X-4890000Y13210000D02*
X-4890000Y14110000D01*
X-10110000Y8890000D02*
X-9210000Y8890000D01*
X-10110000Y9790000D02*
X-10110000Y8890000D01*
G04 #@! TO.C,U3*
X4890000Y9790000D02*
X4890000Y8890000D01*
X4890000Y8890000D02*
X5790000Y8890000D01*
X10110000Y13210000D02*
X10110000Y14110000D01*
X10110000Y14110000D02*
X9210000Y14110000D01*
X10110000Y9790000D02*
X10110000Y8890000D01*
X10110000Y8890000D02*
X9210000Y8890000D01*
X4890000Y13210000D02*
X4890000Y14110000D01*
G04 #@! TD*
M02*
