G04 #@! TF.GenerationSoftware,KiCad,Pcbnew,(5.0.0)*
G04 #@! TF.CreationDate,2019-05-20T02:18:12+09:00*
G04 #@! TF.ProjectId,HeaterController_Controller,486561746572436F6E74726F6C6C6572,rev?*
G04 #@! TF.SameCoordinates,PX7f50c60PY34edce0*
G04 #@! TF.FileFunction,Copper,L2,Bot,Signal*
G04 #@! TF.FilePolarity,Positive*
%FSLAX46Y46*%
G04 Gerber Fmt 4.6, Leading zero omitted, Abs format (unit mm)*
G04 Created by KiCad (PCBNEW (5.0.0)) date 05/20/19 02:18:12*
%MOMM*%
%LPD*%
G01*
G04 APERTURE LIST*
G04 #@! TA.AperFunction,ComponentPad*
%ADD10R,1.700000X1.700000*%
G04 #@! TD*
G04 #@! TA.AperFunction,ComponentPad*
%ADD11O,1.700000X1.700000*%
G04 #@! TD*
G04 #@! TA.AperFunction,ComponentPad*
%ADD12C,2.800000*%
G04 #@! TD*
G04 #@! TA.AperFunction,Conductor*
%ADD13C,0.100000*%
G04 #@! TD*
G04 #@! TA.AperFunction,SMDPad,CuDef*
%ADD14C,0.875000*%
G04 #@! TD*
G04 #@! TA.AperFunction,SMDPad,CuDef*
%ADD15R,1.725000X0.600000*%
G04 #@! TD*
G04 #@! TA.AperFunction,SMDPad,CuDef*
%ADD16C,0.300000*%
G04 #@! TD*
G04 #@! TA.AperFunction,SMDPad,CuDef*
%ADD17C,3.350000*%
G04 #@! TD*
G04 #@! TA.AperFunction,ComponentPad*
%ADD18C,4.400000*%
G04 #@! TD*
G04 #@! TA.AperFunction,ViaPad*
%ADD19C,0.600000*%
G04 #@! TD*
G04 #@! TA.AperFunction,Conductor*
%ADD20C,0.600000*%
G04 #@! TD*
G04 #@! TA.AperFunction,Conductor*
%ADD21C,0.500000*%
G04 #@! TD*
G04 #@! TA.AperFunction,Conductor*
%ADD22C,0.300000*%
G04 #@! TD*
G04 #@! TA.AperFunction,Conductor*
%ADD23C,1.000000*%
G04 #@! TD*
G04 #@! TA.AperFunction,Conductor*
%ADD24C,0.800000*%
G04 #@! TD*
G04 #@! TA.AperFunction,Conductor*
%ADD25C,0.400000*%
G04 #@! TD*
G04 #@! TA.AperFunction,Conductor*
%ADD26C,0.254000*%
G04 #@! TD*
G04 APERTURE END LIST*
D10*
G04 #@! TO.P,J2,1*
G04 #@! TO.N,/EXTERNAL0*
X-7120000Y-16500000D03*
D11*
G04 #@! TO.P,J2,2*
G04 #@! TO.N,/EXTERNAL1*
X-4580000Y-16500000D03*
G04 #@! TO.P,J2,3*
G04 #@! TO.N,/EXTERNAL2*
X-2040000Y-16500000D03*
G04 #@! TO.P,J2,4*
G04 #@! TO.N,/EXTERNAL3*
X500000Y-16500000D03*
G04 #@! TO.P,J2,5*
G04 #@! TO.N,/EXTERNAL4*
X3040000Y-16500000D03*
G04 #@! TO.P,J2,6*
G04 #@! TO.N,+5V*
X5580000Y-16500000D03*
G04 #@! TO.P,J2,7*
G04 #@! TO.N,GND*
X8120000Y-16500000D03*
G04 #@! TD*
D12*
G04 #@! TO.P,J3,1*
G04 #@! TO.N,/SSRCTRL_UPPER*
X-17500000Y5960000D03*
G04 #@! TO.P,J3,2*
G04 #@! TO.N,GND*
X-17500000Y11040000D03*
G04 #@! TD*
G04 #@! TO.P,J4,2*
G04 #@! TO.N,GND*
X-17500000Y-4960000D03*
G04 #@! TO.P,J4,1*
G04 #@! TO.N,/SSRCTRL_LOWER*
X-17500000Y-10040000D03*
G04 #@! TD*
G04 #@! TO.P,J5,1*
G04 #@! TO.N,Net-(J5-Pad1)*
X-10040000Y18500000D03*
G04 #@! TO.P,J5,2*
G04 #@! TO.N,Net-(J5-Pad2)*
X-4960000Y18500000D03*
G04 #@! TD*
G04 #@! TO.P,J6,2*
G04 #@! TO.N,Net-(J6-Pad2)*
X10040000Y18500000D03*
G04 #@! TO.P,J6,1*
G04 #@! TO.N,Net-(J6-Pad1)*
X4960000Y18500000D03*
G04 #@! TD*
D13*
G04 #@! TO.N,+5V*
G04 #@! TO.C,C1*
G36*
X7277691Y-11351053D02*
X7298926Y-11354203D01*
X7319750Y-11359419D01*
X7339962Y-11366651D01*
X7359368Y-11375830D01*
X7377781Y-11386866D01*
X7395024Y-11399654D01*
X7410930Y-11414070D01*
X7425346Y-11429976D01*
X7438134Y-11447219D01*
X7449170Y-11465632D01*
X7458349Y-11485038D01*
X7465581Y-11505250D01*
X7470797Y-11526074D01*
X7473947Y-11547309D01*
X7475000Y-11568750D01*
X7475000Y-12006250D01*
X7473947Y-12027691D01*
X7470797Y-12048926D01*
X7465581Y-12069750D01*
X7458349Y-12089962D01*
X7449170Y-12109368D01*
X7438134Y-12127781D01*
X7425346Y-12145024D01*
X7410930Y-12160930D01*
X7395024Y-12175346D01*
X7377781Y-12188134D01*
X7359368Y-12199170D01*
X7339962Y-12208349D01*
X7319750Y-12215581D01*
X7298926Y-12220797D01*
X7277691Y-12223947D01*
X7256250Y-12225000D01*
X6743750Y-12225000D01*
X6722309Y-12223947D01*
X6701074Y-12220797D01*
X6680250Y-12215581D01*
X6660038Y-12208349D01*
X6640632Y-12199170D01*
X6622219Y-12188134D01*
X6604976Y-12175346D01*
X6589070Y-12160930D01*
X6574654Y-12145024D01*
X6561866Y-12127781D01*
X6550830Y-12109368D01*
X6541651Y-12089962D01*
X6534419Y-12069750D01*
X6529203Y-12048926D01*
X6526053Y-12027691D01*
X6525000Y-12006250D01*
X6525000Y-11568750D01*
X6526053Y-11547309D01*
X6529203Y-11526074D01*
X6534419Y-11505250D01*
X6541651Y-11485038D01*
X6550830Y-11465632D01*
X6561866Y-11447219D01*
X6574654Y-11429976D01*
X6589070Y-11414070D01*
X6604976Y-11399654D01*
X6622219Y-11386866D01*
X6640632Y-11375830D01*
X6660038Y-11366651D01*
X6680250Y-11359419D01*
X6701074Y-11354203D01*
X6722309Y-11351053D01*
X6743750Y-11350000D01*
X7256250Y-11350000D01*
X7277691Y-11351053D01*
X7277691Y-11351053D01*
G37*
D14*
G04 #@! TD*
G04 #@! TO.P,C1,2*
G04 #@! TO.N,+5V*
X7000000Y-11787500D03*
D13*
G04 #@! TO.N,GND*
G04 #@! TO.C,C1*
G36*
X7277691Y-9776053D02*
X7298926Y-9779203D01*
X7319750Y-9784419D01*
X7339962Y-9791651D01*
X7359368Y-9800830D01*
X7377781Y-9811866D01*
X7395024Y-9824654D01*
X7410930Y-9839070D01*
X7425346Y-9854976D01*
X7438134Y-9872219D01*
X7449170Y-9890632D01*
X7458349Y-9910038D01*
X7465581Y-9930250D01*
X7470797Y-9951074D01*
X7473947Y-9972309D01*
X7475000Y-9993750D01*
X7475000Y-10431250D01*
X7473947Y-10452691D01*
X7470797Y-10473926D01*
X7465581Y-10494750D01*
X7458349Y-10514962D01*
X7449170Y-10534368D01*
X7438134Y-10552781D01*
X7425346Y-10570024D01*
X7410930Y-10585930D01*
X7395024Y-10600346D01*
X7377781Y-10613134D01*
X7359368Y-10624170D01*
X7339962Y-10633349D01*
X7319750Y-10640581D01*
X7298926Y-10645797D01*
X7277691Y-10648947D01*
X7256250Y-10650000D01*
X6743750Y-10650000D01*
X6722309Y-10648947D01*
X6701074Y-10645797D01*
X6680250Y-10640581D01*
X6660038Y-10633349D01*
X6640632Y-10624170D01*
X6622219Y-10613134D01*
X6604976Y-10600346D01*
X6589070Y-10585930D01*
X6574654Y-10570024D01*
X6561866Y-10552781D01*
X6550830Y-10534368D01*
X6541651Y-10514962D01*
X6534419Y-10494750D01*
X6529203Y-10473926D01*
X6526053Y-10452691D01*
X6525000Y-10431250D01*
X6525000Y-9993750D01*
X6526053Y-9972309D01*
X6529203Y-9951074D01*
X6534419Y-9930250D01*
X6541651Y-9910038D01*
X6550830Y-9890632D01*
X6561866Y-9872219D01*
X6574654Y-9854976D01*
X6589070Y-9839070D01*
X6604976Y-9824654D01*
X6622219Y-9811866D01*
X6640632Y-9800830D01*
X6660038Y-9791651D01*
X6680250Y-9784419D01*
X6701074Y-9779203D01*
X6722309Y-9776053D01*
X6743750Y-9775000D01*
X7256250Y-9775000D01*
X7277691Y-9776053D01*
X7277691Y-9776053D01*
G37*
D14*
G04 #@! TD*
G04 #@! TO.P,C1,1*
G04 #@! TO.N,GND*
X7000000Y-10212500D03*
D13*
G04 #@! TO.N,GND*
G04 #@! TO.C,C2*
G36*
X-3222309Y10361447D02*
X-3201074Y10358297D01*
X-3180250Y10353081D01*
X-3160038Y10345849D01*
X-3140632Y10336670D01*
X-3122219Y10325634D01*
X-3104976Y10312846D01*
X-3089070Y10298430D01*
X-3074654Y10282524D01*
X-3061866Y10265281D01*
X-3050830Y10246868D01*
X-3041651Y10227462D01*
X-3034419Y10207250D01*
X-3029203Y10186426D01*
X-3026053Y10165191D01*
X-3025000Y10143750D01*
X-3025000Y9706250D01*
X-3026053Y9684809D01*
X-3029203Y9663574D01*
X-3034419Y9642750D01*
X-3041651Y9622538D01*
X-3050830Y9603132D01*
X-3061866Y9584719D01*
X-3074654Y9567476D01*
X-3089070Y9551570D01*
X-3104976Y9537154D01*
X-3122219Y9524366D01*
X-3140632Y9513330D01*
X-3160038Y9504151D01*
X-3180250Y9496919D01*
X-3201074Y9491703D01*
X-3222309Y9488553D01*
X-3243750Y9487500D01*
X-3756250Y9487500D01*
X-3777691Y9488553D01*
X-3798926Y9491703D01*
X-3819750Y9496919D01*
X-3839962Y9504151D01*
X-3859368Y9513330D01*
X-3877781Y9524366D01*
X-3895024Y9537154D01*
X-3910930Y9551570D01*
X-3925346Y9567476D01*
X-3938134Y9584719D01*
X-3949170Y9603132D01*
X-3958349Y9622538D01*
X-3965581Y9642750D01*
X-3970797Y9663574D01*
X-3973947Y9684809D01*
X-3975000Y9706250D01*
X-3975000Y10143750D01*
X-3973947Y10165191D01*
X-3970797Y10186426D01*
X-3965581Y10207250D01*
X-3958349Y10227462D01*
X-3949170Y10246868D01*
X-3938134Y10265281D01*
X-3925346Y10282524D01*
X-3910930Y10298430D01*
X-3895024Y10312846D01*
X-3877781Y10325634D01*
X-3859368Y10336670D01*
X-3839962Y10345849D01*
X-3819750Y10353081D01*
X-3798926Y10358297D01*
X-3777691Y10361447D01*
X-3756250Y10362500D01*
X-3243750Y10362500D01*
X-3222309Y10361447D01*
X-3222309Y10361447D01*
G37*
D14*
G04 #@! TD*
G04 #@! TO.P,C2,1*
G04 #@! TO.N,GND*
X-3500000Y9925000D03*
D13*
G04 #@! TO.N,+3V3*
G04 #@! TO.C,C2*
G36*
X-3222309Y11936447D02*
X-3201074Y11933297D01*
X-3180250Y11928081D01*
X-3160038Y11920849D01*
X-3140632Y11911670D01*
X-3122219Y11900634D01*
X-3104976Y11887846D01*
X-3089070Y11873430D01*
X-3074654Y11857524D01*
X-3061866Y11840281D01*
X-3050830Y11821868D01*
X-3041651Y11802462D01*
X-3034419Y11782250D01*
X-3029203Y11761426D01*
X-3026053Y11740191D01*
X-3025000Y11718750D01*
X-3025000Y11281250D01*
X-3026053Y11259809D01*
X-3029203Y11238574D01*
X-3034419Y11217750D01*
X-3041651Y11197538D01*
X-3050830Y11178132D01*
X-3061866Y11159719D01*
X-3074654Y11142476D01*
X-3089070Y11126570D01*
X-3104976Y11112154D01*
X-3122219Y11099366D01*
X-3140632Y11088330D01*
X-3160038Y11079151D01*
X-3180250Y11071919D01*
X-3201074Y11066703D01*
X-3222309Y11063553D01*
X-3243750Y11062500D01*
X-3756250Y11062500D01*
X-3777691Y11063553D01*
X-3798926Y11066703D01*
X-3819750Y11071919D01*
X-3839962Y11079151D01*
X-3859368Y11088330D01*
X-3877781Y11099366D01*
X-3895024Y11112154D01*
X-3910930Y11126570D01*
X-3925346Y11142476D01*
X-3938134Y11159719D01*
X-3949170Y11178132D01*
X-3958349Y11197538D01*
X-3965581Y11217750D01*
X-3970797Y11238574D01*
X-3973947Y11259809D01*
X-3975000Y11281250D01*
X-3975000Y11718750D01*
X-3973947Y11740191D01*
X-3970797Y11761426D01*
X-3965581Y11782250D01*
X-3958349Y11802462D01*
X-3949170Y11821868D01*
X-3938134Y11840281D01*
X-3925346Y11857524D01*
X-3910930Y11873430D01*
X-3895024Y11887846D01*
X-3877781Y11900634D01*
X-3859368Y11911670D01*
X-3839962Y11920849D01*
X-3819750Y11928081D01*
X-3798926Y11933297D01*
X-3777691Y11936447D01*
X-3756250Y11937500D01*
X-3243750Y11937500D01*
X-3222309Y11936447D01*
X-3222309Y11936447D01*
G37*
D14*
G04 #@! TD*
G04 #@! TO.P,C2,2*
G04 #@! TO.N,+3V3*
X-3500000Y11500000D03*
D13*
G04 #@! TO.N,GND*
G04 #@! TO.C,C3*
G36*
X11777691Y10361447D02*
X11798926Y10358297D01*
X11819750Y10353081D01*
X11839962Y10345849D01*
X11859368Y10336670D01*
X11877781Y10325634D01*
X11895024Y10312846D01*
X11910930Y10298430D01*
X11925346Y10282524D01*
X11938134Y10265281D01*
X11949170Y10246868D01*
X11958349Y10227462D01*
X11965581Y10207250D01*
X11970797Y10186426D01*
X11973947Y10165191D01*
X11975000Y10143750D01*
X11975000Y9706250D01*
X11973947Y9684809D01*
X11970797Y9663574D01*
X11965581Y9642750D01*
X11958349Y9622538D01*
X11949170Y9603132D01*
X11938134Y9584719D01*
X11925346Y9567476D01*
X11910930Y9551570D01*
X11895024Y9537154D01*
X11877781Y9524366D01*
X11859368Y9513330D01*
X11839962Y9504151D01*
X11819750Y9496919D01*
X11798926Y9491703D01*
X11777691Y9488553D01*
X11756250Y9487500D01*
X11243750Y9487500D01*
X11222309Y9488553D01*
X11201074Y9491703D01*
X11180250Y9496919D01*
X11160038Y9504151D01*
X11140632Y9513330D01*
X11122219Y9524366D01*
X11104976Y9537154D01*
X11089070Y9551570D01*
X11074654Y9567476D01*
X11061866Y9584719D01*
X11050830Y9603132D01*
X11041651Y9622538D01*
X11034419Y9642750D01*
X11029203Y9663574D01*
X11026053Y9684809D01*
X11025000Y9706250D01*
X11025000Y10143750D01*
X11026053Y10165191D01*
X11029203Y10186426D01*
X11034419Y10207250D01*
X11041651Y10227462D01*
X11050830Y10246868D01*
X11061866Y10265281D01*
X11074654Y10282524D01*
X11089070Y10298430D01*
X11104976Y10312846D01*
X11122219Y10325634D01*
X11140632Y10336670D01*
X11160038Y10345849D01*
X11180250Y10353081D01*
X11201074Y10358297D01*
X11222309Y10361447D01*
X11243750Y10362500D01*
X11756250Y10362500D01*
X11777691Y10361447D01*
X11777691Y10361447D01*
G37*
D14*
G04 #@! TD*
G04 #@! TO.P,C3,1*
G04 #@! TO.N,GND*
X11500000Y9925000D03*
D13*
G04 #@! TO.N,+3V3*
G04 #@! TO.C,C3*
G36*
X11777691Y11936447D02*
X11798926Y11933297D01*
X11819750Y11928081D01*
X11839962Y11920849D01*
X11859368Y11911670D01*
X11877781Y11900634D01*
X11895024Y11887846D01*
X11910930Y11873430D01*
X11925346Y11857524D01*
X11938134Y11840281D01*
X11949170Y11821868D01*
X11958349Y11802462D01*
X11965581Y11782250D01*
X11970797Y11761426D01*
X11973947Y11740191D01*
X11975000Y11718750D01*
X11975000Y11281250D01*
X11973947Y11259809D01*
X11970797Y11238574D01*
X11965581Y11217750D01*
X11958349Y11197538D01*
X11949170Y11178132D01*
X11938134Y11159719D01*
X11925346Y11142476D01*
X11910930Y11126570D01*
X11895024Y11112154D01*
X11877781Y11099366D01*
X11859368Y11088330D01*
X11839962Y11079151D01*
X11819750Y11071919D01*
X11798926Y11066703D01*
X11777691Y11063553D01*
X11756250Y11062500D01*
X11243750Y11062500D01*
X11222309Y11063553D01*
X11201074Y11066703D01*
X11180250Y11071919D01*
X11160038Y11079151D01*
X11140632Y11088330D01*
X11122219Y11099366D01*
X11104976Y11112154D01*
X11089070Y11126570D01*
X11074654Y11142476D01*
X11061866Y11159719D01*
X11050830Y11178132D01*
X11041651Y11197538D01*
X11034419Y11217750D01*
X11029203Y11238574D01*
X11026053Y11259809D01*
X11025000Y11281250D01*
X11025000Y11718750D01*
X11026053Y11740191D01*
X11029203Y11761426D01*
X11034419Y11782250D01*
X11041651Y11802462D01*
X11050830Y11821868D01*
X11061866Y11840281D01*
X11074654Y11857524D01*
X11089070Y11873430D01*
X11104976Y11887846D01*
X11122219Y11900634D01*
X11140632Y11911670D01*
X11160038Y11920849D01*
X11180250Y11928081D01*
X11201074Y11933297D01*
X11222309Y11936447D01*
X11243750Y11937500D01*
X11756250Y11937500D01*
X11777691Y11936447D01*
X11777691Y11936447D01*
G37*
D14*
G04 #@! TD*
G04 #@! TO.P,C3,2*
G04 #@! TO.N,+3V3*
X11500000Y11500000D03*
D13*
G04 #@! TO.N,/SDA*
G04 #@! TO.C,R1*
G36*
X1240191Y13973947D02*
X1261426Y13970797D01*
X1282250Y13965581D01*
X1302462Y13958349D01*
X1321868Y13949170D01*
X1340281Y13938134D01*
X1357524Y13925346D01*
X1373430Y13910930D01*
X1387846Y13895024D01*
X1400634Y13877781D01*
X1411670Y13859368D01*
X1420849Y13839962D01*
X1428081Y13819750D01*
X1433297Y13798926D01*
X1436447Y13777691D01*
X1437500Y13756250D01*
X1437500Y13243750D01*
X1436447Y13222309D01*
X1433297Y13201074D01*
X1428081Y13180250D01*
X1420849Y13160038D01*
X1411670Y13140632D01*
X1400634Y13122219D01*
X1387846Y13104976D01*
X1373430Y13089070D01*
X1357524Y13074654D01*
X1340281Y13061866D01*
X1321868Y13050830D01*
X1302462Y13041651D01*
X1282250Y13034419D01*
X1261426Y13029203D01*
X1240191Y13026053D01*
X1218750Y13025000D01*
X781250Y13025000D01*
X759809Y13026053D01*
X738574Y13029203D01*
X717750Y13034419D01*
X697538Y13041651D01*
X678132Y13050830D01*
X659719Y13061866D01*
X642476Y13074654D01*
X626570Y13089070D01*
X612154Y13104976D01*
X599366Y13122219D01*
X588330Y13140632D01*
X579151Y13160038D01*
X571919Y13180250D01*
X566703Y13201074D01*
X563553Y13222309D01*
X562500Y13243750D01*
X562500Y13756250D01*
X563553Y13777691D01*
X566703Y13798926D01*
X571919Y13819750D01*
X579151Y13839962D01*
X588330Y13859368D01*
X599366Y13877781D01*
X612154Y13895024D01*
X626570Y13910930D01*
X642476Y13925346D01*
X659719Y13938134D01*
X678132Y13949170D01*
X697538Y13958349D01*
X717750Y13965581D01*
X738574Y13970797D01*
X759809Y13973947D01*
X781250Y13975000D01*
X1218750Y13975000D01*
X1240191Y13973947D01*
X1240191Y13973947D01*
G37*
D14*
G04 #@! TD*
G04 #@! TO.P,R1,2*
G04 #@! TO.N,/SDA*
X1000000Y13500000D03*
D13*
G04 #@! TO.N,+3V3*
G04 #@! TO.C,R1*
G36*
X-334809Y13973947D02*
X-313574Y13970797D01*
X-292750Y13965581D01*
X-272538Y13958349D01*
X-253132Y13949170D01*
X-234719Y13938134D01*
X-217476Y13925346D01*
X-201570Y13910930D01*
X-187154Y13895024D01*
X-174366Y13877781D01*
X-163330Y13859368D01*
X-154151Y13839962D01*
X-146919Y13819750D01*
X-141703Y13798926D01*
X-138553Y13777691D01*
X-137500Y13756250D01*
X-137500Y13243750D01*
X-138553Y13222309D01*
X-141703Y13201074D01*
X-146919Y13180250D01*
X-154151Y13160038D01*
X-163330Y13140632D01*
X-174366Y13122219D01*
X-187154Y13104976D01*
X-201570Y13089070D01*
X-217476Y13074654D01*
X-234719Y13061866D01*
X-253132Y13050830D01*
X-272538Y13041651D01*
X-292750Y13034419D01*
X-313574Y13029203D01*
X-334809Y13026053D01*
X-356250Y13025000D01*
X-793750Y13025000D01*
X-815191Y13026053D01*
X-836426Y13029203D01*
X-857250Y13034419D01*
X-877462Y13041651D01*
X-896868Y13050830D01*
X-915281Y13061866D01*
X-932524Y13074654D01*
X-948430Y13089070D01*
X-962846Y13104976D01*
X-975634Y13122219D01*
X-986670Y13140632D01*
X-995849Y13160038D01*
X-1003081Y13180250D01*
X-1008297Y13201074D01*
X-1011447Y13222309D01*
X-1012500Y13243750D01*
X-1012500Y13756250D01*
X-1011447Y13777691D01*
X-1008297Y13798926D01*
X-1003081Y13819750D01*
X-995849Y13839962D01*
X-986670Y13859368D01*
X-975634Y13877781D01*
X-962846Y13895024D01*
X-948430Y13910930D01*
X-932524Y13925346D01*
X-915281Y13938134D01*
X-896868Y13949170D01*
X-877462Y13958349D01*
X-857250Y13965581D01*
X-836426Y13970797D01*
X-815191Y13973947D01*
X-793750Y13975000D01*
X-356250Y13975000D01*
X-334809Y13973947D01*
X-334809Y13973947D01*
G37*
D14*
G04 #@! TD*
G04 #@! TO.P,R1,1*
G04 #@! TO.N,+3V3*
X-575000Y13500000D03*
D13*
G04 #@! TO.N,+3V3*
G04 #@! TO.C,R2*
G36*
X-334809Y11973947D02*
X-313574Y11970797D01*
X-292750Y11965581D01*
X-272538Y11958349D01*
X-253132Y11949170D01*
X-234719Y11938134D01*
X-217476Y11925346D01*
X-201570Y11910930D01*
X-187154Y11895024D01*
X-174366Y11877781D01*
X-163330Y11859368D01*
X-154151Y11839962D01*
X-146919Y11819750D01*
X-141703Y11798926D01*
X-138553Y11777691D01*
X-137500Y11756250D01*
X-137500Y11243750D01*
X-138553Y11222309D01*
X-141703Y11201074D01*
X-146919Y11180250D01*
X-154151Y11160038D01*
X-163330Y11140632D01*
X-174366Y11122219D01*
X-187154Y11104976D01*
X-201570Y11089070D01*
X-217476Y11074654D01*
X-234719Y11061866D01*
X-253132Y11050830D01*
X-272538Y11041651D01*
X-292750Y11034419D01*
X-313574Y11029203D01*
X-334809Y11026053D01*
X-356250Y11025000D01*
X-793750Y11025000D01*
X-815191Y11026053D01*
X-836426Y11029203D01*
X-857250Y11034419D01*
X-877462Y11041651D01*
X-896868Y11050830D01*
X-915281Y11061866D01*
X-932524Y11074654D01*
X-948430Y11089070D01*
X-962846Y11104976D01*
X-975634Y11122219D01*
X-986670Y11140632D01*
X-995849Y11160038D01*
X-1003081Y11180250D01*
X-1008297Y11201074D01*
X-1011447Y11222309D01*
X-1012500Y11243750D01*
X-1012500Y11756250D01*
X-1011447Y11777691D01*
X-1008297Y11798926D01*
X-1003081Y11819750D01*
X-995849Y11839962D01*
X-986670Y11859368D01*
X-975634Y11877781D01*
X-962846Y11895024D01*
X-948430Y11910930D01*
X-932524Y11925346D01*
X-915281Y11938134D01*
X-896868Y11949170D01*
X-877462Y11958349D01*
X-857250Y11965581D01*
X-836426Y11970797D01*
X-815191Y11973947D01*
X-793750Y11975000D01*
X-356250Y11975000D01*
X-334809Y11973947D01*
X-334809Y11973947D01*
G37*
D14*
G04 #@! TD*
G04 #@! TO.P,R2,1*
G04 #@! TO.N,+3V3*
X-575000Y11500000D03*
D13*
G04 #@! TO.N,/SCL*
G04 #@! TO.C,R2*
G36*
X1240191Y11973947D02*
X1261426Y11970797D01*
X1282250Y11965581D01*
X1302462Y11958349D01*
X1321868Y11949170D01*
X1340281Y11938134D01*
X1357524Y11925346D01*
X1373430Y11910930D01*
X1387846Y11895024D01*
X1400634Y11877781D01*
X1411670Y11859368D01*
X1420849Y11839962D01*
X1428081Y11819750D01*
X1433297Y11798926D01*
X1436447Y11777691D01*
X1437500Y11756250D01*
X1437500Y11243750D01*
X1436447Y11222309D01*
X1433297Y11201074D01*
X1428081Y11180250D01*
X1420849Y11160038D01*
X1411670Y11140632D01*
X1400634Y11122219D01*
X1387846Y11104976D01*
X1373430Y11089070D01*
X1357524Y11074654D01*
X1340281Y11061866D01*
X1321868Y11050830D01*
X1302462Y11041651D01*
X1282250Y11034419D01*
X1261426Y11029203D01*
X1240191Y11026053D01*
X1218750Y11025000D01*
X781250Y11025000D01*
X759809Y11026053D01*
X738574Y11029203D01*
X717750Y11034419D01*
X697538Y11041651D01*
X678132Y11050830D01*
X659719Y11061866D01*
X642476Y11074654D01*
X626570Y11089070D01*
X612154Y11104976D01*
X599366Y11122219D01*
X588330Y11140632D01*
X579151Y11160038D01*
X571919Y11180250D01*
X566703Y11201074D01*
X563553Y11222309D01*
X562500Y11243750D01*
X562500Y11756250D01*
X563553Y11777691D01*
X566703Y11798926D01*
X571919Y11819750D01*
X579151Y11839962D01*
X588330Y11859368D01*
X599366Y11877781D01*
X612154Y11895024D01*
X626570Y11910930D01*
X642476Y11925346D01*
X659719Y11938134D01*
X678132Y11949170D01*
X697538Y11958349D01*
X717750Y11965581D01*
X738574Y11970797D01*
X759809Y11973947D01*
X781250Y11975000D01*
X1218750Y11975000D01*
X1240191Y11973947D01*
X1240191Y11973947D01*
G37*
D14*
G04 #@! TD*
G04 #@! TO.P,R2,2*
G04 #@! TO.N,/SCL*
X1000000Y11500000D03*
D15*
G04 #@! TO.P,U1,1*
G04 #@! TO.N,/GPIO_G2*
X4862500Y-1420000D03*
G04 #@! TO.P,U1,2*
G04 #@! TO.N,/GPIO_G5*
X4862500Y-2690000D03*
G04 #@! TO.P,U1,3*
G04 #@! TO.N,/IIS_SK*
X4862500Y-3960000D03*
G04 #@! TO.P,U1,4*
G04 #@! TO.N,/IIS_WS*
X4862500Y-5230000D03*
G04 #@! TO.P,U1,5*
G04 #@! TO.N,/IIS_OUT*
X4862500Y-6500000D03*
G04 #@! TO.P,U1,6*
G04 #@! TO.N,/IIS_MK*
X4862500Y-7770000D03*
G04 #@! TO.P,U1,7*
G04 #@! TO.N,/IIS_IN*
X4862500Y-9040000D03*
G04 #@! TO.P,U1,8*
G04 #@! TO.N,GND*
X4862500Y-10310000D03*
G04 #@! TO.P,U1,9*
G04 #@! TO.N,+5V*
X4862500Y-11580000D03*
G04 #@! TO.P,U1,18*
G04 #@! TO.N,/SSRCTRL_UPPER*
X-3862500Y-1420000D03*
G04 #@! TO.P,U1,17*
G04 #@! TO.N,/SSRCTRL_LOWER*
X-3862500Y-2690000D03*
G04 #@! TO.P,U1,16*
G04 #@! TO.N,/EXTERNAL0*
X-3862500Y-3960000D03*
G04 #@! TO.P,U1,15*
G04 #@! TO.N,/EXTERNAL1*
X-3862500Y-5230000D03*
G04 #@! TO.P,U1,14*
G04 #@! TO.N,/EXTERNAL2*
X-3862500Y-6500000D03*
G04 #@! TO.P,U1,13*
G04 #@! TO.N,/EXTERNAL3*
X-3862500Y-7770000D03*
G04 #@! TO.P,U1,12*
G04 #@! TO.N,/EXTERNAL4*
X-3862500Y-9040000D03*
G04 #@! TO.P,U1,11*
G04 #@! TO.N,Net-(U1-Pad11)*
X-3862500Y-10310000D03*
G04 #@! TO.P,U1,10*
G04 #@! TO.N,GND*
X-3862500Y-11580000D03*
G04 #@! TD*
D13*
G04 #@! TO.N,/SDA*
G04 #@! TO.C,U2*
G36*
X-9667649Y12949639D02*
X-9660368Y12948559D01*
X-9653229Y12946771D01*
X-9646299Y12944291D01*
X-9639645Y12941144D01*
X-9633332Y12937360D01*
X-9627421Y12932976D01*
X-9621967Y12928033D01*
X-9617024Y12922579D01*
X-9612640Y12916668D01*
X-9608856Y12910355D01*
X-9605709Y12903701D01*
X-9603229Y12896771D01*
X-9601441Y12889632D01*
X-9600361Y12882351D01*
X-9600000Y12875000D01*
X-9600000Y12725000D01*
X-9600361Y12717649D01*
X-9601441Y12710368D01*
X-9603229Y12703229D01*
X-9605709Y12696299D01*
X-9608856Y12689645D01*
X-9612640Y12683332D01*
X-9617024Y12677421D01*
X-9621967Y12671967D01*
X-9627421Y12667024D01*
X-9633332Y12662640D01*
X-9639645Y12658856D01*
X-9646299Y12655709D01*
X-9653229Y12653229D01*
X-9660368Y12651441D01*
X-9667649Y12650361D01*
X-9675000Y12650000D01*
X-10275000Y12650000D01*
X-10282351Y12650361D01*
X-10289632Y12651441D01*
X-10296771Y12653229D01*
X-10303701Y12655709D01*
X-10310355Y12658856D01*
X-10316668Y12662640D01*
X-10322579Y12667024D01*
X-10328033Y12671967D01*
X-10332976Y12677421D01*
X-10337360Y12683332D01*
X-10341144Y12689645D01*
X-10344291Y12696299D01*
X-10346771Y12703229D01*
X-10348559Y12710368D01*
X-10349639Y12717649D01*
X-10350000Y12725000D01*
X-10350000Y12875000D01*
X-10349639Y12882351D01*
X-10348559Y12889632D01*
X-10346771Y12896771D01*
X-10344291Y12903701D01*
X-10341144Y12910355D01*
X-10337360Y12916668D01*
X-10332976Y12922579D01*
X-10328033Y12928033D01*
X-10322579Y12932976D01*
X-10316668Y12937360D01*
X-10310355Y12941144D01*
X-10303701Y12944291D01*
X-10296771Y12946771D01*
X-10289632Y12948559D01*
X-10282351Y12949639D01*
X-10275000Y12950000D01*
X-9675000Y12950000D01*
X-9667649Y12949639D01*
X-9667649Y12949639D01*
G37*
D16*
G04 #@! TD*
G04 #@! TO.P,U2,20*
G04 #@! TO.N,/SDA*
X-9975000Y12800000D03*
D13*
G04 #@! TO.N,/SCL*
G04 #@! TO.C,U2*
G36*
X-9667649Y12299639D02*
X-9660368Y12298559D01*
X-9653229Y12296771D01*
X-9646299Y12294291D01*
X-9639645Y12291144D01*
X-9633332Y12287360D01*
X-9627421Y12282976D01*
X-9621967Y12278033D01*
X-9617024Y12272579D01*
X-9612640Y12266668D01*
X-9608856Y12260355D01*
X-9605709Y12253701D01*
X-9603229Y12246771D01*
X-9601441Y12239632D01*
X-9600361Y12232351D01*
X-9600000Y12225000D01*
X-9600000Y12075000D01*
X-9600361Y12067649D01*
X-9601441Y12060368D01*
X-9603229Y12053229D01*
X-9605709Y12046299D01*
X-9608856Y12039645D01*
X-9612640Y12033332D01*
X-9617024Y12027421D01*
X-9621967Y12021967D01*
X-9627421Y12017024D01*
X-9633332Y12012640D01*
X-9639645Y12008856D01*
X-9646299Y12005709D01*
X-9653229Y12003229D01*
X-9660368Y12001441D01*
X-9667649Y12000361D01*
X-9675000Y12000000D01*
X-10275000Y12000000D01*
X-10282351Y12000361D01*
X-10289632Y12001441D01*
X-10296771Y12003229D01*
X-10303701Y12005709D01*
X-10310355Y12008856D01*
X-10316668Y12012640D01*
X-10322579Y12017024D01*
X-10328033Y12021967D01*
X-10332976Y12027421D01*
X-10337360Y12033332D01*
X-10341144Y12039645D01*
X-10344291Y12046299D01*
X-10346771Y12053229D01*
X-10348559Y12060368D01*
X-10349639Y12067649D01*
X-10350000Y12075000D01*
X-10350000Y12225000D01*
X-10349639Y12232351D01*
X-10348559Y12239632D01*
X-10346771Y12246771D01*
X-10344291Y12253701D01*
X-10341144Y12260355D01*
X-10337360Y12266668D01*
X-10332976Y12272579D01*
X-10328033Y12278033D01*
X-10322579Y12282976D01*
X-10316668Y12287360D01*
X-10310355Y12291144D01*
X-10303701Y12294291D01*
X-10296771Y12296771D01*
X-10289632Y12298559D01*
X-10282351Y12299639D01*
X-10275000Y12300000D01*
X-9675000Y12300000D01*
X-9667649Y12299639D01*
X-9667649Y12299639D01*
G37*
D16*
G04 #@! TD*
G04 #@! TO.P,U2,19*
G04 #@! TO.N,/SCL*
X-9975000Y12150000D03*
D13*
G04 #@! TO.N,GND*
G04 #@! TO.C,U2*
G36*
X-9667649Y11649639D02*
X-9660368Y11648559D01*
X-9653229Y11646771D01*
X-9646299Y11644291D01*
X-9639645Y11641144D01*
X-9633332Y11637360D01*
X-9627421Y11632976D01*
X-9621967Y11628033D01*
X-9617024Y11622579D01*
X-9612640Y11616668D01*
X-9608856Y11610355D01*
X-9605709Y11603701D01*
X-9603229Y11596771D01*
X-9601441Y11589632D01*
X-9600361Y11582351D01*
X-9600000Y11575000D01*
X-9600000Y11425000D01*
X-9600361Y11417649D01*
X-9601441Y11410368D01*
X-9603229Y11403229D01*
X-9605709Y11396299D01*
X-9608856Y11389645D01*
X-9612640Y11383332D01*
X-9617024Y11377421D01*
X-9621967Y11371967D01*
X-9627421Y11367024D01*
X-9633332Y11362640D01*
X-9639645Y11358856D01*
X-9646299Y11355709D01*
X-9653229Y11353229D01*
X-9660368Y11351441D01*
X-9667649Y11350361D01*
X-9675000Y11350000D01*
X-10275000Y11350000D01*
X-10282351Y11350361D01*
X-10289632Y11351441D01*
X-10296771Y11353229D01*
X-10303701Y11355709D01*
X-10310355Y11358856D01*
X-10316668Y11362640D01*
X-10322579Y11367024D01*
X-10328033Y11371967D01*
X-10332976Y11377421D01*
X-10337360Y11383332D01*
X-10341144Y11389645D01*
X-10344291Y11396299D01*
X-10346771Y11403229D01*
X-10348559Y11410368D01*
X-10349639Y11417649D01*
X-10350000Y11425000D01*
X-10350000Y11575000D01*
X-10349639Y11582351D01*
X-10348559Y11589632D01*
X-10346771Y11596771D01*
X-10344291Y11603701D01*
X-10341144Y11610355D01*
X-10337360Y11616668D01*
X-10332976Y11622579D01*
X-10328033Y11628033D01*
X-10322579Y11632976D01*
X-10316668Y11637360D01*
X-10310355Y11641144D01*
X-10303701Y11644291D01*
X-10296771Y11646771D01*
X-10289632Y11648559D01*
X-10282351Y11649639D01*
X-10275000Y11650000D01*
X-9675000Y11650000D01*
X-9667649Y11649639D01*
X-9667649Y11649639D01*
G37*
D16*
G04 #@! TD*
G04 #@! TO.P,U2,18*
G04 #@! TO.N,GND*
X-9975000Y11500000D03*
D13*
G04 #@! TO.N,GND*
G04 #@! TO.C,U2*
G36*
X-9667649Y10999639D02*
X-9660368Y10998559D01*
X-9653229Y10996771D01*
X-9646299Y10994291D01*
X-9639645Y10991144D01*
X-9633332Y10987360D01*
X-9627421Y10982976D01*
X-9621967Y10978033D01*
X-9617024Y10972579D01*
X-9612640Y10966668D01*
X-9608856Y10960355D01*
X-9605709Y10953701D01*
X-9603229Y10946771D01*
X-9601441Y10939632D01*
X-9600361Y10932351D01*
X-9600000Y10925000D01*
X-9600000Y10775000D01*
X-9600361Y10767649D01*
X-9601441Y10760368D01*
X-9603229Y10753229D01*
X-9605709Y10746299D01*
X-9608856Y10739645D01*
X-9612640Y10733332D01*
X-9617024Y10727421D01*
X-9621967Y10721967D01*
X-9627421Y10717024D01*
X-9633332Y10712640D01*
X-9639645Y10708856D01*
X-9646299Y10705709D01*
X-9653229Y10703229D01*
X-9660368Y10701441D01*
X-9667649Y10700361D01*
X-9675000Y10700000D01*
X-10275000Y10700000D01*
X-10282351Y10700361D01*
X-10289632Y10701441D01*
X-10296771Y10703229D01*
X-10303701Y10705709D01*
X-10310355Y10708856D01*
X-10316668Y10712640D01*
X-10322579Y10717024D01*
X-10328033Y10721967D01*
X-10332976Y10727421D01*
X-10337360Y10733332D01*
X-10341144Y10739645D01*
X-10344291Y10746299D01*
X-10346771Y10753229D01*
X-10348559Y10760368D01*
X-10349639Y10767649D01*
X-10350000Y10775000D01*
X-10350000Y10925000D01*
X-10349639Y10932351D01*
X-10348559Y10939632D01*
X-10346771Y10946771D01*
X-10344291Y10953701D01*
X-10341144Y10960355D01*
X-10337360Y10966668D01*
X-10332976Y10972579D01*
X-10328033Y10978033D01*
X-10322579Y10982976D01*
X-10316668Y10987360D01*
X-10310355Y10991144D01*
X-10303701Y10994291D01*
X-10296771Y10996771D01*
X-10289632Y10998559D01*
X-10282351Y10999639D01*
X-10275000Y11000000D01*
X-9675000Y11000000D01*
X-9667649Y10999639D01*
X-9667649Y10999639D01*
G37*
D16*
G04 #@! TD*
G04 #@! TO.P,U2,17*
G04 #@! TO.N,GND*
X-9975000Y10850000D03*
D13*
G04 #@! TO.N,+3V3*
G04 #@! TO.C,U2*
G36*
X-9667649Y10349639D02*
X-9660368Y10348559D01*
X-9653229Y10346771D01*
X-9646299Y10344291D01*
X-9639645Y10341144D01*
X-9633332Y10337360D01*
X-9627421Y10332976D01*
X-9621967Y10328033D01*
X-9617024Y10322579D01*
X-9612640Y10316668D01*
X-9608856Y10310355D01*
X-9605709Y10303701D01*
X-9603229Y10296771D01*
X-9601441Y10289632D01*
X-9600361Y10282351D01*
X-9600000Y10275000D01*
X-9600000Y10125000D01*
X-9600361Y10117649D01*
X-9601441Y10110368D01*
X-9603229Y10103229D01*
X-9605709Y10096299D01*
X-9608856Y10089645D01*
X-9612640Y10083332D01*
X-9617024Y10077421D01*
X-9621967Y10071967D01*
X-9627421Y10067024D01*
X-9633332Y10062640D01*
X-9639645Y10058856D01*
X-9646299Y10055709D01*
X-9653229Y10053229D01*
X-9660368Y10051441D01*
X-9667649Y10050361D01*
X-9675000Y10050000D01*
X-10275000Y10050000D01*
X-10282351Y10050361D01*
X-10289632Y10051441D01*
X-10296771Y10053229D01*
X-10303701Y10055709D01*
X-10310355Y10058856D01*
X-10316668Y10062640D01*
X-10322579Y10067024D01*
X-10328033Y10071967D01*
X-10332976Y10077421D01*
X-10337360Y10083332D01*
X-10341144Y10089645D01*
X-10344291Y10096299D01*
X-10346771Y10103229D01*
X-10348559Y10110368D01*
X-10349639Y10117649D01*
X-10350000Y10125000D01*
X-10350000Y10275000D01*
X-10349639Y10282351D01*
X-10348559Y10289632D01*
X-10346771Y10296771D01*
X-10344291Y10303701D01*
X-10341144Y10310355D01*
X-10337360Y10316668D01*
X-10332976Y10322579D01*
X-10328033Y10328033D01*
X-10322579Y10332976D01*
X-10316668Y10337360D01*
X-10310355Y10341144D01*
X-10303701Y10344291D01*
X-10296771Y10346771D01*
X-10289632Y10348559D01*
X-10282351Y10349639D01*
X-10275000Y10350000D01*
X-9675000Y10350000D01*
X-9667649Y10349639D01*
X-9667649Y10349639D01*
G37*
D16*
G04 #@! TD*
G04 #@! TO.P,U2,16*
G04 #@! TO.N,+3V3*
X-9975000Y10200000D03*
D13*
G04 #@! TO.N,Net-(U2-Pad15)*
G04 #@! TO.C,U2*
G36*
X-8717649Y9399639D02*
X-8710368Y9398559D01*
X-8703229Y9396771D01*
X-8696299Y9394291D01*
X-8689645Y9391144D01*
X-8683332Y9387360D01*
X-8677421Y9382976D01*
X-8671967Y9378033D01*
X-8667024Y9372579D01*
X-8662640Y9366668D01*
X-8658856Y9360355D01*
X-8655709Y9353701D01*
X-8653229Y9346771D01*
X-8651441Y9339632D01*
X-8650361Y9332351D01*
X-8650000Y9325000D01*
X-8650000Y8725000D01*
X-8650361Y8717649D01*
X-8651441Y8710368D01*
X-8653229Y8703229D01*
X-8655709Y8696299D01*
X-8658856Y8689645D01*
X-8662640Y8683332D01*
X-8667024Y8677421D01*
X-8671967Y8671967D01*
X-8677421Y8667024D01*
X-8683332Y8662640D01*
X-8689645Y8658856D01*
X-8696299Y8655709D01*
X-8703229Y8653229D01*
X-8710368Y8651441D01*
X-8717649Y8650361D01*
X-8725000Y8650000D01*
X-8875000Y8650000D01*
X-8882351Y8650361D01*
X-8889632Y8651441D01*
X-8896771Y8653229D01*
X-8903701Y8655709D01*
X-8910355Y8658856D01*
X-8916668Y8662640D01*
X-8922579Y8667024D01*
X-8928033Y8671967D01*
X-8932976Y8677421D01*
X-8937360Y8683332D01*
X-8941144Y8689645D01*
X-8944291Y8696299D01*
X-8946771Y8703229D01*
X-8948559Y8710368D01*
X-8949639Y8717649D01*
X-8950000Y8725000D01*
X-8950000Y9325000D01*
X-8949639Y9332351D01*
X-8948559Y9339632D01*
X-8946771Y9346771D01*
X-8944291Y9353701D01*
X-8941144Y9360355D01*
X-8937360Y9366668D01*
X-8932976Y9372579D01*
X-8928033Y9378033D01*
X-8922579Y9382976D01*
X-8916668Y9387360D01*
X-8910355Y9391144D01*
X-8903701Y9394291D01*
X-8896771Y9396771D01*
X-8889632Y9398559D01*
X-8882351Y9399639D01*
X-8875000Y9400000D01*
X-8725000Y9400000D01*
X-8717649Y9399639D01*
X-8717649Y9399639D01*
G37*
D16*
G04 #@! TD*
G04 #@! TO.P,U2,15*
G04 #@! TO.N,Net-(U2-Pad15)*
X-8800000Y9025000D03*
D13*
G04 #@! TO.N,Net-(U2-Pad14)*
G04 #@! TO.C,U2*
G36*
X-8067649Y9399639D02*
X-8060368Y9398559D01*
X-8053229Y9396771D01*
X-8046299Y9394291D01*
X-8039645Y9391144D01*
X-8033332Y9387360D01*
X-8027421Y9382976D01*
X-8021967Y9378033D01*
X-8017024Y9372579D01*
X-8012640Y9366668D01*
X-8008856Y9360355D01*
X-8005709Y9353701D01*
X-8003229Y9346771D01*
X-8001441Y9339632D01*
X-8000361Y9332351D01*
X-8000000Y9325000D01*
X-8000000Y8725000D01*
X-8000361Y8717649D01*
X-8001441Y8710368D01*
X-8003229Y8703229D01*
X-8005709Y8696299D01*
X-8008856Y8689645D01*
X-8012640Y8683332D01*
X-8017024Y8677421D01*
X-8021967Y8671967D01*
X-8027421Y8667024D01*
X-8033332Y8662640D01*
X-8039645Y8658856D01*
X-8046299Y8655709D01*
X-8053229Y8653229D01*
X-8060368Y8651441D01*
X-8067649Y8650361D01*
X-8075000Y8650000D01*
X-8225000Y8650000D01*
X-8232351Y8650361D01*
X-8239632Y8651441D01*
X-8246771Y8653229D01*
X-8253701Y8655709D01*
X-8260355Y8658856D01*
X-8266668Y8662640D01*
X-8272579Y8667024D01*
X-8278033Y8671967D01*
X-8282976Y8677421D01*
X-8287360Y8683332D01*
X-8291144Y8689645D01*
X-8294291Y8696299D01*
X-8296771Y8703229D01*
X-8298559Y8710368D01*
X-8299639Y8717649D01*
X-8300000Y8725000D01*
X-8300000Y9325000D01*
X-8299639Y9332351D01*
X-8298559Y9339632D01*
X-8296771Y9346771D01*
X-8294291Y9353701D01*
X-8291144Y9360355D01*
X-8287360Y9366668D01*
X-8282976Y9372579D01*
X-8278033Y9378033D01*
X-8272579Y9382976D01*
X-8266668Y9387360D01*
X-8260355Y9391144D01*
X-8253701Y9394291D01*
X-8246771Y9396771D01*
X-8239632Y9398559D01*
X-8232351Y9399639D01*
X-8225000Y9400000D01*
X-8075000Y9400000D01*
X-8067649Y9399639D01*
X-8067649Y9399639D01*
G37*
D16*
G04 #@! TD*
G04 #@! TO.P,U2,14*
G04 #@! TO.N,Net-(U2-Pad14)*
X-8150000Y9025000D03*
D13*
G04 #@! TO.N,GND*
G04 #@! TO.C,U2*
G36*
X-7417649Y9399639D02*
X-7410368Y9398559D01*
X-7403229Y9396771D01*
X-7396299Y9394291D01*
X-7389645Y9391144D01*
X-7383332Y9387360D01*
X-7377421Y9382976D01*
X-7371967Y9378033D01*
X-7367024Y9372579D01*
X-7362640Y9366668D01*
X-7358856Y9360355D01*
X-7355709Y9353701D01*
X-7353229Y9346771D01*
X-7351441Y9339632D01*
X-7350361Y9332351D01*
X-7350000Y9325000D01*
X-7350000Y8725000D01*
X-7350361Y8717649D01*
X-7351441Y8710368D01*
X-7353229Y8703229D01*
X-7355709Y8696299D01*
X-7358856Y8689645D01*
X-7362640Y8683332D01*
X-7367024Y8677421D01*
X-7371967Y8671967D01*
X-7377421Y8667024D01*
X-7383332Y8662640D01*
X-7389645Y8658856D01*
X-7396299Y8655709D01*
X-7403229Y8653229D01*
X-7410368Y8651441D01*
X-7417649Y8650361D01*
X-7425000Y8650000D01*
X-7575000Y8650000D01*
X-7582351Y8650361D01*
X-7589632Y8651441D01*
X-7596771Y8653229D01*
X-7603701Y8655709D01*
X-7610355Y8658856D01*
X-7616668Y8662640D01*
X-7622579Y8667024D01*
X-7628033Y8671967D01*
X-7632976Y8677421D01*
X-7637360Y8683332D01*
X-7641144Y8689645D01*
X-7644291Y8696299D01*
X-7646771Y8703229D01*
X-7648559Y8710368D01*
X-7649639Y8717649D01*
X-7650000Y8725000D01*
X-7650000Y9325000D01*
X-7649639Y9332351D01*
X-7648559Y9339632D01*
X-7646771Y9346771D01*
X-7644291Y9353701D01*
X-7641144Y9360355D01*
X-7637360Y9366668D01*
X-7632976Y9372579D01*
X-7628033Y9378033D01*
X-7622579Y9382976D01*
X-7616668Y9387360D01*
X-7610355Y9391144D01*
X-7603701Y9394291D01*
X-7596771Y9396771D01*
X-7589632Y9398559D01*
X-7582351Y9399639D01*
X-7575000Y9400000D01*
X-7425000Y9400000D01*
X-7417649Y9399639D01*
X-7417649Y9399639D01*
G37*
D16*
G04 #@! TD*
G04 #@! TO.P,U2,13*
G04 #@! TO.N,GND*
X-7500000Y9025000D03*
D13*
G04 #@! TO.N,Net-(U2-Pad12)*
G04 #@! TO.C,U2*
G36*
X-6767649Y9399639D02*
X-6760368Y9398559D01*
X-6753229Y9396771D01*
X-6746299Y9394291D01*
X-6739645Y9391144D01*
X-6733332Y9387360D01*
X-6727421Y9382976D01*
X-6721967Y9378033D01*
X-6717024Y9372579D01*
X-6712640Y9366668D01*
X-6708856Y9360355D01*
X-6705709Y9353701D01*
X-6703229Y9346771D01*
X-6701441Y9339632D01*
X-6700361Y9332351D01*
X-6700000Y9325000D01*
X-6700000Y8725000D01*
X-6700361Y8717649D01*
X-6701441Y8710368D01*
X-6703229Y8703229D01*
X-6705709Y8696299D01*
X-6708856Y8689645D01*
X-6712640Y8683332D01*
X-6717024Y8677421D01*
X-6721967Y8671967D01*
X-6727421Y8667024D01*
X-6733332Y8662640D01*
X-6739645Y8658856D01*
X-6746299Y8655709D01*
X-6753229Y8653229D01*
X-6760368Y8651441D01*
X-6767649Y8650361D01*
X-6775000Y8650000D01*
X-6925000Y8650000D01*
X-6932351Y8650361D01*
X-6939632Y8651441D01*
X-6946771Y8653229D01*
X-6953701Y8655709D01*
X-6960355Y8658856D01*
X-6966668Y8662640D01*
X-6972579Y8667024D01*
X-6978033Y8671967D01*
X-6982976Y8677421D01*
X-6987360Y8683332D01*
X-6991144Y8689645D01*
X-6994291Y8696299D01*
X-6996771Y8703229D01*
X-6998559Y8710368D01*
X-6999639Y8717649D01*
X-7000000Y8725000D01*
X-7000000Y9325000D01*
X-6999639Y9332351D01*
X-6998559Y9339632D01*
X-6996771Y9346771D01*
X-6994291Y9353701D01*
X-6991144Y9360355D01*
X-6987360Y9366668D01*
X-6982976Y9372579D01*
X-6978033Y9378033D01*
X-6972579Y9382976D01*
X-6966668Y9387360D01*
X-6960355Y9391144D01*
X-6953701Y9394291D01*
X-6946771Y9396771D01*
X-6939632Y9398559D01*
X-6932351Y9399639D01*
X-6925000Y9400000D01*
X-6775000Y9400000D01*
X-6767649Y9399639D01*
X-6767649Y9399639D01*
G37*
D16*
G04 #@! TD*
G04 #@! TO.P,U2,12*
G04 #@! TO.N,Net-(U2-Pad12)*
X-6850000Y9025000D03*
D13*
G04 #@! TO.N,Net-(U2-Pad11)*
G04 #@! TO.C,U2*
G36*
X-6117649Y9399639D02*
X-6110368Y9398559D01*
X-6103229Y9396771D01*
X-6096299Y9394291D01*
X-6089645Y9391144D01*
X-6083332Y9387360D01*
X-6077421Y9382976D01*
X-6071967Y9378033D01*
X-6067024Y9372579D01*
X-6062640Y9366668D01*
X-6058856Y9360355D01*
X-6055709Y9353701D01*
X-6053229Y9346771D01*
X-6051441Y9339632D01*
X-6050361Y9332351D01*
X-6050000Y9325000D01*
X-6050000Y8725000D01*
X-6050361Y8717649D01*
X-6051441Y8710368D01*
X-6053229Y8703229D01*
X-6055709Y8696299D01*
X-6058856Y8689645D01*
X-6062640Y8683332D01*
X-6067024Y8677421D01*
X-6071967Y8671967D01*
X-6077421Y8667024D01*
X-6083332Y8662640D01*
X-6089645Y8658856D01*
X-6096299Y8655709D01*
X-6103229Y8653229D01*
X-6110368Y8651441D01*
X-6117649Y8650361D01*
X-6125000Y8650000D01*
X-6275000Y8650000D01*
X-6282351Y8650361D01*
X-6289632Y8651441D01*
X-6296771Y8653229D01*
X-6303701Y8655709D01*
X-6310355Y8658856D01*
X-6316668Y8662640D01*
X-6322579Y8667024D01*
X-6328033Y8671967D01*
X-6332976Y8677421D01*
X-6337360Y8683332D01*
X-6341144Y8689645D01*
X-6344291Y8696299D01*
X-6346771Y8703229D01*
X-6348559Y8710368D01*
X-6349639Y8717649D01*
X-6350000Y8725000D01*
X-6350000Y9325000D01*
X-6349639Y9332351D01*
X-6348559Y9339632D01*
X-6346771Y9346771D01*
X-6344291Y9353701D01*
X-6341144Y9360355D01*
X-6337360Y9366668D01*
X-6332976Y9372579D01*
X-6328033Y9378033D01*
X-6322579Y9382976D01*
X-6316668Y9387360D01*
X-6310355Y9391144D01*
X-6303701Y9394291D01*
X-6296771Y9396771D01*
X-6289632Y9398559D01*
X-6282351Y9399639D01*
X-6275000Y9400000D01*
X-6125000Y9400000D01*
X-6117649Y9399639D01*
X-6117649Y9399639D01*
G37*
D16*
G04 #@! TD*
G04 #@! TO.P,U2,11*
G04 #@! TO.N,Net-(U2-Pad11)*
X-6200000Y9025000D03*
D13*
G04 #@! TO.N,GND*
G04 #@! TO.C,U2*
G36*
X-4717649Y10349639D02*
X-4710368Y10348559D01*
X-4703229Y10346771D01*
X-4696299Y10344291D01*
X-4689645Y10341144D01*
X-4683332Y10337360D01*
X-4677421Y10332976D01*
X-4671967Y10328033D01*
X-4667024Y10322579D01*
X-4662640Y10316668D01*
X-4658856Y10310355D01*
X-4655709Y10303701D01*
X-4653229Y10296771D01*
X-4651441Y10289632D01*
X-4650361Y10282351D01*
X-4650000Y10275000D01*
X-4650000Y10125000D01*
X-4650361Y10117649D01*
X-4651441Y10110368D01*
X-4653229Y10103229D01*
X-4655709Y10096299D01*
X-4658856Y10089645D01*
X-4662640Y10083332D01*
X-4667024Y10077421D01*
X-4671967Y10071967D01*
X-4677421Y10067024D01*
X-4683332Y10062640D01*
X-4689645Y10058856D01*
X-4696299Y10055709D01*
X-4703229Y10053229D01*
X-4710368Y10051441D01*
X-4717649Y10050361D01*
X-4725000Y10050000D01*
X-5325000Y10050000D01*
X-5332351Y10050361D01*
X-5339632Y10051441D01*
X-5346771Y10053229D01*
X-5353701Y10055709D01*
X-5360355Y10058856D01*
X-5366668Y10062640D01*
X-5372579Y10067024D01*
X-5378033Y10071967D01*
X-5382976Y10077421D01*
X-5387360Y10083332D01*
X-5391144Y10089645D01*
X-5394291Y10096299D01*
X-5396771Y10103229D01*
X-5398559Y10110368D01*
X-5399639Y10117649D01*
X-5400000Y10125000D01*
X-5400000Y10275000D01*
X-5399639Y10282351D01*
X-5398559Y10289632D01*
X-5396771Y10296771D01*
X-5394291Y10303701D01*
X-5391144Y10310355D01*
X-5387360Y10316668D01*
X-5382976Y10322579D01*
X-5378033Y10328033D01*
X-5372579Y10332976D01*
X-5366668Y10337360D01*
X-5360355Y10341144D01*
X-5353701Y10344291D01*
X-5346771Y10346771D01*
X-5339632Y10348559D01*
X-5332351Y10349639D01*
X-5325000Y10350000D01*
X-4725000Y10350000D01*
X-4717649Y10349639D01*
X-4717649Y10349639D01*
G37*
D16*
G04 #@! TD*
G04 #@! TO.P,U2,10*
G04 #@! TO.N,GND*
X-5025000Y10200000D03*
D13*
G04 #@! TO.N,GND*
G04 #@! TO.C,U2*
G36*
X-4717649Y10999639D02*
X-4710368Y10998559D01*
X-4703229Y10996771D01*
X-4696299Y10994291D01*
X-4689645Y10991144D01*
X-4683332Y10987360D01*
X-4677421Y10982976D01*
X-4671967Y10978033D01*
X-4667024Y10972579D01*
X-4662640Y10966668D01*
X-4658856Y10960355D01*
X-4655709Y10953701D01*
X-4653229Y10946771D01*
X-4651441Y10939632D01*
X-4650361Y10932351D01*
X-4650000Y10925000D01*
X-4650000Y10775000D01*
X-4650361Y10767649D01*
X-4651441Y10760368D01*
X-4653229Y10753229D01*
X-4655709Y10746299D01*
X-4658856Y10739645D01*
X-4662640Y10733332D01*
X-4667024Y10727421D01*
X-4671967Y10721967D01*
X-4677421Y10717024D01*
X-4683332Y10712640D01*
X-4689645Y10708856D01*
X-4696299Y10705709D01*
X-4703229Y10703229D01*
X-4710368Y10701441D01*
X-4717649Y10700361D01*
X-4725000Y10700000D01*
X-5325000Y10700000D01*
X-5332351Y10700361D01*
X-5339632Y10701441D01*
X-5346771Y10703229D01*
X-5353701Y10705709D01*
X-5360355Y10708856D01*
X-5366668Y10712640D01*
X-5372579Y10717024D01*
X-5378033Y10721967D01*
X-5382976Y10727421D01*
X-5387360Y10733332D01*
X-5391144Y10739645D01*
X-5394291Y10746299D01*
X-5396771Y10753229D01*
X-5398559Y10760368D01*
X-5399639Y10767649D01*
X-5400000Y10775000D01*
X-5400000Y10925000D01*
X-5399639Y10932351D01*
X-5398559Y10939632D01*
X-5396771Y10946771D01*
X-5394291Y10953701D01*
X-5391144Y10960355D01*
X-5387360Y10966668D01*
X-5382976Y10972579D01*
X-5378033Y10978033D01*
X-5372579Y10982976D01*
X-5366668Y10987360D01*
X-5360355Y10991144D01*
X-5353701Y10994291D01*
X-5346771Y10996771D01*
X-5339632Y10998559D01*
X-5332351Y10999639D01*
X-5325000Y11000000D01*
X-4725000Y11000000D01*
X-4717649Y10999639D01*
X-4717649Y10999639D01*
G37*
D16*
G04 #@! TD*
G04 #@! TO.P,U2,9*
G04 #@! TO.N,GND*
X-5025000Y10850000D03*
D13*
G04 #@! TO.N,+3V3*
G04 #@! TO.C,U2*
G36*
X-4717649Y11649639D02*
X-4710368Y11648559D01*
X-4703229Y11646771D01*
X-4696299Y11644291D01*
X-4689645Y11641144D01*
X-4683332Y11637360D01*
X-4677421Y11632976D01*
X-4671967Y11628033D01*
X-4667024Y11622579D01*
X-4662640Y11616668D01*
X-4658856Y11610355D01*
X-4655709Y11603701D01*
X-4653229Y11596771D01*
X-4651441Y11589632D01*
X-4650361Y11582351D01*
X-4650000Y11575000D01*
X-4650000Y11425000D01*
X-4650361Y11417649D01*
X-4651441Y11410368D01*
X-4653229Y11403229D01*
X-4655709Y11396299D01*
X-4658856Y11389645D01*
X-4662640Y11383332D01*
X-4667024Y11377421D01*
X-4671967Y11371967D01*
X-4677421Y11367024D01*
X-4683332Y11362640D01*
X-4689645Y11358856D01*
X-4696299Y11355709D01*
X-4703229Y11353229D01*
X-4710368Y11351441D01*
X-4717649Y11350361D01*
X-4725000Y11350000D01*
X-5325000Y11350000D01*
X-5332351Y11350361D01*
X-5339632Y11351441D01*
X-5346771Y11353229D01*
X-5353701Y11355709D01*
X-5360355Y11358856D01*
X-5366668Y11362640D01*
X-5372579Y11367024D01*
X-5378033Y11371967D01*
X-5382976Y11377421D01*
X-5387360Y11383332D01*
X-5391144Y11389645D01*
X-5394291Y11396299D01*
X-5396771Y11403229D01*
X-5398559Y11410368D01*
X-5399639Y11417649D01*
X-5400000Y11425000D01*
X-5400000Y11575000D01*
X-5399639Y11582351D01*
X-5398559Y11589632D01*
X-5396771Y11596771D01*
X-5394291Y11603701D01*
X-5391144Y11610355D01*
X-5387360Y11616668D01*
X-5382976Y11622579D01*
X-5378033Y11628033D01*
X-5372579Y11632976D01*
X-5366668Y11637360D01*
X-5360355Y11641144D01*
X-5353701Y11644291D01*
X-5346771Y11646771D01*
X-5339632Y11648559D01*
X-5332351Y11649639D01*
X-5325000Y11650000D01*
X-4725000Y11650000D01*
X-4717649Y11649639D01*
X-4717649Y11649639D01*
G37*
D16*
G04 #@! TD*
G04 #@! TO.P,U2,8*
G04 #@! TO.N,+3V3*
X-5025000Y11500000D03*
D13*
G04 #@! TO.N,GND*
G04 #@! TO.C,U2*
G36*
X-4717649Y12299639D02*
X-4710368Y12298559D01*
X-4703229Y12296771D01*
X-4696299Y12294291D01*
X-4689645Y12291144D01*
X-4683332Y12287360D01*
X-4677421Y12282976D01*
X-4671967Y12278033D01*
X-4667024Y12272579D01*
X-4662640Y12266668D01*
X-4658856Y12260355D01*
X-4655709Y12253701D01*
X-4653229Y12246771D01*
X-4651441Y12239632D01*
X-4650361Y12232351D01*
X-4650000Y12225000D01*
X-4650000Y12075000D01*
X-4650361Y12067649D01*
X-4651441Y12060368D01*
X-4653229Y12053229D01*
X-4655709Y12046299D01*
X-4658856Y12039645D01*
X-4662640Y12033332D01*
X-4667024Y12027421D01*
X-4671967Y12021967D01*
X-4677421Y12017024D01*
X-4683332Y12012640D01*
X-4689645Y12008856D01*
X-4696299Y12005709D01*
X-4703229Y12003229D01*
X-4710368Y12001441D01*
X-4717649Y12000361D01*
X-4725000Y12000000D01*
X-5325000Y12000000D01*
X-5332351Y12000361D01*
X-5339632Y12001441D01*
X-5346771Y12003229D01*
X-5353701Y12005709D01*
X-5360355Y12008856D01*
X-5366668Y12012640D01*
X-5372579Y12017024D01*
X-5378033Y12021967D01*
X-5382976Y12027421D01*
X-5387360Y12033332D01*
X-5391144Y12039645D01*
X-5394291Y12046299D01*
X-5396771Y12053229D01*
X-5398559Y12060368D01*
X-5399639Y12067649D01*
X-5400000Y12075000D01*
X-5400000Y12225000D01*
X-5399639Y12232351D01*
X-5398559Y12239632D01*
X-5396771Y12246771D01*
X-5394291Y12253701D01*
X-5391144Y12260355D01*
X-5387360Y12266668D01*
X-5382976Y12272579D01*
X-5378033Y12278033D01*
X-5372579Y12282976D01*
X-5366668Y12287360D01*
X-5360355Y12291144D01*
X-5353701Y12294291D01*
X-5346771Y12296771D01*
X-5339632Y12298559D01*
X-5332351Y12299639D01*
X-5325000Y12300000D01*
X-4725000Y12300000D01*
X-4717649Y12299639D01*
X-4717649Y12299639D01*
G37*
D16*
G04 #@! TD*
G04 #@! TO.P,U2,7*
G04 #@! TO.N,GND*
X-5025000Y12150000D03*
D13*
G04 #@! TO.N,GND*
G04 #@! TO.C,U2*
G36*
X-4717649Y12949639D02*
X-4710368Y12948559D01*
X-4703229Y12946771D01*
X-4696299Y12944291D01*
X-4689645Y12941144D01*
X-4683332Y12937360D01*
X-4677421Y12932976D01*
X-4671967Y12928033D01*
X-4667024Y12922579D01*
X-4662640Y12916668D01*
X-4658856Y12910355D01*
X-4655709Y12903701D01*
X-4653229Y12896771D01*
X-4651441Y12889632D01*
X-4650361Y12882351D01*
X-4650000Y12875000D01*
X-4650000Y12725000D01*
X-4650361Y12717649D01*
X-4651441Y12710368D01*
X-4653229Y12703229D01*
X-4655709Y12696299D01*
X-4658856Y12689645D01*
X-4662640Y12683332D01*
X-4667024Y12677421D01*
X-4671967Y12671967D01*
X-4677421Y12667024D01*
X-4683332Y12662640D01*
X-4689645Y12658856D01*
X-4696299Y12655709D01*
X-4703229Y12653229D01*
X-4710368Y12651441D01*
X-4717649Y12650361D01*
X-4725000Y12650000D01*
X-5325000Y12650000D01*
X-5332351Y12650361D01*
X-5339632Y12651441D01*
X-5346771Y12653229D01*
X-5353701Y12655709D01*
X-5360355Y12658856D01*
X-5366668Y12662640D01*
X-5372579Y12667024D01*
X-5378033Y12671967D01*
X-5382976Y12677421D01*
X-5387360Y12683332D01*
X-5391144Y12689645D01*
X-5394291Y12696299D01*
X-5396771Y12703229D01*
X-5398559Y12710368D01*
X-5399639Y12717649D01*
X-5400000Y12725000D01*
X-5400000Y12875000D01*
X-5399639Y12882351D01*
X-5398559Y12889632D01*
X-5396771Y12896771D01*
X-5394291Y12903701D01*
X-5391144Y12910355D01*
X-5387360Y12916668D01*
X-5382976Y12922579D01*
X-5378033Y12928033D01*
X-5372579Y12932976D01*
X-5366668Y12937360D01*
X-5360355Y12941144D01*
X-5353701Y12944291D01*
X-5346771Y12946771D01*
X-5339632Y12948559D01*
X-5332351Y12949639D01*
X-5325000Y12950000D01*
X-4725000Y12950000D01*
X-4717649Y12949639D01*
X-4717649Y12949639D01*
G37*
D16*
G04 #@! TD*
G04 #@! TO.P,U2,6*
G04 #@! TO.N,GND*
X-5025000Y12800000D03*
D13*
G04 #@! TO.N,GND*
G04 #@! TO.C,U2*
G36*
X-6117649Y14349639D02*
X-6110368Y14348559D01*
X-6103229Y14346771D01*
X-6096299Y14344291D01*
X-6089645Y14341144D01*
X-6083332Y14337360D01*
X-6077421Y14332976D01*
X-6071967Y14328033D01*
X-6067024Y14322579D01*
X-6062640Y14316668D01*
X-6058856Y14310355D01*
X-6055709Y14303701D01*
X-6053229Y14296771D01*
X-6051441Y14289632D01*
X-6050361Y14282351D01*
X-6050000Y14275000D01*
X-6050000Y13675000D01*
X-6050361Y13667649D01*
X-6051441Y13660368D01*
X-6053229Y13653229D01*
X-6055709Y13646299D01*
X-6058856Y13639645D01*
X-6062640Y13633332D01*
X-6067024Y13627421D01*
X-6071967Y13621967D01*
X-6077421Y13617024D01*
X-6083332Y13612640D01*
X-6089645Y13608856D01*
X-6096299Y13605709D01*
X-6103229Y13603229D01*
X-6110368Y13601441D01*
X-6117649Y13600361D01*
X-6125000Y13600000D01*
X-6275000Y13600000D01*
X-6282351Y13600361D01*
X-6289632Y13601441D01*
X-6296771Y13603229D01*
X-6303701Y13605709D01*
X-6310355Y13608856D01*
X-6316668Y13612640D01*
X-6322579Y13617024D01*
X-6328033Y13621967D01*
X-6332976Y13627421D01*
X-6337360Y13633332D01*
X-6341144Y13639645D01*
X-6344291Y13646299D01*
X-6346771Y13653229D01*
X-6348559Y13660368D01*
X-6349639Y13667649D01*
X-6350000Y13675000D01*
X-6350000Y14275000D01*
X-6349639Y14282351D01*
X-6348559Y14289632D01*
X-6346771Y14296771D01*
X-6344291Y14303701D01*
X-6341144Y14310355D01*
X-6337360Y14316668D01*
X-6332976Y14322579D01*
X-6328033Y14328033D01*
X-6322579Y14332976D01*
X-6316668Y14337360D01*
X-6310355Y14341144D01*
X-6303701Y14344291D01*
X-6296771Y14346771D01*
X-6289632Y14348559D01*
X-6282351Y14349639D01*
X-6275000Y14350000D01*
X-6125000Y14350000D01*
X-6117649Y14349639D01*
X-6117649Y14349639D01*
G37*
D16*
G04 #@! TD*
G04 #@! TO.P,U2,5*
G04 #@! TO.N,GND*
X-6200000Y13975000D03*
D13*
G04 #@! TO.N,Net-(J5-Pad2)*
G04 #@! TO.C,U2*
G36*
X-6767649Y14349639D02*
X-6760368Y14348559D01*
X-6753229Y14346771D01*
X-6746299Y14344291D01*
X-6739645Y14341144D01*
X-6733332Y14337360D01*
X-6727421Y14332976D01*
X-6721967Y14328033D01*
X-6717024Y14322579D01*
X-6712640Y14316668D01*
X-6708856Y14310355D01*
X-6705709Y14303701D01*
X-6703229Y14296771D01*
X-6701441Y14289632D01*
X-6700361Y14282351D01*
X-6700000Y14275000D01*
X-6700000Y13675000D01*
X-6700361Y13667649D01*
X-6701441Y13660368D01*
X-6703229Y13653229D01*
X-6705709Y13646299D01*
X-6708856Y13639645D01*
X-6712640Y13633332D01*
X-6717024Y13627421D01*
X-6721967Y13621967D01*
X-6727421Y13617024D01*
X-6733332Y13612640D01*
X-6739645Y13608856D01*
X-6746299Y13605709D01*
X-6753229Y13603229D01*
X-6760368Y13601441D01*
X-6767649Y13600361D01*
X-6775000Y13600000D01*
X-6925000Y13600000D01*
X-6932351Y13600361D01*
X-6939632Y13601441D01*
X-6946771Y13603229D01*
X-6953701Y13605709D01*
X-6960355Y13608856D01*
X-6966668Y13612640D01*
X-6972579Y13617024D01*
X-6978033Y13621967D01*
X-6982976Y13627421D01*
X-6987360Y13633332D01*
X-6991144Y13639645D01*
X-6994291Y13646299D01*
X-6996771Y13653229D01*
X-6998559Y13660368D01*
X-6999639Y13667649D01*
X-7000000Y13675000D01*
X-7000000Y14275000D01*
X-6999639Y14282351D01*
X-6998559Y14289632D01*
X-6996771Y14296771D01*
X-6994291Y14303701D01*
X-6991144Y14310355D01*
X-6987360Y14316668D01*
X-6982976Y14322579D01*
X-6978033Y14328033D01*
X-6972579Y14332976D01*
X-6966668Y14337360D01*
X-6960355Y14341144D01*
X-6953701Y14344291D01*
X-6946771Y14346771D01*
X-6939632Y14348559D01*
X-6932351Y14349639D01*
X-6925000Y14350000D01*
X-6775000Y14350000D01*
X-6767649Y14349639D01*
X-6767649Y14349639D01*
G37*
D16*
G04 #@! TD*
G04 #@! TO.P,U2,4*
G04 #@! TO.N,Net-(J5-Pad2)*
X-6850000Y13975000D03*
D13*
G04 #@! TO.N,GND*
G04 #@! TO.C,U2*
G36*
X-7417649Y14349639D02*
X-7410368Y14348559D01*
X-7403229Y14346771D01*
X-7396299Y14344291D01*
X-7389645Y14341144D01*
X-7383332Y14337360D01*
X-7377421Y14332976D01*
X-7371967Y14328033D01*
X-7367024Y14322579D01*
X-7362640Y14316668D01*
X-7358856Y14310355D01*
X-7355709Y14303701D01*
X-7353229Y14296771D01*
X-7351441Y14289632D01*
X-7350361Y14282351D01*
X-7350000Y14275000D01*
X-7350000Y13675000D01*
X-7350361Y13667649D01*
X-7351441Y13660368D01*
X-7353229Y13653229D01*
X-7355709Y13646299D01*
X-7358856Y13639645D01*
X-7362640Y13633332D01*
X-7367024Y13627421D01*
X-7371967Y13621967D01*
X-7377421Y13617024D01*
X-7383332Y13612640D01*
X-7389645Y13608856D01*
X-7396299Y13605709D01*
X-7403229Y13603229D01*
X-7410368Y13601441D01*
X-7417649Y13600361D01*
X-7425000Y13600000D01*
X-7575000Y13600000D01*
X-7582351Y13600361D01*
X-7589632Y13601441D01*
X-7596771Y13603229D01*
X-7603701Y13605709D01*
X-7610355Y13608856D01*
X-7616668Y13612640D01*
X-7622579Y13617024D01*
X-7628033Y13621967D01*
X-7632976Y13627421D01*
X-7637360Y13633332D01*
X-7641144Y13639645D01*
X-7644291Y13646299D01*
X-7646771Y13653229D01*
X-7648559Y13660368D01*
X-7649639Y13667649D01*
X-7650000Y13675000D01*
X-7650000Y14275000D01*
X-7649639Y14282351D01*
X-7648559Y14289632D01*
X-7646771Y14296771D01*
X-7644291Y14303701D01*
X-7641144Y14310355D01*
X-7637360Y14316668D01*
X-7632976Y14322579D01*
X-7628033Y14328033D01*
X-7622579Y14332976D01*
X-7616668Y14337360D01*
X-7610355Y14341144D01*
X-7603701Y14344291D01*
X-7596771Y14346771D01*
X-7589632Y14348559D01*
X-7582351Y14349639D01*
X-7575000Y14350000D01*
X-7425000Y14350000D01*
X-7417649Y14349639D01*
X-7417649Y14349639D01*
G37*
D16*
G04 #@! TD*
G04 #@! TO.P,U2,3*
G04 #@! TO.N,GND*
X-7500000Y13975000D03*
D13*
G04 #@! TO.N,Net-(J5-Pad1)*
G04 #@! TO.C,U2*
G36*
X-8067649Y14349639D02*
X-8060368Y14348559D01*
X-8053229Y14346771D01*
X-8046299Y14344291D01*
X-8039645Y14341144D01*
X-8033332Y14337360D01*
X-8027421Y14332976D01*
X-8021967Y14328033D01*
X-8017024Y14322579D01*
X-8012640Y14316668D01*
X-8008856Y14310355D01*
X-8005709Y14303701D01*
X-8003229Y14296771D01*
X-8001441Y14289632D01*
X-8000361Y14282351D01*
X-8000000Y14275000D01*
X-8000000Y13675000D01*
X-8000361Y13667649D01*
X-8001441Y13660368D01*
X-8003229Y13653229D01*
X-8005709Y13646299D01*
X-8008856Y13639645D01*
X-8012640Y13633332D01*
X-8017024Y13627421D01*
X-8021967Y13621967D01*
X-8027421Y13617024D01*
X-8033332Y13612640D01*
X-8039645Y13608856D01*
X-8046299Y13605709D01*
X-8053229Y13603229D01*
X-8060368Y13601441D01*
X-8067649Y13600361D01*
X-8075000Y13600000D01*
X-8225000Y13600000D01*
X-8232351Y13600361D01*
X-8239632Y13601441D01*
X-8246771Y13603229D01*
X-8253701Y13605709D01*
X-8260355Y13608856D01*
X-8266668Y13612640D01*
X-8272579Y13617024D01*
X-8278033Y13621967D01*
X-8282976Y13627421D01*
X-8287360Y13633332D01*
X-8291144Y13639645D01*
X-8294291Y13646299D01*
X-8296771Y13653229D01*
X-8298559Y13660368D01*
X-8299639Y13667649D01*
X-8300000Y13675000D01*
X-8300000Y14275000D01*
X-8299639Y14282351D01*
X-8298559Y14289632D01*
X-8296771Y14296771D01*
X-8294291Y14303701D01*
X-8291144Y14310355D01*
X-8287360Y14316668D01*
X-8282976Y14322579D01*
X-8278033Y14328033D01*
X-8272579Y14332976D01*
X-8266668Y14337360D01*
X-8260355Y14341144D01*
X-8253701Y14344291D01*
X-8246771Y14346771D01*
X-8239632Y14348559D01*
X-8232351Y14349639D01*
X-8225000Y14350000D01*
X-8075000Y14350000D01*
X-8067649Y14349639D01*
X-8067649Y14349639D01*
G37*
D16*
G04 #@! TD*
G04 #@! TO.P,U2,2*
G04 #@! TO.N,Net-(J5-Pad1)*
X-8150000Y13975000D03*
D13*
G04 #@! TO.N,GND*
G04 #@! TO.C,U2*
G36*
X-8717649Y14349639D02*
X-8710368Y14348559D01*
X-8703229Y14346771D01*
X-8696299Y14344291D01*
X-8689645Y14341144D01*
X-8683332Y14337360D01*
X-8677421Y14332976D01*
X-8671967Y14328033D01*
X-8667024Y14322579D01*
X-8662640Y14316668D01*
X-8658856Y14310355D01*
X-8655709Y14303701D01*
X-8653229Y14296771D01*
X-8651441Y14289632D01*
X-8650361Y14282351D01*
X-8650000Y14275000D01*
X-8650000Y13675000D01*
X-8650361Y13667649D01*
X-8651441Y13660368D01*
X-8653229Y13653229D01*
X-8655709Y13646299D01*
X-8658856Y13639645D01*
X-8662640Y13633332D01*
X-8667024Y13627421D01*
X-8671967Y13621967D01*
X-8677421Y13617024D01*
X-8683332Y13612640D01*
X-8689645Y13608856D01*
X-8696299Y13605709D01*
X-8703229Y13603229D01*
X-8710368Y13601441D01*
X-8717649Y13600361D01*
X-8725000Y13600000D01*
X-8875000Y13600000D01*
X-8882351Y13600361D01*
X-8889632Y13601441D01*
X-8896771Y13603229D01*
X-8903701Y13605709D01*
X-8910355Y13608856D01*
X-8916668Y13612640D01*
X-8922579Y13617024D01*
X-8928033Y13621967D01*
X-8932976Y13627421D01*
X-8937360Y13633332D01*
X-8941144Y13639645D01*
X-8944291Y13646299D01*
X-8946771Y13653229D01*
X-8948559Y13660368D01*
X-8949639Y13667649D01*
X-8950000Y13675000D01*
X-8950000Y14275000D01*
X-8949639Y14282351D01*
X-8948559Y14289632D01*
X-8946771Y14296771D01*
X-8944291Y14303701D01*
X-8941144Y14310355D01*
X-8937360Y14316668D01*
X-8932976Y14322579D01*
X-8928033Y14328033D01*
X-8922579Y14332976D01*
X-8916668Y14337360D01*
X-8910355Y14341144D01*
X-8903701Y14344291D01*
X-8896771Y14346771D01*
X-8889632Y14348559D01*
X-8882351Y14349639D01*
X-8875000Y14350000D01*
X-8725000Y14350000D01*
X-8717649Y14349639D01*
X-8717649Y14349639D01*
G37*
D16*
G04 #@! TD*
G04 #@! TO.P,U2,1*
G04 #@! TO.N,GND*
X-8800000Y13975000D03*
D13*
G04 #@! TO.N,GND*
G04 #@! TO.C,U2*
G36*
X-6050496Y13173796D02*
X-6026227Y13170196D01*
X-6002429Y13164235D01*
X-5979329Y13155970D01*
X-5957151Y13145480D01*
X-5936107Y13132867D01*
X-5916402Y13118253D01*
X-5898223Y13101777D01*
X-5881747Y13083598D01*
X-5867133Y13063893D01*
X-5854520Y13042849D01*
X-5844030Y13020671D01*
X-5835765Y12997571D01*
X-5829804Y12973773D01*
X-5826204Y12949504D01*
X-5825000Y12925000D01*
X-5825000Y10075000D01*
X-5826204Y10050496D01*
X-5829804Y10026227D01*
X-5835765Y10002429D01*
X-5844030Y9979329D01*
X-5854520Y9957151D01*
X-5867133Y9936107D01*
X-5881747Y9916402D01*
X-5898223Y9898223D01*
X-5916402Y9881747D01*
X-5936107Y9867133D01*
X-5957151Y9854520D01*
X-5979329Y9844030D01*
X-6002429Y9835765D01*
X-6026227Y9829804D01*
X-6050496Y9826204D01*
X-6075000Y9825000D01*
X-8925000Y9825000D01*
X-8949504Y9826204D01*
X-8973773Y9829804D01*
X-8997571Y9835765D01*
X-9020671Y9844030D01*
X-9042849Y9854520D01*
X-9063893Y9867133D01*
X-9083598Y9881747D01*
X-9101777Y9898223D01*
X-9118253Y9916402D01*
X-9132867Y9936107D01*
X-9145480Y9957151D01*
X-9155970Y9979329D01*
X-9164235Y10002429D01*
X-9170196Y10026227D01*
X-9173796Y10050496D01*
X-9175000Y10075000D01*
X-9175000Y12925000D01*
X-9173796Y12949504D01*
X-9170196Y12973773D01*
X-9164235Y12997571D01*
X-9155970Y13020671D01*
X-9145480Y13042849D01*
X-9132867Y13063893D01*
X-9118253Y13083598D01*
X-9101777Y13101777D01*
X-9083598Y13118253D01*
X-9063893Y13132867D01*
X-9042849Y13145480D01*
X-9020671Y13155970D01*
X-8997571Y13164235D01*
X-8973773Y13170196D01*
X-8949504Y13173796D01*
X-8925000Y13175000D01*
X-6075000Y13175000D01*
X-6050496Y13173796D01*
X-6050496Y13173796D01*
G37*
D17*
G04 #@! TD*
G04 #@! TO.P,U2,21*
G04 #@! TO.N,GND*
X-7500000Y11500000D03*
D13*
G04 #@! TO.N,GND*
G04 #@! TO.C,U3*
G36*
X8949504Y13173796D02*
X8973773Y13170196D01*
X8997571Y13164235D01*
X9020671Y13155970D01*
X9042849Y13145480D01*
X9063893Y13132867D01*
X9083598Y13118253D01*
X9101777Y13101777D01*
X9118253Y13083598D01*
X9132867Y13063893D01*
X9145480Y13042849D01*
X9155970Y13020671D01*
X9164235Y12997571D01*
X9170196Y12973773D01*
X9173796Y12949504D01*
X9175000Y12925000D01*
X9175000Y10075000D01*
X9173796Y10050496D01*
X9170196Y10026227D01*
X9164235Y10002429D01*
X9155970Y9979329D01*
X9145480Y9957151D01*
X9132867Y9936107D01*
X9118253Y9916402D01*
X9101777Y9898223D01*
X9083598Y9881747D01*
X9063893Y9867133D01*
X9042849Y9854520D01*
X9020671Y9844030D01*
X8997571Y9835765D01*
X8973773Y9829804D01*
X8949504Y9826204D01*
X8925000Y9825000D01*
X6075000Y9825000D01*
X6050496Y9826204D01*
X6026227Y9829804D01*
X6002429Y9835765D01*
X5979329Y9844030D01*
X5957151Y9854520D01*
X5936107Y9867133D01*
X5916402Y9881747D01*
X5898223Y9898223D01*
X5881747Y9916402D01*
X5867133Y9936107D01*
X5854520Y9957151D01*
X5844030Y9979329D01*
X5835765Y10002429D01*
X5829804Y10026227D01*
X5826204Y10050496D01*
X5825000Y10075000D01*
X5825000Y12925000D01*
X5826204Y12949504D01*
X5829804Y12973773D01*
X5835765Y12997571D01*
X5844030Y13020671D01*
X5854520Y13042849D01*
X5867133Y13063893D01*
X5881747Y13083598D01*
X5898223Y13101777D01*
X5916402Y13118253D01*
X5936107Y13132867D01*
X5957151Y13145480D01*
X5979329Y13155970D01*
X6002429Y13164235D01*
X6026227Y13170196D01*
X6050496Y13173796D01*
X6075000Y13175000D01*
X8925000Y13175000D01*
X8949504Y13173796D01*
X8949504Y13173796D01*
G37*
D17*
G04 #@! TD*
G04 #@! TO.P,U3,21*
G04 #@! TO.N,GND*
X7500000Y11500000D03*
D13*
G04 #@! TO.N,GND*
G04 #@! TO.C,U3*
G36*
X6282351Y14349639D02*
X6289632Y14348559D01*
X6296771Y14346771D01*
X6303701Y14344291D01*
X6310355Y14341144D01*
X6316668Y14337360D01*
X6322579Y14332976D01*
X6328033Y14328033D01*
X6332976Y14322579D01*
X6337360Y14316668D01*
X6341144Y14310355D01*
X6344291Y14303701D01*
X6346771Y14296771D01*
X6348559Y14289632D01*
X6349639Y14282351D01*
X6350000Y14275000D01*
X6350000Y13675000D01*
X6349639Y13667649D01*
X6348559Y13660368D01*
X6346771Y13653229D01*
X6344291Y13646299D01*
X6341144Y13639645D01*
X6337360Y13633332D01*
X6332976Y13627421D01*
X6328033Y13621967D01*
X6322579Y13617024D01*
X6316668Y13612640D01*
X6310355Y13608856D01*
X6303701Y13605709D01*
X6296771Y13603229D01*
X6289632Y13601441D01*
X6282351Y13600361D01*
X6275000Y13600000D01*
X6125000Y13600000D01*
X6117649Y13600361D01*
X6110368Y13601441D01*
X6103229Y13603229D01*
X6096299Y13605709D01*
X6089645Y13608856D01*
X6083332Y13612640D01*
X6077421Y13617024D01*
X6071967Y13621967D01*
X6067024Y13627421D01*
X6062640Y13633332D01*
X6058856Y13639645D01*
X6055709Y13646299D01*
X6053229Y13653229D01*
X6051441Y13660368D01*
X6050361Y13667649D01*
X6050000Y13675000D01*
X6050000Y14275000D01*
X6050361Y14282351D01*
X6051441Y14289632D01*
X6053229Y14296771D01*
X6055709Y14303701D01*
X6058856Y14310355D01*
X6062640Y14316668D01*
X6067024Y14322579D01*
X6071967Y14328033D01*
X6077421Y14332976D01*
X6083332Y14337360D01*
X6089645Y14341144D01*
X6096299Y14344291D01*
X6103229Y14346771D01*
X6110368Y14348559D01*
X6117649Y14349639D01*
X6125000Y14350000D01*
X6275000Y14350000D01*
X6282351Y14349639D01*
X6282351Y14349639D01*
G37*
D16*
G04 #@! TD*
G04 #@! TO.P,U3,1*
G04 #@! TO.N,GND*
X6200000Y13975000D03*
D13*
G04 #@! TO.N,Net-(J6-Pad1)*
G04 #@! TO.C,U3*
G36*
X6932351Y14349639D02*
X6939632Y14348559D01*
X6946771Y14346771D01*
X6953701Y14344291D01*
X6960355Y14341144D01*
X6966668Y14337360D01*
X6972579Y14332976D01*
X6978033Y14328033D01*
X6982976Y14322579D01*
X6987360Y14316668D01*
X6991144Y14310355D01*
X6994291Y14303701D01*
X6996771Y14296771D01*
X6998559Y14289632D01*
X6999639Y14282351D01*
X7000000Y14275000D01*
X7000000Y13675000D01*
X6999639Y13667649D01*
X6998559Y13660368D01*
X6996771Y13653229D01*
X6994291Y13646299D01*
X6991144Y13639645D01*
X6987360Y13633332D01*
X6982976Y13627421D01*
X6978033Y13621967D01*
X6972579Y13617024D01*
X6966668Y13612640D01*
X6960355Y13608856D01*
X6953701Y13605709D01*
X6946771Y13603229D01*
X6939632Y13601441D01*
X6932351Y13600361D01*
X6925000Y13600000D01*
X6775000Y13600000D01*
X6767649Y13600361D01*
X6760368Y13601441D01*
X6753229Y13603229D01*
X6746299Y13605709D01*
X6739645Y13608856D01*
X6733332Y13612640D01*
X6727421Y13617024D01*
X6721967Y13621967D01*
X6717024Y13627421D01*
X6712640Y13633332D01*
X6708856Y13639645D01*
X6705709Y13646299D01*
X6703229Y13653229D01*
X6701441Y13660368D01*
X6700361Y13667649D01*
X6700000Y13675000D01*
X6700000Y14275000D01*
X6700361Y14282351D01*
X6701441Y14289632D01*
X6703229Y14296771D01*
X6705709Y14303701D01*
X6708856Y14310355D01*
X6712640Y14316668D01*
X6717024Y14322579D01*
X6721967Y14328033D01*
X6727421Y14332976D01*
X6733332Y14337360D01*
X6739645Y14341144D01*
X6746299Y14344291D01*
X6753229Y14346771D01*
X6760368Y14348559D01*
X6767649Y14349639D01*
X6775000Y14350000D01*
X6925000Y14350000D01*
X6932351Y14349639D01*
X6932351Y14349639D01*
G37*
D16*
G04 #@! TD*
G04 #@! TO.P,U3,2*
G04 #@! TO.N,Net-(J6-Pad1)*
X6850000Y13975000D03*
D13*
G04 #@! TO.N,GND*
G04 #@! TO.C,U3*
G36*
X7582351Y14349639D02*
X7589632Y14348559D01*
X7596771Y14346771D01*
X7603701Y14344291D01*
X7610355Y14341144D01*
X7616668Y14337360D01*
X7622579Y14332976D01*
X7628033Y14328033D01*
X7632976Y14322579D01*
X7637360Y14316668D01*
X7641144Y14310355D01*
X7644291Y14303701D01*
X7646771Y14296771D01*
X7648559Y14289632D01*
X7649639Y14282351D01*
X7650000Y14275000D01*
X7650000Y13675000D01*
X7649639Y13667649D01*
X7648559Y13660368D01*
X7646771Y13653229D01*
X7644291Y13646299D01*
X7641144Y13639645D01*
X7637360Y13633332D01*
X7632976Y13627421D01*
X7628033Y13621967D01*
X7622579Y13617024D01*
X7616668Y13612640D01*
X7610355Y13608856D01*
X7603701Y13605709D01*
X7596771Y13603229D01*
X7589632Y13601441D01*
X7582351Y13600361D01*
X7575000Y13600000D01*
X7425000Y13600000D01*
X7417649Y13600361D01*
X7410368Y13601441D01*
X7403229Y13603229D01*
X7396299Y13605709D01*
X7389645Y13608856D01*
X7383332Y13612640D01*
X7377421Y13617024D01*
X7371967Y13621967D01*
X7367024Y13627421D01*
X7362640Y13633332D01*
X7358856Y13639645D01*
X7355709Y13646299D01*
X7353229Y13653229D01*
X7351441Y13660368D01*
X7350361Y13667649D01*
X7350000Y13675000D01*
X7350000Y14275000D01*
X7350361Y14282351D01*
X7351441Y14289632D01*
X7353229Y14296771D01*
X7355709Y14303701D01*
X7358856Y14310355D01*
X7362640Y14316668D01*
X7367024Y14322579D01*
X7371967Y14328033D01*
X7377421Y14332976D01*
X7383332Y14337360D01*
X7389645Y14341144D01*
X7396299Y14344291D01*
X7403229Y14346771D01*
X7410368Y14348559D01*
X7417649Y14349639D01*
X7425000Y14350000D01*
X7575000Y14350000D01*
X7582351Y14349639D01*
X7582351Y14349639D01*
G37*
D16*
G04 #@! TD*
G04 #@! TO.P,U3,3*
G04 #@! TO.N,GND*
X7500000Y13975000D03*
D13*
G04 #@! TO.N,Net-(J6-Pad2)*
G04 #@! TO.C,U3*
G36*
X8232351Y14349639D02*
X8239632Y14348559D01*
X8246771Y14346771D01*
X8253701Y14344291D01*
X8260355Y14341144D01*
X8266668Y14337360D01*
X8272579Y14332976D01*
X8278033Y14328033D01*
X8282976Y14322579D01*
X8287360Y14316668D01*
X8291144Y14310355D01*
X8294291Y14303701D01*
X8296771Y14296771D01*
X8298559Y14289632D01*
X8299639Y14282351D01*
X8300000Y14275000D01*
X8300000Y13675000D01*
X8299639Y13667649D01*
X8298559Y13660368D01*
X8296771Y13653229D01*
X8294291Y13646299D01*
X8291144Y13639645D01*
X8287360Y13633332D01*
X8282976Y13627421D01*
X8278033Y13621967D01*
X8272579Y13617024D01*
X8266668Y13612640D01*
X8260355Y13608856D01*
X8253701Y13605709D01*
X8246771Y13603229D01*
X8239632Y13601441D01*
X8232351Y13600361D01*
X8225000Y13600000D01*
X8075000Y13600000D01*
X8067649Y13600361D01*
X8060368Y13601441D01*
X8053229Y13603229D01*
X8046299Y13605709D01*
X8039645Y13608856D01*
X8033332Y13612640D01*
X8027421Y13617024D01*
X8021967Y13621967D01*
X8017024Y13627421D01*
X8012640Y13633332D01*
X8008856Y13639645D01*
X8005709Y13646299D01*
X8003229Y13653229D01*
X8001441Y13660368D01*
X8000361Y13667649D01*
X8000000Y13675000D01*
X8000000Y14275000D01*
X8000361Y14282351D01*
X8001441Y14289632D01*
X8003229Y14296771D01*
X8005709Y14303701D01*
X8008856Y14310355D01*
X8012640Y14316668D01*
X8017024Y14322579D01*
X8021967Y14328033D01*
X8027421Y14332976D01*
X8033332Y14337360D01*
X8039645Y14341144D01*
X8046299Y14344291D01*
X8053229Y14346771D01*
X8060368Y14348559D01*
X8067649Y14349639D01*
X8075000Y14350000D01*
X8225000Y14350000D01*
X8232351Y14349639D01*
X8232351Y14349639D01*
G37*
D16*
G04 #@! TD*
G04 #@! TO.P,U3,4*
G04 #@! TO.N,Net-(J6-Pad2)*
X8150000Y13975000D03*
D13*
G04 #@! TO.N,GND*
G04 #@! TO.C,U3*
G36*
X8882351Y14349639D02*
X8889632Y14348559D01*
X8896771Y14346771D01*
X8903701Y14344291D01*
X8910355Y14341144D01*
X8916668Y14337360D01*
X8922579Y14332976D01*
X8928033Y14328033D01*
X8932976Y14322579D01*
X8937360Y14316668D01*
X8941144Y14310355D01*
X8944291Y14303701D01*
X8946771Y14296771D01*
X8948559Y14289632D01*
X8949639Y14282351D01*
X8950000Y14275000D01*
X8950000Y13675000D01*
X8949639Y13667649D01*
X8948559Y13660368D01*
X8946771Y13653229D01*
X8944291Y13646299D01*
X8941144Y13639645D01*
X8937360Y13633332D01*
X8932976Y13627421D01*
X8928033Y13621967D01*
X8922579Y13617024D01*
X8916668Y13612640D01*
X8910355Y13608856D01*
X8903701Y13605709D01*
X8896771Y13603229D01*
X8889632Y13601441D01*
X8882351Y13600361D01*
X8875000Y13600000D01*
X8725000Y13600000D01*
X8717649Y13600361D01*
X8710368Y13601441D01*
X8703229Y13603229D01*
X8696299Y13605709D01*
X8689645Y13608856D01*
X8683332Y13612640D01*
X8677421Y13617024D01*
X8671967Y13621967D01*
X8667024Y13627421D01*
X8662640Y13633332D01*
X8658856Y13639645D01*
X8655709Y13646299D01*
X8653229Y13653229D01*
X8651441Y13660368D01*
X8650361Y13667649D01*
X8650000Y13675000D01*
X8650000Y14275000D01*
X8650361Y14282351D01*
X8651441Y14289632D01*
X8653229Y14296771D01*
X8655709Y14303701D01*
X8658856Y14310355D01*
X8662640Y14316668D01*
X8667024Y14322579D01*
X8671967Y14328033D01*
X8677421Y14332976D01*
X8683332Y14337360D01*
X8689645Y14341144D01*
X8696299Y14344291D01*
X8703229Y14346771D01*
X8710368Y14348559D01*
X8717649Y14349639D01*
X8725000Y14350000D01*
X8875000Y14350000D01*
X8882351Y14349639D01*
X8882351Y14349639D01*
G37*
D16*
G04 #@! TD*
G04 #@! TO.P,U3,5*
G04 #@! TO.N,GND*
X8800000Y13975000D03*
D13*
G04 #@! TO.N,GND*
G04 #@! TO.C,U3*
G36*
X10282351Y12949639D02*
X10289632Y12948559D01*
X10296771Y12946771D01*
X10303701Y12944291D01*
X10310355Y12941144D01*
X10316668Y12937360D01*
X10322579Y12932976D01*
X10328033Y12928033D01*
X10332976Y12922579D01*
X10337360Y12916668D01*
X10341144Y12910355D01*
X10344291Y12903701D01*
X10346771Y12896771D01*
X10348559Y12889632D01*
X10349639Y12882351D01*
X10350000Y12875000D01*
X10350000Y12725000D01*
X10349639Y12717649D01*
X10348559Y12710368D01*
X10346771Y12703229D01*
X10344291Y12696299D01*
X10341144Y12689645D01*
X10337360Y12683332D01*
X10332976Y12677421D01*
X10328033Y12671967D01*
X10322579Y12667024D01*
X10316668Y12662640D01*
X10310355Y12658856D01*
X10303701Y12655709D01*
X10296771Y12653229D01*
X10289632Y12651441D01*
X10282351Y12650361D01*
X10275000Y12650000D01*
X9675000Y12650000D01*
X9667649Y12650361D01*
X9660368Y12651441D01*
X9653229Y12653229D01*
X9646299Y12655709D01*
X9639645Y12658856D01*
X9633332Y12662640D01*
X9627421Y12667024D01*
X9621967Y12671967D01*
X9617024Y12677421D01*
X9612640Y12683332D01*
X9608856Y12689645D01*
X9605709Y12696299D01*
X9603229Y12703229D01*
X9601441Y12710368D01*
X9600361Y12717649D01*
X9600000Y12725000D01*
X9600000Y12875000D01*
X9600361Y12882351D01*
X9601441Y12889632D01*
X9603229Y12896771D01*
X9605709Y12903701D01*
X9608856Y12910355D01*
X9612640Y12916668D01*
X9617024Y12922579D01*
X9621967Y12928033D01*
X9627421Y12932976D01*
X9633332Y12937360D01*
X9639645Y12941144D01*
X9646299Y12944291D01*
X9653229Y12946771D01*
X9660368Y12948559D01*
X9667649Y12949639D01*
X9675000Y12950000D01*
X10275000Y12950000D01*
X10282351Y12949639D01*
X10282351Y12949639D01*
G37*
D16*
G04 #@! TD*
G04 #@! TO.P,U3,6*
G04 #@! TO.N,GND*
X9975000Y12800000D03*
D13*
G04 #@! TO.N,GND*
G04 #@! TO.C,U3*
G36*
X10282351Y12299639D02*
X10289632Y12298559D01*
X10296771Y12296771D01*
X10303701Y12294291D01*
X10310355Y12291144D01*
X10316668Y12287360D01*
X10322579Y12282976D01*
X10328033Y12278033D01*
X10332976Y12272579D01*
X10337360Y12266668D01*
X10341144Y12260355D01*
X10344291Y12253701D01*
X10346771Y12246771D01*
X10348559Y12239632D01*
X10349639Y12232351D01*
X10350000Y12225000D01*
X10350000Y12075000D01*
X10349639Y12067649D01*
X10348559Y12060368D01*
X10346771Y12053229D01*
X10344291Y12046299D01*
X10341144Y12039645D01*
X10337360Y12033332D01*
X10332976Y12027421D01*
X10328033Y12021967D01*
X10322579Y12017024D01*
X10316668Y12012640D01*
X10310355Y12008856D01*
X10303701Y12005709D01*
X10296771Y12003229D01*
X10289632Y12001441D01*
X10282351Y12000361D01*
X10275000Y12000000D01*
X9675000Y12000000D01*
X9667649Y12000361D01*
X9660368Y12001441D01*
X9653229Y12003229D01*
X9646299Y12005709D01*
X9639645Y12008856D01*
X9633332Y12012640D01*
X9627421Y12017024D01*
X9621967Y12021967D01*
X9617024Y12027421D01*
X9612640Y12033332D01*
X9608856Y12039645D01*
X9605709Y12046299D01*
X9603229Y12053229D01*
X9601441Y12060368D01*
X9600361Y12067649D01*
X9600000Y12075000D01*
X9600000Y12225000D01*
X9600361Y12232351D01*
X9601441Y12239632D01*
X9603229Y12246771D01*
X9605709Y12253701D01*
X9608856Y12260355D01*
X9612640Y12266668D01*
X9617024Y12272579D01*
X9621967Y12278033D01*
X9627421Y12282976D01*
X9633332Y12287360D01*
X9639645Y12291144D01*
X9646299Y12294291D01*
X9653229Y12296771D01*
X9660368Y12298559D01*
X9667649Y12299639D01*
X9675000Y12300000D01*
X10275000Y12300000D01*
X10282351Y12299639D01*
X10282351Y12299639D01*
G37*
D16*
G04 #@! TD*
G04 #@! TO.P,U3,7*
G04 #@! TO.N,GND*
X9975000Y12150000D03*
D13*
G04 #@! TO.N,+3V3*
G04 #@! TO.C,U3*
G36*
X10282351Y11649639D02*
X10289632Y11648559D01*
X10296771Y11646771D01*
X10303701Y11644291D01*
X10310355Y11641144D01*
X10316668Y11637360D01*
X10322579Y11632976D01*
X10328033Y11628033D01*
X10332976Y11622579D01*
X10337360Y11616668D01*
X10341144Y11610355D01*
X10344291Y11603701D01*
X10346771Y11596771D01*
X10348559Y11589632D01*
X10349639Y11582351D01*
X10350000Y11575000D01*
X10350000Y11425000D01*
X10349639Y11417649D01*
X10348559Y11410368D01*
X10346771Y11403229D01*
X10344291Y11396299D01*
X10341144Y11389645D01*
X10337360Y11383332D01*
X10332976Y11377421D01*
X10328033Y11371967D01*
X10322579Y11367024D01*
X10316668Y11362640D01*
X10310355Y11358856D01*
X10303701Y11355709D01*
X10296771Y11353229D01*
X10289632Y11351441D01*
X10282351Y11350361D01*
X10275000Y11350000D01*
X9675000Y11350000D01*
X9667649Y11350361D01*
X9660368Y11351441D01*
X9653229Y11353229D01*
X9646299Y11355709D01*
X9639645Y11358856D01*
X9633332Y11362640D01*
X9627421Y11367024D01*
X9621967Y11371967D01*
X9617024Y11377421D01*
X9612640Y11383332D01*
X9608856Y11389645D01*
X9605709Y11396299D01*
X9603229Y11403229D01*
X9601441Y11410368D01*
X9600361Y11417649D01*
X9600000Y11425000D01*
X9600000Y11575000D01*
X9600361Y11582351D01*
X9601441Y11589632D01*
X9603229Y11596771D01*
X9605709Y11603701D01*
X9608856Y11610355D01*
X9612640Y11616668D01*
X9617024Y11622579D01*
X9621967Y11628033D01*
X9627421Y11632976D01*
X9633332Y11637360D01*
X9639645Y11641144D01*
X9646299Y11644291D01*
X9653229Y11646771D01*
X9660368Y11648559D01*
X9667649Y11649639D01*
X9675000Y11650000D01*
X10275000Y11650000D01*
X10282351Y11649639D01*
X10282351Y11649639D01*
G37*
D16*
G04 #@! TD*
G04 #@! TO.P,U3,8*
G04 #@! TO.N,+3V3*
X9975000Y11500000D03*
D13*
G04 #@! TO.N,GND*
G04 #@! TO.C,U3*
G36*
X10282351Y10999639D02*
X10289632Y10998559D01*
X10296771Y10996771D01*
X10303701Y10994291D01*
X10310355Y10991144D01*
X10316668Y10987360D01*
X10322579Y10982976D01*
X10328033Y10978033D01*
X10332976Y10972579D01*
X10337360Y10966668D01*
X10341144Y10960355D01*
X10344291Y10953701D01*
X10346771Y10946771D01*
X10348559Y10939632D01*
X10349639Y10932351D01*
X10350000Y10925000D01*
X10350000Y10775000D01*
X10349639Y10767649D01*
X10348559Y10760368D01*
X10346771Y10753229D01*
X10344291Y10746299D01*
X10341144Y10739645D01*
X10337360Y10733332D01*
X10332976Y10727421D01*
X10328033Y10721967D01*
X10322579Y10717024D01*
X10316668Y10712640D01*
X10310355Y10708856D01*
X10303701Y10705709D01*
X10296771Y10703229D01*
X10289632Y10701441D01*
X10282351Y10700361D01*
X10275000Y10700000D01*
X9675000Y10700000D01*
X9667649Y10700361D01*
X9660368Y10701441D01*
X9653229Y10703229D01*
X9646299Y10705709D01*
X9639645Y10708856D01*
X9633332Y10712640D01*
X9627421Y10717024D01*
X9621967Y10721967D01*
X9617024Y10727421D01*
X9612640Y10733332D01*
X9608856Y10739645D01*
X9605709Y10746299D01*
X9603229Y10753229D01*
X9601441Y10760368D01*
X9600361Y10767649D01*
X9600000Y10775000D01*
X9600000Y10925000D01*
X9600361Y10932351D01*
X9601441Y10939632D01*
X9603229Y10946771D01*
X9605709Y10953701D01*
X9608856Y10960355D01*
X9612640Y10966668D01*
X9617024Y10972579D01*
X9621967Y10978033D01*
X9627421Y10982976D01*
X9633332Y10987360D01*
X9639645Y10991144D01*
X9646299Y10994291D01*
X9653229Y10996771D01*
X9660368Y10998559D01*
X9667649Y10999639D01*
X9675000Y11000000D01*
X10275000Y11000000D01*
X10282351Y10999639D01*
X10282351Y10999639D01*
G37*
D16*
G04 #@! TD*
G04 #@! TO.P,U3,9*
G04 #@! TO.N,GND*
X9975000Y10850000D03*
D13*
G04 #@! TO.N,GND*
G04 #@! TO.C,U3*
G36*
X10282351Y10349639D02*
X10289632Y10348559D01*
X10296771Y10346771D01*
X10303701Y10344291D01*
X10310355Y10341144D01*
X10316668Y10337360D01*
X10322579Y10332976D01*
X10328033Y10328033D01*
X10332976Y10322579D01*
X10337360Y10316668D01*
X10341144Y10310355D01*
X10344291Y10303701D01*
X10346771Y10296771D01*
X10348559Y10289632D01*
X10349639Y10282351D01*
X10350000Y10275000D01*
X10350000Y10125000D01*
X10349639Y10117649D01*
X10348559Y10110368D01*
X10346771Y10103229D01*
X10344291Y10096299D01*
X10341144Y10089645D01*
X10337360Y10083332D01*
X10332976Y10077421D01*
X10328033Y10071967D01*
X10322579Y10067024D01*
X10316668Y10062640D01*
X10310355Y10058856D01*
X10303701Y10055709D01*
X10296771Y10053229D01*
X10289632Y10051441D01*
X10282351Y10050361D01*
X10275000Y10050000D01*
X9675000Y10050000D01*
X9667649Y10050361D01*
X9660368Y10051441D01*
X9653229Y10053229D01*
X9646299Y10055709D01*
X9639645Y10058856D01*
X9633332Y10062640D01*
X9627421Y10067024D01*
X9621967Y10071967D01*
X9617024Y10077421D01*
X9612640Y10083332D01*
X9608856Y10089645D01*
X9605709Y10096299D01*
X9603229Y10103229D01*
X9601441Y10110368D01*
X9600361Y10117649D01*
X9600000Y10125000D01*
X9600000Y10275000D01*
X9600361Y10282351D01*
X9601441Y10289632D01*
X9603229Y10296771D01*
X9605709Y10303701D01*
X9608856Y10310355D01*
X9612640Y10316668D01*
X9617024Y10322579D01*
X9621967Y10328033D01*
X9627421Y10332976D01*
X9633332Y10337360D01*
X9639645Y10341144D01*
X9646299Y10344291D01*
X9653229Y10346771D01*
X9660368Y10348559D01*
X9667649Y10349639D01*
X9675000Y10350000D01*
X10275000Y10350000D01*
X10282351Y10349639D01*
X10282351Y10349639D01*
G37*
D16*
G04 #@! TD*
G04 #@! TO.P,U3,10*
G04 #@! TO.N,GND*
X9975000Y10200000D03*
D13*
G04 #@! TO.N,Net-(U3-Pad11)*
G04 #@! TO.C,U3*
G36*
X8882351Y9399639D02*
X8889632Y9398559D01*
X8896771Y9396771D01*
X8903701Y9394291D01*
X8910355Y9391144D01*
X8916668Y9387360D01*
X8922579Y9382976D01*
X8928033Y9378033D01*
X8932976Y9372579D01*
X8937360Y9366668D01*
X8941144Y9360355D01*
X8944291Y9353701D01*
X8946771Y9346771D01*
X8948559Y9339632D01*
X8949639Y9332351D01*
X8950000Y9325000D01*
X8950000Y8725000D01*
X8949639Y8717649D01*
X8948559Y8710368D01*
X8946771Y8703229D01*
X8944291Y8696299D01*
X8941144Y8689645D01*
X8937360Y8683332D01*
X8932976Y8677421D01*
X8928033Y8671967D01*
X8922579Y8667024D01*
X8916668Y8662640D01*
X8910355Y8658856D01*
X8903701Y8655709D01*
X8896771Y8653229D01*
X8889632Y8651441D01*
X8882351Y8650361D01*
X8875000Y8650000D01*
X8725000Y8650000D01*
X8717649Y8650361D01*
X8710368Y8651441D01*
X8703229Y8653229D01*
X8696299Y8655709D01*
X8689645Y8658856D01*
X8683332Y8662640D01*
X8677421Y8667024D01*
X8671967Y8671967D01*
X8667024Y8677421D01*
X8662640Y8683332D01*
X8658856Y8689645D01*
X8655709Y8696299D01*
X8653229Y8703229D01*
X8651441Y8710368D01*
X8650361Y8717649D01*
X8650000Y8725000D01*
X8650000Y9325000D01*
X8650361Y9332351D01*
X8651441Y9339632D01*
X8653229Y9346771D01*
X8655709Y9353701D01*
X8658856Y9360355D01*
X8662640Y9366668D01*
X8667024Y9372579D01*
X8671967Y9378033D01*
X8677421Y9382976D01*
X8683332Y9387360D01*
X8689645Y9391144D01*
X8696299Y9394291D01*
X8703229Y9396771D01*
X8710368Y9398559D01*
X8717649Y9399639D01*
X8725000Y9400000D01*
X8875000Y9400000D01*
X8882351Y9399639D01*
X8882351Y9399639D01*
G37*
D16*
G04 #@! TD*
G04 #@! TO.P,U3,11*
G04 #@! TO.N,Net-(U3-Pad11)*
X8800000Y9025000D03*
D13*
G04 #@! TO.N,Net-(U3-Pad12)*
G04 #@! TO.C,U3*
G36*
X8232351Y9399639D02*
X8239632Y9398559D01*
X8246771Y9396771D01*
X8253701Y9394291D01*
X8260355Y9391144D01*
X8266668Y9387360D01*
X8272579Y9382976D01*
X8278033Y9378033D01*
X8282976Y9372579D01*
X8287360Y9366668D01*
X8291144Y9360355D01*
X8294291Y9353701D01*
X8296771Y9346771D01*
X8298559Y9339632D01*
X8299639Y9332351D01*
X8300000Y9325000D01*
X8300000Y8725000D01*
X8299639Y8717649D01*
X8298559Y8710368D01*
X8296771Y8703229D01*
X8294291Y8696299D01*
X8291144Y8689645D01*
X8287360Y8683332D01*
X8282976Y8677421D01*
X8278033Y8671967D01*
X8272579Y8667024D01*
X8266668Y8662640D01*
X8260355Y8658856D01*
X8253701Y8655709D01*
X8246771Y8653229D01*
X8239632Y8651441D01*
X8232351Y8650361D01*
X8225000Y8650000D01*
X8075000Y8650000D01*
X8067649Y8650361D01*
X8060368Y8651441D01*
X8053229Y8653229D01*
X8046299Y8655709D01*
X8039645Y8658856D01*
X8033332Y8662640D01*
X8027421Y8667024D01*
X8021967Y8671967D01*
X8017024Y8677421D01*
X8012640Y8683332D01*
X8008856Y8689645D01*
X8005709Y8696299D01*
X8003229Y8703229D01*
X8001441Y8710368D01*
X8000361Y8717649D01*
X8000000Y8725000D01*
X8000000Y9325000D01*
X8000361Y9332351D01*
X8001441Y9339632D01*
X8003229Y9346771D01*
X8005709Y9353701D01*
X8008856Y9360355D01*
X8012640Y9366668D01*
X8017024Y9372579D01*
X8021967Y9378033D01*
X8027421Y9382976D01*
X8033332Y9387360D01*
X8039645Y9391144D01*
X8046299Y9394291D01*
X8053229Y9396771D01*
X8060368Y9398559D01*
X8067649Y9399639D01*
X8075000Y9400000D01*
X8225000Y9400000D01*
X8232351Y9399639D01*
X8232351Y9399639D01*
G37*
D16*
G04 #@! TD*
G04 #@! TO.P,U3,12*
G04 #@! TO.N,Net-(U3-Pad12)*
X8150000Y9025000D03*
D13*
G04 #@! TO.N,GND*
G04 #@! TO.C,U3*
G36*
X7582351Y9399639D02*
X7589632Y9398559D01*
X7596771Y9396771D01*
X7603701Y9394291D01*
X7610355Y9391144D01*
X7616668Y9387360D01*
X7622579Y9382976D01*
X7628033Y9378033D01*
X7632976Y9372579D01*
X7637360Y9366668D01*
X7641144Y9360355D01*
X7644291Y9353701D01*
X7646771Y9346771D01*
X7648559Y9339632D01*
X7649639Y9332351D01*
X7650000Y9325000D01*
X7650000Y8725000D01*
X7649639Y8717649D01*
X7648559Y8710368D01*
X7646771Y8703229D01*
X7644291Y8696299D01*
X7641144Y8689645D01*
X7637360Y8683332D01*
X7632976Y8677421D01*
X7628033Y8671967D01*
X7622579Y8667024D01*
X7616668Y8662640D01*
X7610355Y8658856D01*
X7603701Y8655709D01*
X7596771Y8653229D01*
X7589632Y8651441D01*
X7582351Y8650361D01*
X7575000Y8650000D01*
X7425000Y8650000D01*
X7417649Y8650361D01*
X7410368Y8651441D01*
X7403229Y8653229D01*
X7396299Y8655709D01*
X7389645Y8658856D01*
X7383332Y8662640D01*
X7377421Y8667024D01*
X7371967Y8671967D01*
X7367024Y8677421D01*
X7362640Y8683332D01*
X7358856Y8689645D01*
X7355709Y8696299D01*
X7353229Y8703229D01*
X7351441Y8710368D01*
X7350361Y8717649D01*
X7350000Y8725000D01*
X7350000Y9325000D01*
X7350361Y9332351D01*
X7351441Y9339632D01*
X7353229Y9346771D01*
X7355709Y9353701D01*
X7358856Y9360355D01*
X7362640Y9366668D01*
X7367024Y9372579D01*
X7371967Y9378033D01*
X7377421Y9382976D01*
X7383332Y9387360D01*
X7389645Y9391144D01*
X7396299Y9394291D01*
X7403229Y9396771D01*
X7410368Y9398559D01*
X7417649Y9399639D01*
X7425000Y9400000D01*
X7575000Y9400000D01*
X7582351Y9399639D01*
X7582351Y9399639D01*
G37*
D16*
G04 #@! TD*
G04 #@! TO.P,U3,13*
G04 #@! TO.N,GND*
X7500000Y9025000D03*
D13*
G04 #@! TO.N,Net-(U3-Pad14)*
G04 #@! TO.C,U3*
G36*
X6932351Y9399639D02*
X6939632Y9398559D01*
X6946771Y9396771D01*
X6953701Y9394291D01*
X6960355Y9391144D01*
X6966668Y9387360D01*
X6972579Y9382976D01*
X6978033Y9378033D01*
X6982976Y9372579D01*
X6987360Y9366668D01*
X6991144Y9360355D01*
X6994291Y9353701D01*
X6996771Y9346771D01*
X6998559Y9339632D01*
X6999639Y9332351D01*
X7000000Y9325000D01*
X7000000Y8725000D01*
X6999639Y8717649D01*
X6998559Y8710368D01*
X6996771Y8703229D01*
X6994291Y8696299D01*
X6991144Y8689645D01*
X6987360Y8683332D01*
X6982976Y8677421D01*
X6978033Y8671967D01*
X6972579Y8667024D01*
X6966668Y8662640D01*
X6960355Y8658856D01*
X6953701Y8655709D01*
X6946771Y8653229D01*
X6939632Y8651441D01*
X6932351Y8650361D01*
X6925000Y8650000D01*
X6775000Y8650000D01*
X6767649Y8650361D01*
X6760368Y8651441D01*
X6753229Y8653229D01*
X6746299Y8655709D01*
X6739645Y8658856D01*
X6733332Y8662640D01*
X6727421Y8667024D01*
X6721967Y8671967D01*
X6717024Y8677421D01*
X6712640Y8683332D01*
X6708856Y8689645D01*
X6705709Y8696299D01*
X6703229Y8703229D01*
X6701441Y8710368D01*
X6700361Y8717649D01*
X6700000Y8725000D01*
X6700000Y9325000D01*
X6700361Y9332351D01*
X6701441Y9339632D01*
X6703229Y9346771D01*
X6705709Y9353701D01*
X6708856Y9360355D01*
X6712640Y9366668D01*
X6717024Y9372579D01*
X6721967Y9378033D01*
X6727421Y9382976D01*
X6733332Y9387360D01*
X6739645Y9391144D01*
X6746299Y9394291D01*
X6753229Y9396771D01*
X6760368Y9398559D01*
X6767649Y9399639D01*
X6775000Y9400000D01*
X6925000Y9400000D01*
X6932351Y9399639D01*
X6932351Y9399639D01*
G37*
D16*
G04 #@! TD*
G04 #@! TO.P,U3,14*
G04 #@! TO.N,Net-(U3-Pad14)*
X6850000Y9025000D03*
D13*
G04 #@! TO.N,Net-(U3-Pad15)*
G04 #@! TO.C,U3*
G36*
X6282351Y9399639D02*
X6289632Y9398559D01*
X6296771Y9396771D01*
X6303701Y9394291D01*
X6310355Y9391144D01*
X6316668Y9387360D01*
X6322579Y9382976D01*
X6328033Y9378033D01*
X6332976Y9372579D01*
X6337360Y9366668D01*
X6341144Y9360355D01*
X6344291Y9353701D01*
X6346771Y9346771D01*
X6348559Y9339632D01*
X6349639Y9332351D01*
X6350000Y9325000D01*
X6350000Y8725000D01*
X6349639Y8717649D01*
X6348559Y8710368D01*
X6346771Y8703229D01*
X6344291Y8696299D01*
X6341144Y8689645D01*
X6337360Y8683332D01*
X6332976Y8677421D01*
X6328033Y8671967D01*
X6322579Y8667024D01*
X6316668Y8662640D01*
X6310355Y8658856D01*
X6303701Y8655709D01*
X6296771Y8653229D01*
X6289632Y8651441D01*
X6282351Y8650361D01*
X6275000Y8650000D01*
X6125000Y8650000D01*
X6117649Y8650361D01*
X6110368Y8651441D01*
X6103229Y8653229D01*
X6096299Y8655709D01*
X6089645Y8658856D01*
X6083332Y8662640D01*
X6077421Y8667024D01*
X6071967Y8671967D01*
X6067024Y8677421D01*
X6062640Y8683332D01*
X6058856Y8689645D01*
X6055709Y8696299D01*
X6053229Y8703229D01*
X6051441Y8710368D01*
X6050361Y8717649D01*
X6050000Y8725000D01*
X6050000Y9325000D01*
X6050361Y9332351D01*
X6051441Y9339632D01*
X6053229Y9346771D01*
X6055709Y9353701D01*
X6058856Y9360355D01*
X6062640Y9366668D01*
X6067024Y9372579D01*
X6071967Y9378033D01*
X6077421Y9382976D01*
X6083332Y9387360D01*
X6089645Y9391144D01*
X6096299Y9394291D01*
X6103229Y9396771D01*
X6110368Y9398559D01*
X6117649Y9399639D01*
X6125000Y9400000D01*
X6275000Y9400000D01*
X6282351Y9399639D01*
X6282351Y9399639D01*
G37*
D16*
G04 #@! TD*
G04 #@! TO.P,U3,15*
G04 #@! TO.N,Net-(U3-Pad15)*
X6200000Y9025000D03*
D13*
G04 #@! TO.N,GND*
G04 #@! TO.C,U3*
G36*
X5332351Y10349639D02*
X5339632Y10348559D01*
X5346771Y10346771D01*
X5353701Y10344291D01*
X5360355Y10341144D01*
X5366668Y10337360D01*
X5372579Y10332976D01*
X5378033Y10328033D01*
X5382976Y10322579D01*
X5387360Y10316668D01*
X5391144Y10310355D01*
X5394291Y10303701D01*
X5396771Y10296771D01*
X5398559Y10289632D01*
X5399639Y10282351D01*
X5400000Y10275000D01*
X5400000Y10125000D01*
X5399639Y10117649D01*
X5398559Y10110368D01*
X5396771Y10103229D01*
X5394291Y10096299D01*
X5391144Y10089645D01*
X5387360Y10083332D01*
X5382976Y10077421D01*
X5378033Y10071967D01*
X5372579Y10067024D01*
X5366668Y10062640D01*
X5360355Y10058856D01*
X5353701Y10055709D01*
X5346771Y10053229D01*
X5339632Y10051441D01*
X5332351Y10050361D01*
X5325000Y10050000D01*
X4725000Y10050000D01*
X4717649Y10050361D01*
X4710368Y10051441D01*
X4703229Y10053229D01*
X4696299Y10055709D01*
X4689645Y10058856D01*
X4683332Y10062640D01*
X4677421Y10067024D01*
X4671967Y10071967D01*
X4667024Y10077421D01*
X4662640Y10083332D01*
X4658856Y10089645D01*
X4655709Y10096299D01*
X4653229Y10103229D01*
X4651441Y10110368D01*
X4650361Y10117649D01*
X4650000Y10125000D01*
X4650000Y10275000D01*
X4650361Y10282351D01*
X4651441Y10289632D01*
X4653229Y10296771D01*
X4655709Y10303701D01*
X4658856Y10310355D01*
X4662640Y10316668D01*
X4667024Y10322579D01*
X4671967Y10328033D01*
X4677421Y10332976D01*
X4683332Y10337360D01*
X4689645Y10341144D01*
X4696299Y10344291D01*
X4703229Y10346771D01*
X4710368Y10348559D01*
X4717649Y10349639D01*
X4725000Y10350000D01*
X5325000Y10350000D01*
X5332351Y10349639D01*
X5332351Y10349639D01*
G37*
D16*
G04 #@! TD*
G04 #@! TO.P,U3,16*
G04 #@! TO.N,GND*
X5025000Y10200000D03*
D13*
G04 #@! TO.N,GND*
G04 #@! TO.C,U3*
G36*
X5332351Y10999639D02*
X5339632Y10998559D01*
X5346771Y10996771D01*
X5353701Y10994291D01*
X5360355Y10991144D01*
X5366668Y10987360D01*
X5372579Y10982976D01*
X5378033Y10978033D01*
X5382976Y10972579D01*
X5387360Y10966668D01*
X5391144Y10960355D01*
X5394291Y10953701D01*
X5396771Y10946771D01*
X5398559Y10939632D01*
X5399639Y10932351D01*
X5400000Y10925000D01*
X5400000Y10775000D01*
X5399639Y10767649D01*
X5398559Y10760368D01*
X5396771Y10753229D01*
X5394291Y10746299D01*
X5391144Y10739645D01*
X5387360Y10733332D01*
X5382976Y10727421D01*
X5378033Y10721967D01*
X5372579Y10717024D01*
X5366668Y10712640D01*
X5360355Y10708856D01*
X5353701Y10705709D01*
X5346771Y10703229D01*
X5339632Y10701441D01*
X5332351Y10700361D01*
X5325000Y10700000D01*
X4725000Y10700000D01*
X4717649Y10700361D01*
X4710368Y10701441D01*
X4703229Y10703229D01*
X4696299Y10705709D01*
X4689645Y10708856D01*
X4683332Y10712640D01*
X4677421Y10717024D01*
X4671967Y10721967D01*
X4667024Y10727421D01*
X4662640Y10733332D01*
X4658856Y10739645D01*
X4655709Y10746299D01*
X4653229Y10753229D01*
X4651441Y10760368D01*
X4650361Y10767649D01*
X4650000Y10775000D01*
X4650000Y10925000D01*
X4650361Y10932351D01*
X4651441Y10939632D01*
X4653229Y10946771D01*
X4655709Y10953701D01*
X4658856Y10960355D01*
X4662640Y10966668D01*
X4667024Y10972579D01*
X4671967Y10978033D01*
X4677421Y10982976D01*
X4683332Y10987360D01*
X4689645Y10991144D01*
X4696299Y10994291D01*
X4703229Y10996771D01*
X4710368Y10998559D01*
X4717649Y10999639D01*
X4725000Y11000000D01*
X5325000Y11000000D01*
X5332351Y10999639D01*
X5332351Y10999639D01*
G37*
D16*
G04 #@! TD*
G04 #@! TO.P,U3,17*
G04 #@! TO.N,GND*
X5025000Y10850000D03*
D13*
G04 #@! TO.N,GND*
G04 #@! TO.C,U3*
G36*
X5332351Y11649639D02*
X5339632Y11648559D01*
X5346771Y11646771D01*
X5353701Y11644291D01*
X5360355Y11641144D01*
X5366668Y11637360D01*
X5372579Y11632976D01*
X5378033Y11628033D01*
X5382976Y11622579D01*
X5387360Y11616668D01*
X5391144Y11610355D01*
X5394291Y11603701D01*
X5396771Y11596771D01*
X5398559Y11589632D01*
X5399639Y11582351D01*
X5400000Y11575000D01*
X5400000Y11425000D01*
X5399639Y11417649D01*
X5398559Y11410368D01*
X5396771Y11403229D01*
X5394291Y11396299D01*
X5391144Y11389645D01*
X5387360Y11383332D01*
X5382976Y11377421D01*
X5378033Y11371967D01*
X5372579Y11367024D01*
X5366668Y11362640D01*
X5360355Y11358856D01*
X5353701Y11355709D01*
X5346771Y11353229D01*
X5339632Y11351441D01*
X5332351Y11350361D01*
X5325000Y11350000D01*
X4725000Y11350000D01*
X4717649Y11350361D01*
X4710368Y11351441D01*
X4703229Y11353229D01*
X4696299Y11355709D01*
X4689645Y11358856D01*
X4683332Y11362640D01*
X4677421Y11367024D01*
X4671967Y11371967D01*
X4667024Y11377421D01*
X4662640Y11383332D01*
X4658856Y11389645D01*
X4655709Y11396299D01*
X4653229Y11403229D01*
X4651441Y11410368D01*
X4650361Y11417649D01*
X4650000Y11425000D01*
X4650000Y11575000D01*
X4650361Y11582351D01*
X4651441Y11589632D01*
X4653229Y11596771D01*
X4655709Y11603701D01*
X4658856Y11610355D01*
X4662640Y11616668D01*
X4667024Y11622579D01*
X4671967Y11628033D01*
X4677421Y11632976D01*
X4683332Y11637360D01*
X4689645Y11641144D01*
X4696299Y11644291D01*
X4703229Y11646771D01*
X4710368Y11648559D01*
X4717649Y11649639D01*
X4725000Y11650000D01*
X5325000Y11650000D01*
X5332351Y11649639D01*
X5332351Y11649639D01*
G37*
D16*
G04 #@! TD*
G04 #@! TO.P,U3,18*
G04 #@! TO.N,GND*
X5025000Y11500000D03*
D13*
G04 #@! TO.N,/SCL*
G04 #@! TO.C,U3*
G36*
X5332351Y12299639D02*
X5339632Y12298559D01*
X5346771Y12296771D01*
X5353701Y12294291D01*
X5360355Y12291144D01*
X5366668Y12287360D01*
X5372579Y12282976D01*
X5378033Y12278033D01*
X5382976Y12272579D01*
X5387360Y12266668D01*
X5391144Y12260355D01*
X5394291Y12253701D01*
X5396771Y12246771D01*
X5398559Y12239632D01*
X5399639Y12232351D01*
X5400000Y12225000D01*
X5400000Y12075000D01*
X5399639Y12067649D01*
X5398559Y12060368D01*
X5396771Y12053229D01*
X5394291Y12046299D01*
X5391144Y12039645D01*
X5387360Y12033332D01*
X5382976Y12027421D01*
X5378033Y12021967D01*
X5372579Y12017024D01*
X5366668Y12012640D01*
X5360355Y12008856D01*
X5353701Y12005709D01*
X5346771Y12003229D01*
X5339632Y12001441D01*
X5332351Y12000361D01*
X5325000Y12000000D01*
X4725000Y12000000D01*
X4717649Y12000361D01*
X4710368Y12001441D01*
X4703229Y12003229D01*
X4696299Y12005709D01*
X4689645Y12008856D01*
X4683332Y12012640D01*
X4677421Y12017024D01*
X4671967Y12021967D01*
X4667024Y12027421D01*
X4662640Y12033332D01*
X4658856Y12039645D01*
X4655709Y12046299D01*
X4653229Y12053229D01*
X4651441Y12060368D01*
X4650361Y12067649D01*
X4650000Y12075000D01*
X4650000Y12225000D01*
X4650361Y12232351D01*
X4651441Y12239632D01*
X4653229Y12246771D01*
X4655709Y12253701D01*
X4658856Y12260355D01*
X4662640Y12266668D01*
X4667024Y12272579D01*
X4671967Y12278033D01*
X4677421Y12282976D01*
X4683332Y12287360D01*
X4689645Y12291144D01*
X4696299Y12294291D01*
X4703229Y12296771D01*
X4710368Y12298559D01*
X4717649Y12299639D01*
X4725000Y12300000D01*
X5325000Y12300000D01*
X5332351Y12299639D01*
X5332351Y12299639D01*
G37*
D16*
G04 #@! TD*
G04 #@! TO.P,U3,19*
G04 #@! TO.N,/SCL*
X5025000Y12150000D03*
D13*
G04 #@! TO.N,/SDA*
G04 #@! TO.C,U3*
G36*
X5332351Y12949639D02*
X5339632Y12948559D01*
X5346771Y12946771D01*
X5353701Y12944291D01*
X5360355Y12941144D01*
X5366668Y12937360D01*
X5372579Y12932976D01*
X5378033Y12928033D01*
X5382976Y12922579D01*
X5387360Y12916668D01*
X5391144Y12910355D01*
X5394291Y12903701D01*
X5396771Y12896771D01*
X5398559Y12889632D01*
X5399639Y12882351D01*
X5400000Y12875000D01*
X5400000Y12725000D01*
X5399639Y12717649D01*
X5398559Y12710368D01*
X5396771Y12703229D01*
X5394291Y12696299D01*
X5391144Y12689645D01*
X5387360Y12683332D01*
X5382976Y12677421D01*
X5378033Y12671967D01*
X5372579Y12667024D01*
X5366668Y12662640D01*
X5360355Y12658856D01*
X5353701Y12655709D01*
X5346771Y12653229D01*
X5339632Y12651441D01*
X5332351Y12650361D01*
X5325000Y12650000D01*
X4725000Y12650000D01*
X4717649Y12650361D01*
X4710368Y12651441D01*
X4703229Y12653229D01*
X4696299Y12655709D01*
X4689645Y12658856D01*
X4683332Y12662640D01*
X4677421Y12667024D01*
X4671967Y12671967D01*
X4667024Y12677421D01*
X4662640Y12683332D01*
X4658856Y12689645D01*
X4655709Y12696299D01*
X4653229Y12703229D01*
X4651441Y12710368D01*
X4650361Y12717649D01*
X4650000Y12725000D01*
X4650000Y12875000D01*
X4650361Y12882351D01*
X4651441Y12889632D01*
X4653229Y12896771D01*
X4655709Y12903701D01*
X4658856Y12910355D01*
X4662640Y12916668D01*
X4667024Y12922579D01*
X4671967Y12928033D01*
X4677421Y12932976D01*
X4683332Y12937360D01*
X4689645Y12941144D01*
X4696299Y12944291D01*
X4703229Y12946771D01*
X4710368Y12948559D01*
X4717649Y12949639D01*
X4725000Y12950000D01*
X5325000Y12950000D01*
X5332351Y12949639D01*
X5332351Y12949639D01*
G37*
D16*
G04 #@! TD*
G04 #@! TO.P,U3,20*
G04 #@! TO.N,/SDA*
X5025000Y12800000D03*
D18*
G04 #@! TO.P,MH9,1*
G04 #@! TO.N,N/C*
X-17500000Y22500000D03*
G04 #@! TD*
G04 #@! TO.P,MH10,1*
G04 #@! TO.N,N/C*
X18500000Y22500000D03*
G04 #@! TD*
G04 #@! TO.P,MH11,1*
G04 #@! TO.N,N/C*
X18500000Y-21500000D03*
G04 #@! TD*
G04 #@! TO.P,MH12,1*
G04 #@! TO.N,N/C*
X-17500000Y-21500000D03*
G04 #@! TD*
D19*
G04 #@! TO.N,GND*
X-2300000Y-11600000D03*
X-5600000Y-11600000D03*
X3300000Y-10300000D03*
X8300000Y-10400000D03*
X7500000Y17100000D03*
X6200000Y16100000D03*
X8800000Y16100000D03*
X-7500000Y17200000D03*
X-8800000Y16200000D03*
X-6200000Y16200000D03*
X19550000Y13200000D03*
X19550000Y15740000D03*
X19550000Y18280000D03*
X23995000Y18280000D03*
X23995000Y15740000D03*
X23995000Y13200000D03*
X7500000Y7800000D03*
X-7500000Y7800000D03*
X-8700000Y-2100000D03*
X-12200000Y-11300000D03*
X-800000Y7700000D03*
X-2175000Y9925000D03*
X-4100000Y7700000D03*
X-5000000Y9000000D03*
X-9900000Y9100000D03*
X-9900000Y14000000D03*
X-5000000Y14000000D03*
X5200000Y14000000D03*
X10000000Y14000000D03*
X10000000Y9000000D03*
X-22000000Y18000000D03*
X-22000000Y13000000D03*
X-22000000Y8000000D03*
X-22000000Y3000000D03*
X-22000000Y-2000000D03*
X-22000000Y-7000000D03*
X-22000000Y-12000000D03*
X-22000000Y-17000000D03*
X-17000000Y-17000000D03*
X-12000000Y-22000000D03*
X-7000000Y-22000000D03*
X-2000000Y-22000000D03*
X3000000Y-22000000D03*
X8000000Y-22000000D03*
X13000000Y-22000000D03*
X13000000Y-17000000D03*
X-12000000Y-17000000D03*
X-12000000Y-12000000D03*
X-12000000Y-2000000D03*
X-17000000Y-2000000D03*
X-17000000Y3000000D03*
X-7000000Y3000000D03*
X-2000000Y3000000D03*
X3000000Y3000000D03*
X-12000000Y8000000D03*
X-17000000Y18000000D03*
X-12000000Y23000000D03*
X-7000000Y23000000D03*
X-2000000Y23000000D03*
X3000000Y23000000D03*
X8000000Y23000000D03*
X13000000Y23000000D03*
X2000000Y-14500000D03*
X4200000Y-14500000D03*
X8100000Y-13200000D03*
X10700000Y-300000D03*
X9700000Y5700000D03*
X11500000Y7600000D03*
X-5600000Y-9200000D03*
G04 #@! TO.N,+3V3*
X13000000Y11500000D03*
X11000000Y5000000D03*
G04 #@! TO.N,+5V*
X14500000Y-14500000D03*
G04 #@! TO.N,/SDA*
X2000000Y13500000D03*
X-11500000Y13000000D03*
G04 #@! TO.N,/SCL*
X2000000Y11500000D03*
X-11500000Y12000000D03*
G04 #@! TO.N,/IIS_IN*
X14470000Y-12200000D03*
G04 #@! TO.N,/IIS_OUT*
X19550000Y-8390000D03*
G04 #@! TO.N,/IIS_MK*
X14470000Y-9660000D03*
G04 #@! TO.N,/IIS_SK*
X19550000Y-5850000D03*
G04 #@! TO.N,/IIS_WS*
X14470000Y-7120000D03*
G04 #@! TO.N,/GPIO_G2*
X19550000Y-3310000D03*
G04 #@! TO.N,/GPIO_G5*
X14470000Y-4580000D03*
G04 #@! TD*
D20*
G04 #@! TO.N,GND*
X6902500Y-10310000D02*
X7000000Y-10212500D01*
X4862500Y-10310000D02*
X6902500Y-10310000D01*
D21*
X-3862500Y-11580000D02*
X-2320000Y-11580000D01*
X-2320000Y-11580000D02*
X-2300000Y-11600000D01*
X-3862500Y-11580000D02*
X-5580000Y-11580000D01*
X-5580000Y-11580000D02*
X-5600000Y-11600000D01*
X4862500Y-10310000D02*
X3310000Y-10310000D01*
X3310000Y-10310000D02*
X3300000Y-10300000D01*
X7000000Y-10212500D02*
X8112500Y-10212500D01*
X8112500Y-10212500D02*
X8300000Y-10400000D01*
D22*
X9975000Y10200000D02*
X10600000Y10200000D01*
X10875000Y9925000D02*
X11500000Y9925000D01*
X10600000Y10200000D02*
X10875000Y9925000D01*
X-5025000Y10200000D02*
X-4500000Y10200000D01*
X-4225000Y9925000D02*
X-3500000Y9925000D01*
X-4500000Y10200000D02*
X-4225000Y9925000D01*
X-6200000Y10200000D02*
X-7500000Y11500000D01*
X-5025000Y10200000D02*
X-6200000Y10200000D01*
X-6850000Y10850000D02*
X-7500000Y11500000D01*
X-5025000Y10850000D02*
X-6850000Y10850000D01*
X-7500000Y9025000D02*
X-7500000Y11500000D01*
X-9975000Y11500000D02*
X-7500000Y11500000D01*
X-8150000Y10850000D02*
X-7500000Y11500000D01*
X-9975000Y10850000D02*
X-8150000Y10850000D01*
X-7500000Y13975000D02*
X-7500000Y11500000D01*
X-8800000Y12800000D02*
X-7500000Y11500000D01*
X-8800000Y13975000D02*
X-8800000Y12800000D01*
X-6200000Y13975000D02*
X-6200000Y12800000D01*
X-6200000Y12800000D02*
X-7500000Y11500000D01*
X-5025000Y12800000D02*
X-6200000Y12800000D01*
X8800000Y10200000D02*
X7500000Y11500000D01*
X9975000Y10200000D02*
X8800000Y10200000D01*
X8150000Y10850000D02*
X7500000Y11500000D01*
X9975000Y10850000D02*
X8150000Y10850000D01*
X9975000Y12800000D02*
X8800000Y12800000D01*
X8150000Y12150000D02*
X7500000Y11500000D01*
X9975000Y12150000D02*
X8150000Y12150000D01*
X8800000Y12800000D02*
X7500000Y11500000D01*
X8800000Y13975000D02*
X8800000Y12800000D01*
X7500000Y13975000D02*
X7500000Y11500000D01*
X6200000Y12800000D02*
X7500000Y11500000D01*
X6200000Y13975000D02*
X6200000Y12800000D01*
X5025000Y11500000D02*
X7500000Y11500000D01*
X6850000Y10850000D02*
X7500000Y11500000D01*
X5025000Y10850000D02*
X6850000Y10850000D01*
X6200000Y10200000D02*
X7500000Y11500000D01*
X5025000Y10200000D02*
X6200000Y10200000D01*
X7500000Y9025000D02*
X7500000Y11500000D01*
X7500000Y13975000D02*
X7500000Y17100000D01*
X6200000Y13975000D02*
X6200000Y16100000D01*
X8800000Y13975000D02*
X8800000Y16100000D01*
X-7500000Y13975000D02*
X-7500000Y17200000D01*
X-8800000Y13975000D02*
X-8800000Y16200000D01*
X-6200000Y13975000D02*
X-6200000Y16200000D01*
X5025000Y10200000D02*
X3800000Y10200000D01*
X5025000Y10850000D02*
X3850000Y10850000D01*
X5025000Y11500000D02*
X4400000Y11500000D01*
X4400000Y11500000D02*
X4000000Y11100000D01*
X9975000Y12150000D02*
X10550000Y12150000D01*
X10800000Y12400000D02*
X10800000Y12800000D01*
X10550000Y12150000D02*
X10800000Y12400000D01*
X9975000Y12800000D02*
X10800000Y12800000D01*
X10800000Y12800000D02*
X11100000Y12800000D01*
X-3500000Y9925000D02*
X-2175000Y9925000D01*
X-3500000Y9925000D02*
X-3500000Y9387500D01*
X-3500000Y9387500D02*
X-3500000Y8700000D01*
X-9975000Y11500000D02*
X-10800000Y11500000D01*
X-10800000Y10950000D02*
X-10900000Y10850000D01*
X-10800000Y11500000D02*
X-10800000Y10950000D01*
X-9975000Y10850000D02*
X-10900000Y10850000D01*
X-10900000Y10850000D02*
X-11550000Y10850000D01*
X7500000Y9025000D02*
X7500000Y7800000D01*
X-7500000Y9025000D02*
X-7500000Y7800000D01*
D23*
X8120000Y-16500000D02*
X8120000Y-18480000D01*
X8120000Y-16500000D02*
X10300000Y-16500000D01*
D22*
X-2175000Y9925000D02*
X-2175000Y9925000D01*
X-5025000Y12800000D02*
X-3900000Y12800000D01*
X-5025000Y12150000D02*
X-4350000Y12150000D01*
X-4350000Y12150000D02*
X-4200000Y12300000D01*
X-6850000Y12150000D02*
X-7500000Y11500000D01*
X-5025000Y12150000D02*
X-6850000Y12150000D01*
D21*
G04 #@! TO.N,+3V3*
X13000000Y11500000D02*
X11500000Y11500000D01*
D24*
X-575000Y9575000D02*
X-575000Y11500000D01*
X-575000Y11500000D02*
X-575000Y13500000D01*
X-575000Y11500000D02*
X-3500000Y11500000D01*
D22*
X-3500000Y11500000D02*
X-5025000Y11500000D01*
X-10800000Y10200000D02*
X-9975000Y10200000D01*
X-11000000Y10000000D02*
X-10800000Y10200000D01*
X-11000000Y8000000D02*
X-11000000Y10000000D01*
X-9500000Y6500000D02*
X-11000000Y8000000D01*
X-575000Y9575000D02*
X-3650000Y6500000D01*
X-3650000Y6500000D02*
X-9500000Y6500000D01*
D23*
X8250000Y2250000D02*
X6750000Y2250000D01*
X11000000Y5000000D02*
X8250000Y2250000D01*
X6750000Y2250000D02*
X-575000Y9575000D01*
D22*
X9975000Y11500000D02*
X11500000Y11500000D01*
D20*
G04 #@! TO.N,+5V*
X4862500Y-11580000D02*
X6080000Y-11580000D01*
X6287500Y-11787500D02*
X7000000Y-11787500D01*
X6080000Y-11580000D02*
X6287500Y-11787500D01*
D23*
X5580000Y-14670000D02*
X5580000Y-16500000D01*
X5750000Y-14500000D02*
X5580000Y-14670000D01*
X14500000Y-14500000D02*
X9250000Y-14500000D01*
X9250000Y-14500000D02*
X5750000Y-14500000D01*
D20*
X7000000Y-11787500D02*
X8287500Y-11787500D01*
X9250000Y-12750000D02*
X9250000Y-14500000D01*
X8287500Y-11787500D02*
X9250000Y-12750000D01*
D21*
G04 #@! TO.N,/EXTERNAL0*
X-3862500Y-3960000D02*
X-6960000Y-3960000D01*
X-6960000Y-3960000D02*
X-11000000Y-8000000D01*
X-11000000Y-8000000D02*
X-11000000Y-15000000D01*
X-9500000Y-16500000D02*
X-7120000Y-16500000D01*
X-11000000Y-15000000D02*
X-9500000Y-16500000D01*
G04 #@! TO.N,/EXTERNAL1*
X-4580000Y-15297919D02*
X-5377919Y-14500000D01*
X-4580000Y-16500000D02*
X-4580000Y-15297919D01*
X-5377919Y-14500000D02*
X-8250000Y-14500000D01*
X-8250000Y-14500000D02*
X-9500000Y-13250000D01*
X-9500000Y-13250000D02*
X-9500000Y-8500000D01*
X-6230000Y-5230000D02*
X-3862500Y-5230000D01*
X-9500000Y-8500000D02*
X-6230000Y-5230000D01*
G04 #@! TO.N,/EXTERNAL2*
X-2040000Y-16500000D02*
X-2040000Y-15297919D01*
X-6000000Y-6500000D02*
X-3862500Y-6500000D01*
X-2040000Y-15297919D02*
X-3837919Y-13500000D01*
X-8250000Y-8750000D02*
X-6000000Y-6500000D01*
X-7000000Y-13500000D02*
X-8250000Y-12250000D01*
X-8250000Y-12250000D02*
X-8250000Y-8750000D01*
X-3837919Y-13500000D02*
X-7000000Y-13500000D01*
G04 #@! TO.N,/EXTERNAL3*
X500000Y-15297919D02*
X-2047919Y-12750000D01*
X500000Y-16500000D02*
X500000Y-15297919D01*
X-2047919Y-12750000D02*
X-6250000Y-12750000D01*
X-6250000Y-12750000D02*
X-7250000Y-11750000D01*
X-7250000Y-11750000D02*
X-7250000Y-9500000D01*
X-5520000Y-7770000D02*
X-3862500Y-7770000D01*
X-7250000Y-9500000D02*
X-5520000Y-7770000D01*
G04 #@! TO.N,/EXTERNAL4*
X-3862500Y-9040000D02*
X-1710000Y-9040000D01*
X3040000Y-13790000D02*
X3040000Y-16500000D01*
X-1710000Y-9040000D02*
X3040000Y-13790000D01*
G04 #@! TO.N,/SSRCTRL_UPPER*
X-15210000Y5960000D02*
X-17500000Y5960000D01*
X-3862500Y-1420000D02*
X-7830000Y-1420000D01*
X-7830000Y-1420000D02*
X-15210000Y5960000D01*
G04 #@! TO.N,/SSRCTRL_LOWER*
X-3862500Y-2690000D02*
X-7690000Y-2690000D01*
X-15040000Y-10040000D02*
X-17500000Y-10040000D01*
X-7690000Y-2690000D02*
X-15040000Y-10040000D01*
D22*
G04 #@! TO.N,Net-(J5-Pad1)*
X-8150000Y16610000D02*
X-10040000Y18500000D01*
X-8150000Y13975000D02*
X-8150000Y16610000D01*
G04 #@! TO.N,Net-(J5-Pad2)*
X-6850000Y16610000D02*
X-4960000Y18500000D01*
X-6850000Y13975000D02*
X-6850000Y16610000D01*
G04 #@! TO.N,Net-(J6-Pad2)*
X8150000Y16610000D02*
X10040000Y18500000D01*
X8150000Y13975000D02*
X8150000Y16610000D01*
G04 #@! TO.N,Net-(J6-Pad1)*
X6850000Y16610000D02*
X4960000Y18500000D01*
X6850000Y13975000D02*
X6850000Y16610000D01*
D25*
G04 #@! TO.N,/SDA*
X2000000Y13500000D02*
X1000000Y13500000D01*
X2000000Y13500000D02*
X2500000Y13000000D01*
X2500000Y13000000D02*
X4000000Y13000000D01*
D22*
X4200000Y12800000D02*
X5025000Y12800000D01*
X4000000Y13000000D02*
X4200000Y12800000D01*
X-11300000Y12800000D02*
X-11500000Y13000000D01*
X-9975000Y12800000D02*
X-11300000Y12800000D01*
D25*
G04 #@! TO.N,/SCL*
X2000000Y11500000D02*
X1000000Y11500000D01*
X2000000Y11500000D02*
X2500000Y12000000D01*
X2500000Y12000000D02*
X4000000Y12000000D01*
D22*
X4150000Y12150000D02*
X5025000Y12150000D01*
X4000000Y12000000D02*
X4150000Y12150000D01*
X-11350000Y12150000D02*
X-11500000Y12000000D01*
X-9975000Y12150000D02*
X-11350000Y12150000D01*
D25*
G04 #@! TO.N,/IIS_IN*
X14470000Y-12200000D02*
X11295000Y-12200000D01*
X8135000Y-9040000D02*
X4862500Y-9040000D01*
X11295000Y-12200000D02*
X8135000Y-9040000D01*
G04 #@! TO.N,/IIS_OUT*
X19550000Y-8390000D02*
X11295000Y-8390000D01*
X9405000Y-6500000D02*
X4862500Y-6500000D01*
X11295000Y-8390000D02*
X9405000Y-6500000D01*
G04 #@! TO.N,/IIS_MK*
X14470000Y-9660000D02*
X10660000Y-9660000D01*
X8770000Y-7770000D02*
X4862500Y-7770000D01*
X10660000Y-9660000D02*
X8770000Y-7770000D01*
G04 #@! TO.N,/IIS_SK*
X19550000Y-5850000D02*
X12565000Y-5850000D01*
X10675000Y-3960000D02*
X4862500Y-3960000D01*
X12565000Y-5850000D02*
X10675000Y-3960000D01*
G04 #@! TO.N,/IIS_WS*
X14470000Y-7120000D02*
X11930000Y-7120000D01*
X10040000Y-5230000D02*
X4862500Y-5230000D01*
X11930000Y-7120000D02*
X10040000Y-5230000D01*
G04 #@! TO.N,/GPIO_G2*
X4862500Y-1420000D02*
X11670000Y-1420000D01*
X11670000Y-1420000D02*
X13560000Y-3310000D01*
X13560000Y-3310000D02*
X19550000Y-3310000D01*
G04 #@! TO.N,/GPIO_G5*
X14470000Y-4580000D02*
X13200000Y-4580000D01*
X11310000Y-2690000D02*
X4862500Y-2690000D01*
X13200000Y-4580000D02*
X11310000Y-2690000D01*
G04 #@! TD*
D26*
G04 #@! TO.N,GND*
G36*
X-18962019Y24688066D02*
X-19688066Y23962019D01*
X-19826428Y23627985D01*
X-20377854Y24179411D01*
X-21105955Y24481000D01*
X-21894045Y24481000D01*
X-22622146Y24179411D01*
X-23179411Y23622146D01*
X-23481000Y22894045D01*
X-23481000Y22105955D01*
X-23179411Y21377854D01*
X-22622146Y20820589D01*
X-21894045Y20519000D01*
X-21105955Y20519000D01*
X-20377854Y20820589D01*
X-19826428Y21372015D01*
X-19688066Y21037981D01*
X-18962019Y20311934D01*
X-18013393Y19919000D01*
X-16986607Y19919000D01*
X-16037981Y20311934D01*
X-15311934Y21037981D01*
X-14919000Y21986607D01*
X-14919000Y23013393D01*
X-15311934Y23962019D01*
X-16037981Y24688066D01*
X-16354083Y24819000D01*
X17354083Y24819000D01*
X17037981Y24688066D01*
X16311934Y23962019D01*
X15919000Y23013393D01*
X15919000Y21986607D01*
X16311934Y21037981D01*
X17037981Y20311934D01*
X17986607Y19919000D01*
X19013393Y19919000D01*
X19962019Y20311934D01*
X20688066Y21037981D01*
X20826428Y21372015D01*
X21377854Y20820589D01*
X22105955Y20519000D01*
X22894045Y20519000D01*
X23622146Y20820589D01*
X24179411Y21377854D01*
X24481000Y22105955D01*
X24481000Y22894045D01*
X24179411Y23622146D01*
X23622146Y24179411D01*
X22894045Y24481000D01*
X22105955Y24481000D01*
X21377854Y24179411D01*
X20826428Y23627985D01*
X20688066Y23962019D01*
X19962019Y24688066D01*
X19645917Y24819000D01*
X23300764Y24819000D01*
X24819001Y23300763D01*
X24819000Y-22300764D01*
X23300764Y-23819000D01*
X19645917Y-23819000D01*
X19962019Y-23688066D01*
X20688066Y-22962019D01*
X20826428Y-22627985D01*
X21377854Y-23179411D01*
X22105955Y-23481000D01*
X22894045Y-23481000D01*
X23622146Y-23179411D01*
X24179411Y-22622146D01*
X24481000Y-21894045D01*
X24481000Y-21105955D01*
X24179411Y-20377854D01*
X23622146Y-19820589D01*
X22894045Y-19519000D01*
X22105955Y-19519000D01*
X21377854Y-19820589D01*
X20826428Y-20372015D01*
X20688066Y-20037981D01*
X19962019Y-19311934D01*
X19013393Y-18919000D01*
X17986607Y-18919000D01*
X17037981Y-19311934D01*
X16311934Y-20037981D01*
X15919000Y-20986607D01*
X15919000Y-22013393D01*
X16311934Y-22962019D01*
X17037981Y-23688066D01*
X17354083Y-23819000D01*
X-16354083Y-23819000D01*
X-16037981Y-23688066D01*
X-15311934Y-22962019D01*
X-14919000Y-22013393D01*
X-14919000Y-20986607D01*
X-15311934Y-20037981D01*
X-16037981Y-19311934D01*
X-16986607Y-18919000D01*
X-18013393Y-18919000D01*
X-18962019Y-19311934D01*
X-19688066Y-20037981D01*
X-19826428Y-20372015D01*
X-20377854Y-19820589D01*
X-21105955Y-19519000D01*
X-21894045Y-19519000D01*
X-22622146Y-19820589D01*
X-23179411Y-20377854D01*
X-23481000Y-21105955D01*
X-23481000Y-21894045D01*
X-23179411Y-22622146D01*
X-22622146Y-23179411D01*
X-21894045Y-23481000D01*
X-21105955Y-23481000D01*
X-20377854Y-23179411D01*
X-19826428Y-22627985D01*
X-19688066Y-22962019D01*
X-18962019Y-23688066D01*
X-18645917Y-23819000D01*
X-22300764Y-23819000D01*
X-23819000Y-22300764D01*
X-23819000Y-6401724D01*
X-18762118Y-6401724D01*
X-18614545Y-6710106D01*
X-17859969Y-7003405D01*
X-17050591Y-6985614D01*
X-16385455Y-6710106D01*
X-16237882Y-6401724D01*
X-17500000Y-5139605D01*
X-18762118Y-6401724D01*
X-23819000Y-6401724D01*
X-23819000Y-4600031D01*
X-19543405Y-4600031D01*
X-19525614Y-5409409D01*
X-19250106Y-6074545D01*
X-18941724Y-6222118D01*
X-17679605Y-4960000D01*
X-17320395Y-4960000D01*
X-16058276Y-6222118D01*
X-15749894Y-6074545D01*
X-15456595Y-5319969D01*
X-15474386Y-4510591D01*
X-15749894Y-3845455D01*
X-16058276Y-3697882D01*
X-17320395Y-4960000D01*
X-17679605Y-4960000D01*
X-18941724Y-3697882D01*
X-19250106Y-3845455D01*
X-19543405Y-4600031D01*
X-23819000Y-4600031D01*
X-23819000Y-3518276D01*
X-18762118Y-3518276D01*
X-17500000Y-4780395D01*
X-16237882Y-3518276D01*
X-16385455Y-3209894D01*
X-17140031Y-2916595D01*
X-17949409Y-2934386D01*
X-18614545Y-3209894D01*
X-18762118Y-3518276D01*
X-23819000Y-3518276D01*
X-23819000Y6314263D01*
X-19281000Y6314263D01*
X-19281000Y5605737D01*
X-19009859Y4951144D01*
X-18508856Y4450141D01*
X-17854263Y4179000D01*
X-17145737Y4179000D01*
X-16491144Y4450141D01*
X-15990141Y4951144D01*
X-15833628Y5329000D01*
X-15471368Y5329000D01*
X-8327000Y-1815369D01*
X-8327000Y-2300000D01*
X-8317333Y-2348601D01*
X-8289803Y-2389803D01*
X-8285228Y-2392860D01*
X-15301368Y-9409000D01*
X-15833628Y-9409000D01*
X-15990141Y-9031144D01*
X-16491144Y-8530141D01*
X-17145737Y-8259000D01*
X-17854263Y-8259000D01*
X-18508856Y-8530141D01*
X-19009859Y-9031144D01*
X-19281000Y-9685737D01*
X-19281000Y-10394263D01*
X-19009859Y-11048856D01*
X-18508856Y-11549859D01*
X-17854263Y-11821000D01*
X-17145737Y-11821000D01*
X-16491144Y-11549859D01*
X-15990141Y-11048856D01*
X-15833628Y-10671000D01*
X-15102148Y-10671000D01*
X-15040000Y-10683362D01*
X-14977852Y-10671000D01*
X-14793796Y-10634389D01*
X-14782738Y-10627000D01*
X-11631000Y-10627000D01*
X-11630999Y-14937847D01*
X-11643362Y-15000000D01*
X-11594389Y-15246203D01*
X-11564386Y-15291106D01*
X-11454925Y-15454926D01*
X-11402238Y-15490130D01*
X-9990131Y-16902238D01*
X-9954926Y-16954926D01*
X-9746204Y-17094389D01*
X-9562148Y-17131000D01*
X-9500001Y-17143362D01*
X-9437854Y-17131000D01*
X-8358464Y-17131000D01*
X-8358464Y-17350000D01*
X-8328894Y-17498659D01*
X-8327000Y-17501494D01*
X-8327000Y-17700000D01*
X-8317333Y-17748601D01*
X-8289803Y-17789803D01*
X-8248601Y-17817333D01*
X-8200000Y-17827000D01*
X7830406Y-17827000D01*
X7986253Y-17858000D01*
X8253747Y-17858000D01*
X8409594Y-17827000D01*
X8700000Y-17827000D01*
X8748601Y-17817333D01*
X8789803Y-17789803D01*
X9389803Y-17189803D01*
X9417333Y-17148601D01*
X9427000Y-17100000D01*
X9427000Y-16890141D01*
X9504604Y-16500000D01*
X9427000Y-16109859D01*
X9427000Y-15381000D01*
X14586767Y-15381000D01*
X14843749Y-15329883D01*
X15135165Y-15135165D01*
X15329883Y-14843749D01*
X15398259Y-14500000D01*
X15329883Y-14156251D01*
X15135165Y-13864835D01*
X14843749Y-13670117D01*
X14586767Y-13619000D01*
X9931000Y-13619000D01*
X9931000Y-13314649D01*
X18769000Y-13314649D01*
X18769000Y-13625351D01*
X18887900Y-13912401D01*
X19107599Y-14132100D01*
X19394649Y-14251000D01*
X19705351Y-14251000D01*
X19992401Y-14132100D01*
X20212100Y-13912401D01*
X20331000Y-13625351D01*
X20331000Y-13314649D01*
X20212100Y-13027599D01*
X19992401Y-12807900D01*
X19705351Y-12689000D01*
X19394649Y-12689000D01*
X19107599Y-12807900D01*
X18887900Y-13027599D01*
X18769000Y-13314649D01*
X9931000Y-13314649D01*
X9931000Y-12817065D01*
X9944340Y-12750000D01*
X9931000Y-12682935D01*
X9931000Y-12682931D01*
X9891487Y-12484287D01*
X9858965Y-12435615D01*
X9778964Y-12315885D01*
X9778963Y-12315884D01*
X9740972Y-12259027D01*
X9684116Y-12221037D01*
X8816467Y-11353389D01*
X8778473Y-11296527D01*
X8553213Y-11146013D01*
X8354569Y-11106500D01*
X8354565Y-11106500D01*
X8287500Y-11093160D01*
X8220435Y-11106500D01*
X7636399Y-11106500D01*
X7591308Y-11076371D01*
X7777177Y-10952177D01*
X7936874Y-10713174D01*
X7992952Y-10431250D01*
X7992952Y-9993750D01*
X7936874Y-9711826D01*
X7876186Y-9621000D01*
X7894343Y-9621000D01*
X10843710Y-12570368D01*
X10876123Y-12618877D01*
X10924632Y-12651290D01*
X10924633Y-12651291D01*
X11004903Y-12704926D01*
X11068305Y-12747290D01*
X11237778Y-12781000D01*
X11237782Y-12781000D01*
X11295000Y-12792381D01*
X11352218Y-12781000D01*
X14093119Y-12781000D01*
X14334541Y-12881000D01*
X14605459Y-12881000D01*
X14855756Y-12777324D01*
X15007011Y-12626069D01*
X15098718Y-12626994D01*
X15148601Y-12617333D01*
X15189803Y-12589803D01*
X15217333Y-12548601D01*
X15227000Y-12500000D01*
X15227000Y-8971000D01*
X19173119Y-8971000D01*
X19414541Y-9071000D01*
X19685459Y-9071000D01*
X19935756Y-8967324D01*
X20127324Y-8775756D01*
X20231000Y-8525459D01*
X20231000Y-8254541D01*
X20127324Y-8004244D01*
X19935756Y-7812676D01*
X19685459Y-7709000D01*
X19414541Y-7709000D01*
X19173119Y-7809000D01*
X15227000Y-7809000D01*
X15227000Y-6431000D01*
X19173119Y-6431000D01*
X19414541Y-6531000D01*
X19685459Y-6531000D01*
X19935756Y-6427324D01*
X20127324Y-6235756D01*
X20231000Y-5985459D01*
X20231000Y-5714541D01*
X20127324Y-5464244D01*
X19935756Y-5272676D01*
X19685459Y-5169000D01*
X19414541Y-5169000D01*
X19173119Y-5269000D01*
X15227000Y-5269000D01*
X15227000Y-3891000D01*
X19173119Y-3891000D01*
X19414541Y-3991000D01*
X19685459Y-3991000D01*
X19935756Y-3887324D01*
X20127324Y-3695756D01*
X20231000Y-3445459D01*
X20231000Y-3174541D01*
X20127324Y-2924244D01*
X19935756Y-2732676D01*
X19685459Y-2629000D01*
X19414541Y-2629000D01*
X19173119Y-2729000D01*
X13800658Y-2729000D01*
X12121292Y-1049635D01*
X12088877Y-1001123D01*
X11896695Y-872710D01*
X11727222Y-839000D01*
X11727218Y-839000D01*
X11670000Y-827619D01*
X11612782Y-839000D01*
X6227000Y-839000D01*
X6227000Y-762958D01*
X6217333Y-714357D01*
X6189803Y-673155D01*
X6148601Y-645625D01*
X6100000Y-635958D01*
X3598016Y-635958D01*
X3549395Y-645634D01*
X3508198Y-673171D01*
X3480675Y-714377D01*
X3471016Y-762980D01*
X3473000Y-12262980D01*
X3482667Y-12311559D01*
X3510197Y-12352761D01*
X3551399Y-12380291D01*
X3600000Y-12389958D01*
X5963376Y-12389958D01*
X6021787Y-12428987D01*
X6220431Y-12468500D01*
X6220434Y-12468500D01*
X6287499Y-12481840D01*
X6354564Y-12468500D01*
X6363601Y-12468500D01*
X6511379Y-12567243D01*
X6743750Y-12613464D01*
X7256250Y-12613464D01*
X7488621Y-12567243D01*
X7636399Y-12468500D01*
X8005422Y-12468500D01*
X8569000Y-13032079D01*
X8569000Y-13619000D01*
X5836761Y-13619000D01*
X5749999Y-13601742D01*
X5663238Y-13619000D01*
X5663233Y-13619000D01*
X5406251Y-13670117D01*
X5114835Y-13864835D01*
X5065683Y-13938396D01*
X5018396Y-13985683D01*
X4944835Y-14034835D01*
X4750117Y-14326252D01*
X4699000Y-14583234D01*
X4699000Y-14583237D01*
X4681742Y-14670000D01*
X4699000Y-14756763D01*
X4699000Y-14873000D01*
X3671000Y-14873000D01*
X3671000Y-13852146D01*
X3683362Y-13789999D01*
X3659516Y-13670117D01*
X3634389Y-13543796D01*
X3494926Y-13335074D01*
X3442239Y-13299870D01*
X-1219867Y-8637765D01*
X-1255074Y-8585074D01*
X-1463796Y-8445611D01*
X-1647852Y-8409000D01*
X-1710000Y-8396638D01*
X-1772148Y-8409000D01*
X-2473000Y-8409000D01*
X-2473000Y-800000D01*
X-2482667Y-751399D01*
X-2510197Y-710197D01*
X-2551399Y-682667D01*
X-2600000Y-673000D01*
X-5101984Y-673000D01*
X-5150605Y-682676D01*
X-5191802Y-710213D01*
X-5219325Y-751419D01*
X-5226794Y-789000D01*
X-7568631Y-789000D01*
X-14719867Y6362235D01*
X-14755074Y6414926D01*
X-14963796Y6554389D01*
X-15147852Y6591000D01*
X-15210000Y6603362D01*
X-15272148Y6591000D01*
X-15833628Y6591000D01*
X-15990141Y6968856D01*
X-16491144Y7469859D01*
X-17145737Y7741000D01*
X-17854263Y7741000D01*
X-18508856Y7469859D01*
X-19009859Y6968856D01*
X-19281000Y6314263D01*
X-23819000Y6314263D01*
X-23819000Y9598276D01*
X-18762118Y9598276D01*
X-18614545Y9289894D01*
X-17859969Y8996595D01*
X-17050591Y9014386D01*
X-16385455Y9289894D01*
X-16237882Y9598276D01*
X-17500000Y10860395D01*
X-18762118Y9598276D01*
X-23819000Y9598276D01*
X-23819000Y11399969D01*
X-19543405Y11399969D01*
X-19525614Y10590591D01*
X-19250106Y9925455D01*
X-18941724Y9777882D01*
X-17679605Y11040000D01*
X-17320395Y11040000D01*
X-16058276Y9777882D01*
X-15749894Y9925455D01*
X-15456595Y10680031D01*
X-15474386Y11489409D01*
X-15749894Y12154545D01*
X-16058276Y12302118D01*
X-17320395Y11040000D01*
X-17679605Y11040000D01*
X-18941724Y12302118D01*
X-19250106Y12154545D01*
X-19543405Y11399969D01*
X-23819000Y11399969D01*
X-23819000Y12481724D01*
X-18762118Y12481724D01*
X-17500000Y11219605D01*
X-16237882Y12481724D01*
X-16385455Y12790106D01*
X-17140031Y13083405D01*
X-17949409Y13065614D01*
X-18614545Y12790106D01*
X-18762118Y12481724D01*
X-23819000Y12481724D01*
X-23819000Y13135459D01*
X-12181000Y13135459D01*
X-12181000Y12864541D01*
X-12077324Y12614244D01*
X-11963080Y12500000D01*
X-12077324Y12385756D01*
X-12181000Y12135459D01*
X-12181000Y11864541D01*
X-12077324Y11614244D01*
X-11885756Y11422676D01*
X-11635459Y11319000D01*
X-11364541Y11319000D01*
X-11114244Y11422676D01*
X-10922676Y11614244D01*
X-10920706Y11619000D01*
X-10859200Y11619000D01*
X-10867952Y11575000D01*
X-10867952Y11425000D01*
X-10822816Y11198087D01*
X-10807390Y11175000D01*
X-10822816Y11151913D01*
X-10867952Y10925000D01*
X-10867952Y10775000D01*
X-10858937Y10729679D01*
X-11007186Y10700190D01*
X-11182829Y10582829D01*
X-11212452Y10538495D01*
X-11338497Y10412450D01*
X-11382828Y10382829D01*
X-11412449Y10338498D01*
X-11412451Y10338496D01*
X-11500190Y10207185D01*
X-11541401Y10000000D01*
X-11530999Y9947705D01*
X-11531000Y8052290D01*
X-11541401Y8000000D01*
X-11531000Y7947710D01*
X-11531000Y7947707D01*
X-11500190Y7792815D01*
X-11382829Y7617171D01*
X-11338495Y7587548D01*
X-9912452Y6161505D01*
X-9882829Y6117171D01*
X-9707186Y5999810D01*
X-9552294Y5969000D01*
X-9552291Y5969000D01*
X-9500001Y5958599D01*
X-9447711Y5969000D01*
X-3702290Y5969000D01*
X-3650000Y5958599D01*
X-3597710Y5969000D01*
X-3597706Y5969000D01*
X-3442814Y5999810D01*
X-3267171Y6117171D01*
X-3237548Y6161505D01*
X-822487Y8576566D01*
X6065685Y1688393D01*
X6114835Y1614835D01*
X6406251Y1420117D01*
X6663233Y1369000D01*
X6663238Y1369000D01*
X6749999Y1351742D01*
X6836761Y1369000D01*
X8163237Y1369000D01*
X8250000Y1351742D01*
X8336763Y1369000D01*
X8336767Y1369000D01*
X8593749Y1420117D01*
X8885165Y1614835D01*
X8934317Y1688396D01*
X11684314Y4438392D01*
X11829882Y4656251D01*
X11898258Y4999999D01*
X11829882Y5343748D01*
X11635164Y5635164D01*
X11343748Y5829882D01*
X10999999Y5898258D01*
X10656251Y5829882D01*
X10438392Y5684314D01*
X7885079Y3131000D01*
X7114922Y3131000D01*
X206000Y10039921D01*
X206000Y11017698D01*
X212500Y11050376D01*
X220257Y11011379D01*
X351885Y10814385D01*
X548879Y10682757D01*
X781250Y10636536D01*
X1218750Y10636536D01*
X1451121Y10682757D01*
X1648115Y10814385D01*
X1697446Y10888213D01*
X1864541Y10819000D01*
X2135459Y10819000D01*
X2385756Y10922676D01*
X2577324Y11114244D01*
X2677324Y11355667D01*
X2740658Y11419000D01*
X4057222Y11419000D01*
X4132048Y11433884D01*
X4132048Y11425000D01*
X4177184Y11198087D01*
X4192610Y11175000D01*
X4177184Y11151913D01*
X4132048Y10925000D01*
X4132048Y10775000D01*
X4177184Y10548087D01*
X4192610Y10525000D01*
X4177184Y10501913D01*
X4132048Y10275000D01*
X4132048Y10125000D01*
X4177184Y9898087D01*
X4305720Y9705720D01*
X4498087Y9577184D01*
X4725000Y9532048D01*
X5325000Y9532048D01*
X5507652Y9568380D01*
X5531976Y9531976D01*
X5682677Y9431281D01*
X5661536Y9325000D01*
X5661536Y8725000D01*
X5696815Y8547640D01*
X5797281Y8397281D01*
X5947640Y8296815D01*
X6125000Y8261536D01*
X6275000Y8261536D01*
X6452360Y8296815D01*
X6525000Y8345351D01*
X6597640Y8296815D01*
X6775000Y8261536D01*
X6925000Y8261536D01*
X7038159Y8284045D01*
X7198087Y8177184D01*
X7425000Y8132048D01*
X7575000Y8132048D01*
X7801913Y8177184D01*
X7961841Y8284045D01*
X8075000Y8261536D01*
X8225000Y8261536D01*
X8402360Y8296815D01*
X8475000Y8345351D01*
X8547640Y8296815D01*
X8725000Y8261536D01*
X8875000Y8261536D01*
X9052360Y8296815D01*
X9202719Y8397281D01*
X9303185Y8547640D01*
X9338464Y8725000D01*
X9338464Y9325000D01*
X9317323Y9431281D01*
X9468024Y9531976D01*
X9492348Y9568380D01*
X9675000Y9532048D01*
X10275000Y9532048D01*
X10501913Y9577184D01*
X10529106Y9595354D01*
X10563126Y9424326D01*
X10722823Y9185323D01*
X10961826Y9025626D01*
X11243750Y8969548D01*
X11756250Y8969548D01*
X12038174Y9025626D01*
X12277177Y9185323D01*
X12436874Y9424326D01*
X12492952Y9706250D01*
X12492952Y10143750D01*
X12436874Y10425674D01*
X12277177Y10664677D01*
X12091308Y10788871D01*
X12185615Y10851885D01*
X12197051Y10869000D01*
X12743830Y10869000D01*
X12864541Y10819000D01*
X13135459Y10819000D01*
X13385756Y10922676D01*
X13577324Y11114244D01*
X13681000Y11364541D01*
X13681000Y11635459D01*
X13577324Y11885756D01*
X13385756Y12077324D01*
X13135459Y12181000D01*
X12864541Y12181000D01*
X12743830Y12131000D01*
X12197051Y12131000D01*
X12185615Y12148115D01*
X11988621Y12279743D01*
X11756250Y12325964D01*
X11243750Y12325964D01*
X11011379Y12279743D01*
X10867952Y12183908D01*
X10867952Y12225000D01*
X10822816Y12451913D01*
X10807390Y12475000D01*
X10822816Y12498087D01*
X10867952Y12725000D01*
X10867952Y12875000D01*
X10822816Y13101913D01*
X10694280Y13294280D01*
X10501913Y13422816D01*
X10275000Y13467952D01*
X9675000Y13467952D01*
X9492348Y13431620D01*
X9468024Y13468024D01*
X9431620Y13492348D01*
X9467952Y13675000D01*
X9467952Y14275000D01*
X9422816Y14501913D01*
X9340338Y14625351D01*
X18769000Y14625351D01*
X18769000Y14314649D01*
X18887900Y14027599D01*
X19107599Y13807900D01*
X19394649Y13689000D01*
X19705351Y13689000D01*
X19992401Y13807900D01*
X20212100Y14027599D01*
X20331000Y14314649D01*
X20331000Y14625351D01*
X20212100Y14912401D01*
X19992401Y15132100D01*
X19705351Y15251000D01*
X19394649Y15251000D01*
X19107599Y15132100D01*
X18887900Y14912401D01*
X18769000Y14625351D01*
X9340338Y14625351D01*
X9294280Y14694280D01*
X9101913Y14822816D01*
X8875000Y14867952D01*
X8725000Y14867952D01*
X8681000Y14859200D01*
X8681000Y16390053D01*
X9207881Y16916934D01*
X9685737Y16719000D01*
X10394263Y16719000D01*
X11048856Y16990141D01*
X11549859Y17491144D01*
X11821000Y18145737D01*
X11821000Y18854263D01*
X11549859Y19508856D01*
X11048856Y20009859D01*
X10394263Y20281000D01*
X9685737Y20281000D01*
X9031144Y20009859D01*
X8530141Y19508856D01*
X8259000Y18854263D01*
X8259000Y18145737D01*
X8456934Y17667881D01*
X7811503Y17022450D01*
X7767172Y16992829D01*
X7737551Y16948498D01*
X7737549Y16948496D01*
X7649810Y16817185D01*
X7608599Y16610000D01*
X7619001Y16557705D01*
X7619000Y14859200D01*
X7575000Y14867952D01*
X7425000Y14867952D01*
X7381000Y14859200D01*
X7381000Y16557706D01*
X7391402Y16610000D01*
X7350190Y16817185D01*
X7350190Y16817186D01*
X7232829Y16992829D01*
X7188495Y17022452D01*
X6543066Y17667881D01*
X6741000Y18145737D01*
X6741000Y18854263D01*
X6469859Y19508856D01*
X5968856Y20009859D01*
X5314263Y20281000D01*
X4605737Y20281000D01*
X3951144Y20009859D01*
X3450141Y19508856D01*
X3179000Y18854263D01*
X3179000Y18145737D01*
X3450141Y17491144D01*
X3951144Y16990141D01*
X4605737Y16719000D01*
X5314263Y16719000D01*
X5792119Y16916934D01*
X6319001Y16390052D01*
X6319000Y14859200D01*
X6275000Y14867952D01*
X6125000Y14867952D01*
X5898087Y14822816D01*
X5705720Y14694280D01*
X5577184Y14501913D01*
X5532048Y14275000D01*
X5532048Y13675000D01*
X5568380Y13492348D01*
X5531976Y13468024D01*
X5431281Y13317323D01*
X5325000Y13338464D01*
X4725000Y13338464D01*
X4687476Y13331000D01*
X4477595Y13331000D01*
X4418877Y13418877D01*
X4226695Y13547290D01*
X4057222Y13581000D01*
X2740658Y13581000D01*
X2677324Y13644333D01*
X2577324Y13885756D01*
X2385756Y14077324D01*
X2135459Y14181000D01*
X1864541Y14181000D01*
X1697446Y14111787D01*
X1648115Y14185615D01*
X1451121Y14317243D01*
X1218750Y14363464D01*
X781250Y14363464D01*
X548879Y14317243D01*
X351885Y14185615D01*
X220257Y13988621D01*
X212500Y13949624D01*
X204743Y13988621D01*
X73115Y14185615D01*
X-123879Y14317243D01*
X-356250Y14363464D01*
X-793750Y14363464D01*
X-1026121Y14317243D01*
X-1223115Y14185615D01*
X-1354743Y13988621D01*
X-1400964Y13756250D01*
X-1400964Y13243750D01*
X-1355999Y13017695D01*
X-1356000Y12281000D01*
X-3017698Y12281000D01*
X-3243750Y12325964D01*
X-3756250Y12325964D01*
X-3988621Y12279743D01*
X-4132048Y12183908D01*
X-4132048Y12225000D01*
X-4177184Y12451913D01*
X-4192610Y12475000D01*
X-4177184Y12498087D01*
X-4132048Y12725000D01*
X-4132048Y12875000D01*
X-4177184Y13101913D01*
X-4305720Y13294280D01*
X-4498087Y13422816D01*
X-4725000Y13467952D01*
X-5325000Y13467952D01*
X-5507652Y13431620D01*
X-5531976Y13468024D01*
X-5568380Y13492348D01*
X-5532048Y13675000D01*
X-5532048Y14275000D01*
X-5577184Y14501913D01*
X-5705720Y14694280D01*
X-5898087Y14822816D01*
X-6125000Y14867952D01*
X-6275000Y14867952D01*
X-6319000Y14859200D01*
X-6319000Y16390053D01*
X-5792119Y16916934D01*
X-5314263Y16719000D01*
X-4605737Y16719000D01*
X-3951144Y16990141D01*
X-3450141Y17491144D01*
X-3179000Y18145737D01*
X-3179000Y18854263D01*
X-3450141Y19508856D01*
X-3951144Y20009859D01*
X-4605737Y20281000D01*
X-5314263Y20281000D01*
X-5968856Y20009859D01*
X-6469859Y19508856D01*
X-6741000Y18854263D01*
X-6741000Y18145737D01*
X-6543066Y17667881D01*
X-7188497Y17022450D01*
X-7232828Y16992829D01*
X-7262449Y16948498D01*
X-7262451Y16948496D01*
X-7350190Y16817185D01*
X-7391401Y16610000D01*
X-7380999Y16557705D01*
X-7381000Y14859200D01*
X-7425000Y14867952D01*
X-7575000Y14867952D01*
X-7619000Y14859200D01*
X-7619000Y16557706D01*
X-7608598Y16610000D01*
X-7649810Y16817185D01*
X-7649810Y16817186D01*
X-7767171Y16992829D01*
X-7811505Y17022452D01*
X-8456934Y17667881D01*
X-8259000Y18145737D01*
X-8259000Y18854263D01*
X-8530141Y19508856D01*
X-9031144Y20009859D01*
X-9685737Y20281000D01*
X-10394263Y20281000D01*
X-11048856Y20009859D01*
X-11549859Y19508856D01*
X-11821000Y18854263D01*
X-11821000Y18145737D01*
X-11549859Y17491144D01*
X-11048856Y16990141D01*
X-10394263Y16719000D01*
X-9685737Y16719000D01*
X-9207881Y16916934D01*
X-8680999Y16390052D01*
X-8681000Y14859200D01*
X-8725000Y14867952D01*
X-8875000Y14867952D01*
X-9101913Y14822816D01*
X-9294280Y14694280D01*
X-9422816Y14501913D01*
X-9467952Y14275000D01*
X-9467952Y13675000D01*
X-9431620Y13492348D01*
X-9468024Y13468024D01*
X-9568719Y13317323D01*
X-9675000Y13338464D01*
X-10275000Y13338464D01*
X-10312524Y13331000D01*
X-10899995Y13331000D01*
X-10922676Y13385756D01*
X-11114244Y13577324D01*
X-11364541Y13681000D01*
X-11635459Y13681000D01*
X-11885756Y13577324D01*
X-12077324Y13385756D01*
X-12181000Y13135459D01*
X-23819000Y13135459D01*
X-23819000Y23300764D01*
X-22300764Y24819000D01*
X-18645917Y24819000D01*
X-18962019Y24688066D01*
X-18962019Y24688066D01*
G37*
X-18962019Y24688066D02*
X-19688066Y23962019D01*
X-19826428Y23627985D01*
X-20377854Y24179411D01*
X-21105955Y24481000D01*
X-21894045Y24481000D01*
X-22622146Y24179411D01*
X-23179411Y23622146D01*
X-23481000Y22894045D01*
X-23481000Y22105955D01*
X-23179411Y21377854D01*
X-22622146Y20820589D01*
X-21894045Y20519000D01*
X-21105955Y20519000D01*
X-20377854Y20820589D01*
X-19826428Y21372015D01*
X-19688066Y21037981D01*
X-18962019Y20311934D01*
X-18013393Y19919000D01*
X-16986607Y19919000D01*
X-16037981Y20311934D01*
X-15311934Y21037981D01*
X-14919000Y21986607D01*
X-14919000Y23013393D01*
X-15311934Y23962019D01*
X-16037981Y24688066D01*
X-16354083Y24819000D01*
X17354083Y24819000D01*
X17037981Y24688066D01*
X16311934Y23962019D01*
X15919000Y23013393D01*
X15919000Y21986607D01*
X16311934Y21037981D01*
X17037981Y20311934D01*
X17986607Y19919000D01*
X19013393Y19919000D01*
X19962019Y20311934D01*
X20688066Y21037981D01*
X20826428Y21372015D01*
X21377854Y20820589D01*
X22105955Y20519000D01*
X22894045Y20519000D01*
X23622146Y20820589D01*
X24179411Y21377854D01*
X24481000Y22105955D01*
X24481000Y22894045D01*
X24179411Y23622146D01*
X23622146Y24179411D01*
X22894045Y24481000D01*
X22105955Y24481000D01*
X21377854Y24179411D01*
X20826428Y23627985D01*
X20688066Y23962019D01*
X19962019Y24688066D01*
X19645917Y24819000D01*
X23300764Y24819000D01*
X24819001Y23300763D01*
X24819000Y-22300764D01*
X23300764Y-23819000D01*
X19645917Y-23819000D01*
X19962019Y-23688066D01*
X20688066Y-22962019D01*
X20826428Y-22627985D01*
X21377854Y-23179411D01*
X22105955Y-23481000D01*
X22894045Y-23481000D01*
X23622146Y-23179411D01*
X24179411Y-22622146D01*
X24481000Y-21894045D01*
X24481000Y-21105955D01*
X24179411Y-20377854D01*
X23622146Y-19820589D01*
X22894045Y-19519000D01*
X22105955Y-19519000D01*
X21377854Y-19820589D01*
X20826428Y-20372015D01*
X20688066Y-20037981D01*
X19962019Y-19311934D01*
X19013393Y-18919000D01*
X17986607Y-18919000D01*
X17037981Y-19311934D01*
X16311934Y-20037981D01*
X15919000Y-20986607D01*
X15919000Y-22013393D01*
X16311934Y-22962019D01*
X17037981Y-23688066D01*
X17354083Y-23819000D01*
X-16354083Y-23819000D01*
X-16037981Y-23688066D01*
X-15311934Y-22962019D01*
X-14919000Y-22013393D01*
X-14919000Y-20986607D01*
X-15311934Y-20037981D01*
X-16037981Y-19311934D01*
X-16986607Y-18919000D01*
X-18013393Y-18919000D01*
X-18962019Y-19311934D01*
X-19688066Y-20037981D01*
X-19826428Y-20372015D01*
X-20377854Y-19820589D01*
X-21105955Y-19519000D01*
X-21894045Y-19519000D01*
X-22622146Y-19820589D01*
X-23179411Y-20377854D01*
X-23481000Y-21105955D01*
X-23481000Y-21894045D01*
X-23179411Y-22622146D01*
X-22622146Y-23179411D01*
X-21894045Y-23481000D01*
X-21105955Y-23481000D01*
X-20377854Y-23179411D01*
X-19826428Y-22627985D01*
X-19688066Y-22962019D01*
X-18962019Y-23688066D01*
X-18645917Y-23819000D01*
X-22300764Y-23819000D01*
X-23819000Y-22300764D01*
X-23819000Y-6401724D01*
X-18762118Y-6401724D01*
X-18614545Y-6710106D01*
X-17859969Y-7003405D01*
X-17050591Y-6985614D01*
X-16385455Y-6710106D01*
X-16237882Y-6401724D01*
X-17500000Y-5139605D01*
X-18762118Y-6401724D01*
X-23819000Y-6401724D01*
X-23819000Y-4600031D01*
X-19543405Y-4600031D01*
X-19525614Y-5409409D01*
X-19250106Y-6074545D01*
X-18941724Y-6222118D01*
X-17679605Y-4960000D01*
X-17320395Y-4960000D01*
X-16058276Y-6222118D01*
X-15749894Y-6074545D01*
X-15456595Y-5319969D01*
X-15474386Y-4510591D01*
X-15749894Y-3845455D01*
X-16058276Y-3697882D01*
X-17320395Y-4960000D01*
X-17679605Y-4960000D01*
X-18941724Y-3697882D01*
X-19250106Y-3845455D01*
X-19543405Y-4600031D01*
X-23819000Y-4600031D01*
X-23819000Y-3518276D01*
X-18762118Y-3518276D01*
X-17500000Y-4780395D01*
X-16237882Y-3518276D01*
X-16385455Y-3209894D01*
X-17140031Y-2916595D01*
X-17949409Y-2934386D01*
X-18614545Y-3209894D01*
X-18762118Y-3518276D01*
X-23819000Y-3518276D01*
X-23819000Y6314263D01*
X-19281000Y6314263D01*
X-19281000Y5605737D01*
X-19009859Y4951144D01*
X-18508856Y4450141D01*
X-17854263Y4179000D01*
X-17145737Y4179000D01*
X-16491144Y4450141D01*
X-15990141Y4951144D01*
X-15833628Y5329000D01*
X-15471368Y5329000D01*
X-8327000Y-1815369D01*
X-8327000Y-2300000D01*
X-8317333Y-2348601D01*
X-8289803Y-2389803D01*
X-8285228Y-2392860D01*
X-15301368Y-9409000D01*
X-15833628Y-9409000D01*
X-15990141Y-9031144D01*
X-16491144Y-8530141D01*
X-17145737Y-8259000D01*
X-17854263Y-8259000D01*
X-18508856Y-8530141D01*
X-19009859Y-9031144D01*
X-19281000Y-9685737D01*
X-19281000Y-10394263D01*
X-19009859Y-11048856D01*
X-18508856Y-11549859D01*
X-17854263Y-11821000D01*
X-17145737Y-11821000D01*
X-16491144Y-11549859D01*
X-15990141Y-11048856D01*
X-15833628Y-10671000D01*
X-15102148Y-10671000D01*
X-15040000Y-10683362D01*
X-14977852Y-10671000D01*
X-14793796Y-10634389D01*
X-14782738Y-10627000D01*
X-11631000Y-10627000D01*
X-11630999Y-14937847D01*
X-11643362Y-15000000D01*
X-11594389Y-15246203D01*
X-11564386Y-15291106D01*
X-11454925Y-15454926D01*
X-11402238Y-15490130D01*
X-9990131Y-16902238D01*
X-9954926Y-16954926D01*
X-9746204Y-17094389D01*
X-9562148Y-17131000D01*
X-9500001Y-17143362D01*
X-9437854Y-17131000D01*
X-8358464Y-17131000D01*
X-8358464Y-17350000D01*
X-8328894Y-17498659D01*
X-8327000Y-17501494D01*
X-8327000Y-17700000D01*
X-8317333Y-17748601D01*
X-8289803Y-17789803D01*
X-8248601Y-17817333D01*
X-8200000Y-17827000D01*
X7830406Y-17827000D01*
X7986253Y-17858000D01*
X8253747Y-17858000D01*
X8409594Y-17827000D01*
X8700000Y-17827000D01*
X8748601Y-17817333D01*
X8789803Y-17789803D01*
X9389803Y-17189803D01*
X9417333Y-17148601D01*
X9427000Y-17100000D01*
X9427000Y-16890141D01*
X9504604Y-16500000D01*
X9427000Y-16109859D01*
X9427000Y-15381000D01*
X14586767Y-15381000D01*
X14843749Y-15329883D01*
X15135165Y-15135165D01*
X15329883Y-14843749D01*
X15398259Y-14500000D01*
X15329883Y-14156251D01*
X15135165Y-13864835D01*
X14843749Y-13670117D01*
X14586767Y-13619000D01*
X9931000Y-13619000D01*
X9931000Y-13314649D01*
X18769000Y-13314649D01*
X18769000Y-13625351D01*
X18887900Y-13912401D01*
X19107599Y-14132100D01*
X19394649Y-14251000D01*
X19705351Y-14251000D01*
X19992401Y-14132100D01*
X20212100Y-13912401D01*
X20331000Y-13625351D01*
X20331000Y-13314649D01*
X20212100Y-13027599D01*
X19992401Y-12807900D01*
X19705351Y-12689000D01*
X19394649Y-12689000D01*
X19107599Y-12807900D01*
X18887900Y-13027599D01*
X18769000Y-13314649D01*
X9931000Y-13314649D01*
X9931000Y-12817065D01*
X9944340Y-12750000D01*
X9931000Y-12682935D01*
X9931000Y-12682931D01*
X9891487Y-12484287D01*
X9858965Y-12435615D01*
X9778964Y-12315885D01*
X9778963Y-12315884D01*
X9740972Y-12259027D01*
X9684116Y-12221037D01*
X8816467Y-11353389D01*
X8778473Y-11296527D01*
X8553213Y-11146013D01*
X8354569Y-11106500D01*
X8354565Y-11106500D01*
X8287500Y-11093160D01*
X8220435Y-11106500D01*
X7636399Y-11106500D01*
X7591308Y-11076371D01*
X7777177Y-10952177D01*
X7936874Y-10713174D01*
X7992952Y-10431250D01*
X7992952Y-9993750D01*
X7936874Y-9711826D01*
X7876186Y-9621000D01*
X7894343Y-9621000D01*
X10843710Y-12570368D01*
X10876123Y-12618877D01*
X10924632Y-12651290D01*
X10924633Y-12651291D01*
X11004903Y-12704926D01*
X11068305Y-12747290D01*
X11237778Y-12781000D01*
X11237782Y-12781000D01*
X11295000Y-12792381D01*
X11352218Y-12781000D01*
X14093119Y-12781000D01*
X14334541Y-12881000D01*
X14605459Y-12881000D01*
X14855756Y-12777324D01*
X15007011Y-12626069D01*
X15098718Y-12626994D01*
X15148601Y-12617333D01*
X15189803Y-12589803D01*
X15217333Y-12548601D01*
X15227000Y-12500000D01*
X15227000Y-8971000D01*
X19173119Y-8971000D01*
X19414541Y-9071000D01*
X19685459Y-9071000D01*
X19935756Y-8967324D01*
X20127324Y-8775756D01*
X20231000Y-8525459D01*
X20231000Y-8254541D01*
X20127324Y-8004244D01*
X19935756Y-7812676D01*
X19685459Y-7709000D01*
X19414541Y-7709000D01*
X19173119Y-7809000D01*
X15227000Y-7809000D01*
X15227000Y-6431000D01*
X19173119Y-6431000D01*
X19414541Y-6531000D01*
X19685459Y-6531000D01*
X19935756Y-6427324D01*
X20127324Y-6235756D01*
X20231000Y-5985459D01*
X20231000Y-5714541D01*
X20127324Y-5464244D01*
X19935756Y-5272676D01*
X19685459Y-5169000D01*
X19414541Y-5169000D01*
X19173119Y-5269000D01*
X15227000Y-5269000D01*
X15227000Y-3891000D01*
X19173119Y-3891000D01*
X19414541Y-3991000D01*
X19685459Y-3991000D01*
X19935756Y-3887324D01*
X20127324Y-3695756D01*
X20231000Y-3445459D01*
X20231000Y-3174541D01*
X20127324Y-2924244D01*
X19935756Y-2732676D01*
X19685459Y-2629000D01*
X19414541Y-2629000D01*
X19173119Y-2729000D01*
X13800658Y-2729000D01*
X12121292Y-1049635D01*
X12088877Y-1001123D01*
X11896695Y-872710D01*
X11727222Y-839000D01*
X11727218Y-839000D01*
X11670000Y-827619D01*
X11612782Y-839000D01*
X6227000Y-839000D01*
X6227000Y-762958D01*
X6217333Y-714357D01*
X6189803Y-673155D01*
X6148601Y-645625D01*
X6100000Y-635958D01*
X3598016Y-635958D01*
X3549395Y-645634D01*
X3508198Y-673171D01*
X3480675Y-714377D01*
X3471016Y-762980D01*
X3473000Y-12262980D01*
X3482667Y-12311559D01*
X3510197Y-12352761D01*
X3551399Y-12380291D01*
X3600000Y-12389958D01*
X5963376Y-12389958D01*
X6021787Y-12428987D01*
X6220431Y-12468500D01*
X6220434Y-12468500D01*
X6287499Y-12481840D01*
X6354564Y-12468500D01*
X6363601Y-12468500D01*
X6511379Y-12567243D01*
X6743750Y-12613464D01*
X7256250Y-12613464D01*
X7488621Y-12567243D01*
X7636399Y-12468500D01*
X8005422Y-12468500D01*
X8569000Y-13032079D01*
X8569000Y-13619000D01*
X5836761Y-13619000D01*
X5749999Y-13601742D01*
X5663238Y-13619000D01*
X5663233Y-13619000D01*
X5406251Y-13670117D01*
X5114835Y-13864835D01*
X5065683Y-13938396D01*
X5018396Y-13985683D01*
X4944835Y-14034835D01*
X4750117Y-14326252D01*
X4699000Y-14583234D01*
X4699000Y-14583237D01*
X4681742Y-14670000D01*
X4699000Y-14756763D01*
X4699000Y-14873000D01*
X3671000Y-14873000D01*
X3671000Y-13852146D01*
X3683362Y-13789999D01*
X3659516Y-13670117D01*
X3634389Y-13543796D01*
X3494926Y-13335074D01*
X3442239Y-13299870D01*
X-1219867Y-8637765D01*
X-1255074Y-8585074D01*
X-1463796Y-8445611D01*
X-1647852Y-8409000D01*
X-1710000Y-8396638D01*
X-1772148Y-8409000D01*
X-2473000Y-8409000D01*
X-2473000Y-800000D01*
X-2482667Y-751399D01*
X-2510197Y-710197D01*
X-2551399Y-682667D01*
X-2600000Y-673000D01*
X-5101984Y-673000D01*
X-5150605Y-682676D01*
X-5191802Y-710213D01*
X-5219325Y-751419D01*
X-5226794Y-789000D01*
X-7568631Y-789000D01*
X-14719867Y6362235D01*
X-14755074Y6414926D01*
X-14963796Y6554389D01*
X-15147852Y6591000D01*
X-15210000Y6603362D01*
X-15272148Y6591000D01*
X-15833628Y6591000D01*
X-15990141Y6968856D01*
X-16491144Y7469859D01*
X-17145737Y7741000D01*
X-17854263Y7741000D01*
X-18508856Y7469859D01*
X-19009859Y6968856D01*
X-19281000Y6314263D01*
X-23819000Y6314263D01*
X-23819000Y9598276D01*
X-18762118Y9598276D01*
X-18614545Y9289894D01*
X-17859969Y8996595D01*
X-17050591Y9014386D01*
X-16385455Y9289894D01*
X-16237882Y9598276D01*
X-17500000Y10860395D01*
X-18762118Y9598276D01*
X-23819000Y9598276D01*
X-23819000Y11399969D01*
X-19543405Y11399969D01*
X-19525614Y10590591D01*
X-19250106Y9925455D01*
X-18941724Y9777882D01*
X-17679605Y11040000D01*
X-17320395Y11040000D01*
X-16058276Y9777882D01*
X-15749894Y9925455D01*
X-15456595Y10680031D01*
X-15474386Y11489409D01*
X-15749894Y12154545D01*
X-16058276Y12302118D01*
X-17320395Y11040000D01*
X-17679605Y11040000D01*
X-18941724Y12302118D01*
X-19250106Y12154545D01*
X-19543405Y11399969D01*
X-23819000Y11399969D01*
X-23819000Y12481724D01*
X-18762118Y12481724D01*
X-17500000Y11219605D01*
X-16237882Y12481724D01*
X-16385455Y12790106D01*
X-17140031Y13083405D01*
X-17949409Y13065614D01*
X-18614545Y12790106D01*
X-18762118Y12481724D01*
X-23819000Y12481724D01*
X-23819000Y13135459D01*
X-12181000Y13135459D01*
X-12181000Y12864541D01*
X-12077324Y12614244D01*
X-11963080Y12500000D01*
X-12077324Y12385756D01*
X-12181000Y12135459D01*
X-12181000Y11864541D01*
X-12077324Y11614244D01*
X-11885756Y11422676D01*
X-11635459Y11319000D01*
X-11364541Y11319000D01*
X-11114244Y11422676D01*
X-10922676Y11614244D01*
X-10920706Y11619000D01*
X-10859200Y11619000D01*
X-10867952Y11575000D01*
X-10867952Y11425000D01*
X-10822816Y11198087D01*
X-10807390Y11175000D01*
X-10822816Y11151913D01*
X-10867952Y10925000D01*
X-10867952Y10775000D01*
X-10858937Y10729679D01*
X-11007186Y10700190D01*
X-11182829Y10582829D01*
X-11212452Y10538495D01*
X-11338497Y10412450D01*
X-11382828Y10382829D01*
X-11412449Y10338498D01*
X-11412451Y10338496D01*
X-11500190Y10207185D01*
X-11541401Y10000000D01*
X-11530999Y9947705D01*
X-11531000Y8052290D01*
X-11541401Y8000000D01*
X-11531000Y7947710D01*
X-11531000Y7947707D01*
X-11500190Y7792815D01*
X-11382829Y7617171D01*
X-11338495Y7587548D01*
X-9912452Y6161505D01*
X-9882829Y6117171D01*
X-9707186Y5999810D01*
X-9552294Y5969000D01*
X-9552291Y5969000D01*
X-9500001Y5958599D01*
X-9447711Y5969000D01*
X-3702290Y5969000D01*
X-3650000Y5958599D01*
X-3597710Y5969000D01*
X-3597706Y5969000D01*
X-3442814Y5999810D01*
X-3267171Y6117171D01*
X-3237548Y6161505D01*
X-822487Y8576566D01*
X6065685Y1688393D01*
X6114835Y1614835D01*
X6406251Y1420117D01*
X6663233Y1369000D01*
X6663238Y1369000D01*
X6749999Y1351742D01*
X6836761Y1369000D01*
X8163237Y1369000D01*
X8250000Y1351742D01*
X8336763Y1369000D01*
X8336767Y1369000D01*
X8593749Y1420117D01*
X8885165Y1614835D01*
X8934317Y1688396D01*
X11684314Y4438392D01*
X11829882Y4656251D01*
X11898258Y4999999D01*
X11829882Y5343748D01*
X11635164Y5635164D01*
X11343748Y5829882D01*
X10999999Y5898258D01*
X10656251Y5829882D01*
X10438392Y5684314D01*
X7885079Y3131000D01*
X7114922Y3131000D01*
X206000Y10039921D01*
X206000Y11017698D01*
X212500Y11050376D01*
X220257Y11011379D01*
X351885Y10814385D01*
X548879Y10682757D01*
X781250Y10636536D01*
X1218750Y10636536D01*
X1451121Y10682757D01*
X1648115Y10814385D01*
X1697446Y10888213D01*
X1864541Y10819000D01*
X2135459Y10819000D01*
X2385756Y10922676D01*
X2577324Y11114244D01*
X2677324Y11355667D01*
X2740658Y11419000D01*
X4057222Y11419000D01*
X4132048Y11433884D01*
X4132048Y11425000D01*
X4177184Y11198087D01*
X4192610Y11175000D01*
X4177184Y11151913D01*
X4132048Y10925000D01*
X4132048Y10775000D01*
X4177184Y10548087D01*
X4192610Y10525000D01*
X4177184Y10501913D01*
X4132048Y10275000D01*
X4132048Y10125000D01*
X4177184Y9898087D01*
X4305720Y9705720D01*
X4498087Y9577184D01*
X4725000Y9532048D01*
X5325000Y9532048D01*
X5507652Y9568380D01*
X5531976Y9531976D01*
X5682677Y9431281D01*
X5661536Y9325000D01*
X5661536Y8725000D01*
X5696815Y8547640D01*
X5797281Y8397281D01*
X5947640Y8296815D01*
X6125000Y8261536D01*
X6275000Y8261536D01*
X6452360Y8296815D01*
X6525000Y8345351D01*
X6597640Y8296815D01*
X6775000Y8261536D01*
X6925000Y8261536D01*
X7038159Y8284045D01*
X7198087Y8177184D01*
X7425000Y8132048D01*
X7575000Y8132048D01*
X7801913Y8177184D01*
X7961841Y8284045D01*
X8075000Y8261536D01*
X8225000Y8261536D01*
X8402360Y8296815D01*
X8475000Y8345351D01*
X8547640Y8296815D01*
X8725000Y8261536D01*
X8875000Y8261536D01*
X9052360Y8296815D01*
X9202719Y8397281D01*
X9303185Y8547640D01*
X9338464Y8725000D01*
X9338464Y9325000D01*
X9317323Y9431281D01*
X9468024Y9531976D01*
X9492348Y9568380D01*
X9675000Y9532048D01*
X10275000Y9532048D01*
X10501913Y9577184D01*
X10529106Y9595354D01*
X10563126Y9424326D01*
X10722823Y9185323D01*
X10961826Y9025626D01*
X11243750Y8969548D01*
X11756250Y8969548D01*
X12038174Y9025626D01*
X12277177Y9185323D01*
X12436874Y9424326D01*
X12492952Y9706250D01*
X12492952Y10143750D01*
X12436874Y10425674D01*
X12277177Y10664677D01*
X12091308Y10788871D01*
X12185615Y10851885D01*
X12197051Y10869000D01*
X12743830Y10869000D01*
X12864541Y10819000D01*
X13135459Y10819000D01*
X13385756Y10922676D01*
X13577324Y11114244D01*
X13681000Y11364541D01*
X13681000Y11635459D01*
X13577324Y11885756D01*
X13385756Y12077324D01*
X13135459Y12181000D01*
X12864541Y12181000D01*
X12743830Y12131000D01*
X12197051Y12131000D01*
X12185615Y12148115D01*
X11988621Y12279743D01*
X11756250Y12325964D01*
X11243750Y12325964D01*
X11011379Y12279743D01*
X10867952Y12183908D01*
X10867952Y12225000D01*
X10822816Y12451913D01*
X10807390Y12475000D01*
X10822816Y12498087D01*
X10867952Y12725000D01*
X10867952Y12875000D01*
X10822816Y13101913D01*
X10694280Y13294280D01*
X10501913Y13422816D01*
X10275000Y13467952D01*
X9675000Y13467952D01*
X9492348Y13431620D01*
X9468024Y13468024D01*
X9431620Y13492348D01*
X9467952Y13675000D01*
X9467952Y14275000D01*
X9422816Y14501913D01*
X9340338Y14625351D01*
X18769000Y14625351D01*
X18769000Y14314649D01*
X18887900Y14027599D01*
X19107599Y13807900D01*
X19394649Y13689000D01*
X19705351Y13689000D01*
X19992401Y13807900D01*
X20212100Y14027599D01*
X20331000Y14314649D01*
X20331000Y14625351D01*
X20212100Y14912401D01*
X19992401Y15132100D01*
X19705351Y15251000D01*
X19394649Y15251000D01*
X19107599Y15132100D01*
X18887900Y14912401D01*
X18769000Y14625351D01*
X9340338Y14625351D01*
X9294280Y14694280D01*
X9101913Y14822816D01*
X8875000Y14867952D01*
X8725000Y14867952D01*
X8681000Y14859200D01*
X8681000Y16390053D01*
X9207881Y16916934D01*
X9685737Y16719000D01*
X10394263Y16719000D01*
X11048856Y16990141D01*
X11549859Y17491144D01*
X11821000Y18145737D01*
X11821000Y18854263D01*
X11549859Y19508856D01*
X11048856Y20009859D01*
X10394263Y20281000D01*
X9685737Y20281000D01*
X9031144Y20009859D01*
X8530141Y19508856D01*
X8259000Y18854263D01*
X8259000Y18145737D01*
X8456934Y17667881D01*
X7811503Y17022450D01*
X7767172Y16992829D01*
X7737551Y16948498D01*
X7737549Y16948496D01*
X7649810Y16817185D01*
X7608599Y16610000D01*
X7619001Y16557705D01*
X7619000Y14859200D01*
X7575000Y14867952D01*
X7425000Y14867952D01*
X7381000Y14859200D01*
X7381000Y16557706D01*
X7391402Y16610000D01*
X7350190Y16817185D01*
X7350190Y16817186D01*
X7232829Y16992829D01*
X7188495Y17022452D01*
X6543066Y17667881D01*
X6741000Y18145737D01*
X6741000Y18854263D01*
X6469859Y19508856D01*
X5968856Y20009859D01*
X5314263Y20281000D01*
X4605737Y20281000D01*
X3951144Y20009859D01*
X3450141Y19508856D01*
X3179000Y18854263D01*
X3179000Y18145737D01*
X3450141Y17491144D01*
X3951144Y16990141D01*
X4605737Y16719000D01*
X5314263Y16719000D01*
X5792119Y16916934D01*
X6319001Y16390052D01*
X6319000Y14859200D01*
X6275000Y14867952D01*
X6125000Y14867952D01*
X5898087Y14822816D01*
X5705720Y14694280D01*
X5577184Y14501913D01*
X5532048Y14275000D01*
X5532048Y13675000D01*
X5568380Y13492348D01*
X5531976Y13468024D01*
X5431281Y13317323D01*
X5325000Y13338464D01*
X4725000Y13338464D01*
X4687476Y13331000D01*
X4477595Y13331000D01*
X4418877Y13418877D01*
X4226695Y13547290D01*
X4057222Y13581000D01*
X2740658Y13581000D01*
X2677324Y13644333D01*
X2577324Y13885756D01*
X2385756Y14077324D01*
X2135459Y14181000D01*
X1864541Y14181000D01*
X1697446Y14111787D01*
X1648115Y14185615D01*
X1451121Y14317243D01*
X1218750Y14363464D01*
X781250Y14363464D01*
X548879Y14317243D01*
X351885Y14185615D01*
X220257Y13988621D01*
X212500Y13949624D01*
X204743Y13988621D01*
X73115Y14185615D01*
X-123879Y14317243D01*
X-356250Y14363464D01*
X-793750Y14363464D01*
X-1026121Y14317243D01*
X-1223115Y14185615D01*
X-1354743Y13988621D01*
X-1400964Y13756250D01*
X-1400964Y13243750D01*
X-1355999Y13017695D01*
X-1356000Y12281000D01*
X-3017698Y12281000D01*
X-3243750Y12325964D01*
X-3756250Y12325964D01*
X-3988621Y12279743D01*
X-4132048Y12183908D01*
X-4132048Y12225000D01*
X-4177184Y12451913D01*
X-4192610Y12475000D01*
X-4177184Y12498087D01*
X-4132048Y12725000D01*
X-4132048Y12875000D01*
X-4177184Y13101913D01*
X-4305720Y13294280D01*
X-4498087Y13422816D01*
X-4725000Y13467952D01*
X-5325000Y13467952D01*
X-5507652Y13431620D01*
X-5531976Y13468024D01*
X-5568380Y13492348D01*
X-5532048Y13675000D01*
X-5532048Y14275000D01*
X-5577184Y14501913D01*
X-5705720Y14694280D01*
X-5898087Y14822816D01*
X-6125000Y14867952D01*
X-6275000Y14867952D01*
X-6319000Y14859200D01*
X-6319000Y16390053D01*
X-5792119Y16916934D01*
X-5314263Y16719000D01*
X-4605737Y16719000D01*
X-3951144Y16990141D01*
X-3450141Y17491144D01*
X-3179000Y18145737D01*
X-3179000Y18854263D01*
X-3450141Y19508856D01*
X-3951144Y20009859D01*
X-4605737Y20281000D01*
X-5314263Y20281000D01*
X-5968856Y20009859D01*
X-6469859Y19508856D01*
X-6741000Y18854263D01*
X-6741000Y18145737D01*
X-6543066Y17667881D01*
X-7188497Y17022450D01*
X-7232828Y16992829D01*
X-7262449Y16948498D01*
X-7262451Y16948496D01*
X-7350190Y16817185D01*
X-7391401Y16610000D01*
X-7380999Y16557705D01*
X-7381000Y14859200D01*
X-7425000Y14867952D01*
X-7575000Y14867952D01*
X-7619000Y14859200D01*
X-7619000Y16557706D01*
X-7608598Y16610000D01*
X-7649810Y16817185D01*
X-7649810Y16817186D01*
X-7767171Y16992829D01*
X-7811505Y17022452D01*
X-8456934Y17667881D01*
X-8259000Y18145737D01*
X-8259000Y18854263D01*
X-8530141Y19508856D01*
X-9031144Y20009859D01*
X-9685737Y20281000D01*
X-10394263Y20281000D01*
X-11048856Y20009859D01*
X-11549859Y19508856D01*
X-11821000Y18854263D01*
X-11821000Y18145737D01*
X-11549859Y17491144D01*
X-11048856Y16990141D01*
X-10394263Y16719000D01*
X-9685737Y16719000D01*
X-9207881Y16916934D01*
X-8680999Y16390052D01*
X-8681000Y14859200D01*
X-8725000Y14867952D01*
X-8875000Y14867952D01*
X-9101913Y14822816D01*
X-9294280Y14694280D01*
X-9422816Y14501913D01*
X-9467952Y14275000D01*
X-9467952Y13675000D01*
X-9431620Y13492348D01*
X-9468024Y13468024D01*
X-9568719Y13317323D01*
X-9675000Y13338464D01*
X-10275000Y13338464D01*
X-10312524Y13331000D01*
X-10899995Y13331000D01*
X-10922676Y13385756D01*
X-11114244Y13577324D01*
X-11364541Y13681000D01*
X-11635459Y13681000D01*
X-11885756Y13577324D01*
X-12077324Y13385756D01*
X-12181000Y13135459D01*
X-23819000Y13135459D01*
X-23819000Y23300764D01*
X-22300764Y24819000D01*
X-18645917Y24819000D01*
X-18962019Y24688066D01*
G36*
X2409000Y-14051369D02*
X2409000Y-14873000D01*
X974976Y-14873000D01*
X954926Y-14842993D01*
X902235Y-14807786D01*
X-1557786Y-12347765D01*
X-1592993Y-12295074D01*
X-1801715Y-12155611D01*
X-1985771Y-12119000D01*
X-2047919Y-12106638D01*
X-2110067Y-12119000D01*
X-2473000Y-12119000D01*
X-2473000Y-9671000D01*
X-1971368Y-9671000D01*
X2409000Y-14051369D01*
X2409000Y-14051369D01*
G37*
X2409000Y-14051369D02*
X2409000Y-14873000D01*
X974976Y-14873000D01*
X954926Y-14842993D01*
X902235Y-14807786D01*
X-1557786Y-12347765D01*
X-1592993Y-12295074D01*
X-1801715Y-12155611D01*
X-1985771Y-12119000D01*
X-2047919Y-12106638D01*
X-2110067Y-12119000D01*
X-2473000Y-12119000D01*
X-2473000Y-9671000D01*
X-1971368Y-9671000D01*
X2409000Y-14051369D01*
G36*
X-5227190Y-11200758D02*
X-5242952Y-11280000D01*
X-5242952Y-11880000D01*
X-5227059Y-11959901D01*
X-5227031Y-12119000D01*
X-5988632Y-12119000D01*
X-6619000Y-11488632D01*
X-6619000Y-9761368D01*
X-5258631Y-8401000D01*
X-5227673Y-8401000D01*
X-5227190Y-11200758D01*
X-5227190Y-11200758D01*
G37*
X-5227190Y-11200758D02*
X-5242952Y-11280000D01*
X-5242952Y-11880000D01*
X-5227059Y-11959901D01*
X-5227031Y-12119000D01*
X-5988632Y-12119000D01*
X-6619000Y-11488632D01*
X-6619000Y-9761368D01*
X-5258631Y-8401000D01*
X-5227673Y-8401000D01*
X-5227190Y-11200758D01*
G36*
X-1356000Y9991907D02*
X-1404883Y9918748D01*
X-1473258Y9575000D01*
X-1448818Y9452130D01*
X-3869947Y7031000D01*
X-9280053Y7031000D01*
X-10469000Y8219947D01*
X-10469000Y9669000D01*
X-10312524Y9669000D01*
X-10275000Y9661536D01*
X-9675000Y9661536D01*
X-9568719Y9682677D01*
X-9468024Y9531976D01*
X-9317323Y9431281D01*
X-9338464Y9325000D01*
X-9338464Y8725000D01*
X-9303185Y8547640D01*
X-9202719Y8397281D01*
X-9052360Y8296815D01*
X-8875000Y8261536D01*
X-8725000Y8261536D01*
X-8547640Y8296815D01*
X-8475000Y8345351D01*
X-8402360Y8296815D01*
X-8225000Y8261536D01*
X-8075000Y8261536D01*
X-7961841Y8284045D01*
X-7801913Y8177184D01*
X-7575000Y8132048D01*
X-7425000Y8132048D01*
X-7198087Y8177184D01*
X-7038159Y8284045D01*
X-6925000Y8261536D01*
X-6775000Y8261536D01*
X-6597640Y8296815D01*
X-6525000Y8345351D01*
X-6452360Y8296815D01*
X-6275000Y8261536D01*
X-6125000Y8261536D01*
X-5947640Y8296815D01*
X-5797281Y8397281D01*
X-5696815Y8547640D01*
X-5661536Y8725000D01*
X-5661536Y9325000D01*
X-5682677Y9431281D01*
X-5531976Y9531976D01*
X-5507652Y9568380D01*
X-5325000Y9532048D01*
X-4725000Y9532048D01*
X-4498087Y9577184D01*
X-4470894Y9595354D01*
X-4436874Y9424326D01*
X-4277177Y9185323D01*
X-4038174Y9025626D01*
X-3756250Y8969548D01*
X-3243750Y8969548D01*
X-2961826Y9025626D01*
X-2722823Y9185323D01*
X-2563126Y9424326D01*
X-2507048Y9706250D01*
X-2507048Y10143750D01*
X-2563126Y10425674D01*
X-2722823Y10664677D01*
X-2804123Y10719000D01*
X-1355999Y10719000D01*
X-1356000Y9991907D01*
X-1356000Y9991907D01*
G37*
X-1356000Y9991907D02*
X-1404883Y9918748D01*
X-1473258Y9575000D01*
X-1448818Y9452130D01*
X-3869947Y7031000D01*
X-9280053Y7031000D01*
X-10469000Y8219947D01*
X-10469000Y9669000D01*
X-10312524Y9669000D01*
X-10275000Y9661536D01*
X-9675000Y9661536D01*
X-9568719Y9682677D01*
X-9468024Y9531976D01*
X-9317323Y9431281D01*
X-9338464Y9325000D01*
X-9338464Y8725000D01*
X-9303185Y8547640D01*
X-9202719Y8397281D01*
X-9052360Y8296815D01*
X-8875000Y8261536D01*
X-8725000Y8261536D01*
X-8547640Y8296815D01*
X-8475000Y8345351D01*
X-8402360Y8296815D01*
X-8225000Y8261536D01*
X-8075000Y8261536D01*
X-7961841Y8284045D01*
X-7801913Y8177184D01*
X-7575000Y8132048D01*
X-7425000Y8132048D01*
X-7198087Y8177184D01*
X-7038159Y8284045D01*
X-6925000Y8261536D01*
X-6775000Y8261536D01*
X-6597640Y8296815D01*
X-6525000Y8345351D01*
X-6452360Y8296815D01*
X-6275000Y8261536D01*
X-6125000Y8261536D01*
X-5947640Y8296815D01*
X-5797281Y8397281D01*
X-5696815Y8547640D01*
X-5661536Y8725000D01*
X-5661536Y9325000D01*
X-5682677Y9431281D01*
X-5531976Y9531976D01*
X-5507652Y9568380D01*
X-5325000Y9532048D01*
X-4725000Y9532048D01*
X-4498087Y9577184D01*
X-4470894Y9595354D01*
X-4436874Y9424326D01*
X-4277177Y9185323D01*
X-4038174Y9025626D01*
X-3756250Y8969548D01*
X-3243750Y8969548D01*
X-2961826Y9025626D01*
X-2722823Y9185323D01*
X-2563126Y9424326D01*
X-2507048Y9706250D01*
X-2507048Y10143750D01*
X-2563126Y10425674D01*
X-2722823Y10664677D01*
X-2804123Y10719000D01*
X-1355999Y10719000D01*
X-1356000Y9991907D01*
G04 #@! TD*
M02*
